<?xml version="1.0" encoding="UTF-8"?>
<svg viewBox="-18 -18 44 36" height="36mm" width="44mm" xmlns:svgjs="http://svgjs.com/svgjs" xmlns:xlink="http://www.w3.org/1999/xlink" version="1.1" xmlns="http://www.w3.org/2000/svg" id="SvgjsSvg1094">
  <defs id="SvgjsDefs1095">
  </defs>
  <defs id="SvgjsDefs1095">
  </defs>
  <g id="SvgjsG1096">
    <g transform="matrix(1,0,0,1,19,0)" id="SvgjsG1097">
      <g fill="none" stroke-width="0.04" stroke="blue" id="SvgjsG1098">
      </g>
      <g fill="none" stroke-width="0.1" stroke="black" id="SvgjsG1099">
        <circle cy="0" cx="0" r="0.5" id="SvgjsCircle1100">
        </circle>
        <path d="M-2.1904683156918745 4.39427973634474  L-2.2180030537512794 4.2686410034635145 L-2.2393152521362416 4.147329764083151 L-2.254482692592693 4.033025952904345 L-2.264368045393681 3.9234102596848066 L-2.2692753664551155 3.8215868831939437 L-2.269883478286936 3.725547640173187 L-2.266680284568161 3.635794576437178 L-2.2602102575203036 3.5526317479018283 L-2.2402203488161603 3.409958812661819 L-2.213484641419497 3.2918790512714775 L-2.186027685106023 3.2048554197108485 L-2.1601405058467837 3.141618860269336 L-2.088906568710051 3.078856062371218 L-2.017368575657408 3.006893805249863 L-1.9554260216254664 2.934613350076974 L-1.9029516273936127 2.86269351936249 L-1.8598039716056096 2.791798993480727 L-1.8257992064983484 2.722566168534752 L-1.8007110579018497 2.6556314406276336 L-1.7842708252392627 2.5916312058624396 L-1.7761744525946765 2.531152362867554 L-1.776103741916558 2.4747676681357387 L-1.7836768555430662 2.4230428070919423 L-1.7984978136767358 2.3765151808898675 L-1.8201423522488562 2.3356939064119677 L-1.8520611523516168 2.297170728972925 L-2.01369869146305 2.155827154481546 L-2.085965004500315 2.0859650045003155 L-2.155827154481546 2.01369869146305 L-2.297170728972925 1.8520611523516173 L-2.335693906411968 1.8201423522488562 L-2.376515180889867 1.7984978136767362 L-2.4230428070919423 1.7836768555430662 L-2.4747676681357382 1.7761037419165584 L-2.5311523628675534 1.776174452594677 L-2.591631205862439 1.7842708252392632 L-2.655631440627633 1.8007110579018502 L-2.7225661685347515 1.825799206498349 L-2.791798993480727 1.8598039716056098 L-2.86269351936249 1.9029516273936131 L-2.9346133500769738 1.9554260216254669 L-3.0068938052498626 2.0173685756574082 L-3.0788560623712176 2.0889065687100516 L-3.1416188602693356 2.160140505846784 L-3.204855419710848 2.1860276851060236 L-3.291879051271477 2.2134846414194973 L-3.4099588126618188 2.2402203488161607 L-3.5526317479018283 2.2602102575203045 L-3.6357945764371777 2.2666802845681615 L-3.7255476401731866 2.2698834782869364 L-3.8215868831939437 2.2692753664551164 L-3.9234102596848057 2.264368045393682 L-4.033025952904345 2.2544826925926937 L-4.147329764083151 2.239315252136242 L-4.2686410034635145 2.21800305375128 L-4.39427973634474 2.1904683156918754 L-4.509151898873528 2.1603430746677645 A5 5 0 0 1 -4.716045122880641 1.6608586473066973 L-4.65612 1.5583300000000002 L-4.58675 1.4500200000000003 L-4.51604 1.3491700000000002 L-4.44594 1.2576200000000002 L-4.37542 1.1731200000000002 L-4.30689 1.0976500000000002 L-4.23941 1.0293100000000002 L-4.17368 0.9681100000000002 L-4.1103 0.9138800000000002 L-3.99528 0.8271300000000003 L-3.89288 0.7625400000000002 L-3.81193 0.7204200000000002 L-3.74891 0.6940100000000002 L-3.65416 0.7000000000000002 L-3.55269 0.6997000000000002 L-3.45778 0.6923900000000002 L-3.36982 0.6786400000000002 L-3.28918 0.6590200000000003 L-3.21618 0.6341100000000002 L-3.15111 0.6045200000000002 L-3.09423 0.5708900000000002 L-3.04574 0.5338500000000003 L-3.00582 0.4940300000000002 L-2.9746 0.45210000000000017 L-2.95218 0.4087200000000002 L-2.93862 0.36455000000000015 L-2.93395 0.3147400000000002 L-2.9483 0.10050000000000019 L-2.95 1.806354028742346e-16 L-2.9483 -0.10049999999999983 L-2.93395 -0.31473999999999985 L-2.93862 -0.3645499999999998 L-2.95218 -0.40871999999999986 L-2.9746 -0.45209999999999984 L-3.00582 -0.49402999999999986 L-3.04574 -0.5338499999999998 L-3.09423 -0.5708899999999998 L-3.15111 -0.6045199999999997 L-3.21618 -0.6341099999999997 L-3.28918 -0.6590199999999998 L-3.36982 -0.6786399999999998 L-3.45778 -0.6923899999999997 L-3.55269 -0.6996999999999998 L-3.65416 -0.6999999999999997 L-3.74891 -0.6940099999999998 L-3.81193 -0.7204199999999997 L-3.89288 -0.7625399999999998 L-3.99528 -0.8271299999999998 L-4.1103 -0.9138799999999998 L-4.17368 -0.9681099999999998 L-4.23941 -1.0293099999999997 L-4.30689 -1.0976499999999998 L-4.37542 -1.1731199999999997 L-4.44594 -1.2576199999999997 L-4.51604 -1.3491699999999998 L-4.58675 -1.4500199999999999 L-4.65612 -1.5583299999999998 L-4.716045122880641 -1.6608586473066969 A5 5 0 0 1 -4.509151898873528 -2.1603430746677637 L-4.39427973634474 -2.1904683156918745 L-4.2686410034635145 -2.2180030537512794 L-4.147329764083151 -2.2393152521362416 L-4.033025952904345 -2.254482692592693 L-3.9234102596848066 -2.264368045393681 L-3.8215868831939437 -2.2692753664551155 L-3.725547640173187 -2.269883478286936 L-3.635794576437178 -2.266680284568161 L-3.5526317479018283 -2.2602102575203036 L-3.409958812661819 -2.2402203488161603 L-3.2918790512714775 -2.213484641419497 L-3.2048554197108485 -2.186027685106023 L-3.141618860269336 -2.1601405058467837 L-3.078856062371218 -2.088906568710051 L-3.006893805249863 -2.017368575657408 L-2.934613350076974 -1.9554260216254664 L-2.86269351936249 -1.9029516273936127 L-2.791798993480727 -1.8598039716056096 L-2.722566168534752 -1.8257992064983484 L-2.6556314406276336 -1.8007110579018497 L-2.5916312058624396 -1.7842708252392627 L-2.531152362867554 -1.7761744525946765 L-2.4747676681357387 -1.776103741916558 L-2.4230428070919423 -1.7836768555430662 L-2.3765151808898675 -1.7984978136767358 L-2.3356939064119677 -1.8201423522488562 L-2.297170728972925 -1.8520611523516168 L-2.155827154481546 -2.01369869146305 L-2.0859650045003155 -2.085965004500315 L-2.01369869146305 -2.155827154481546 L-1.8520611523516173 -2.297170728972925 L-1.8201423522488562 -2.335693906411968 L-1.7984978136767362 -2.376515180889867 L-1.7836768555430662 -2.4230428070919423 L-1.7761037419165584 -2.4747676681357382 L-1.776174452594677 -2.5311523628675534 L-1.7842708252392632 -2.591631205862439 L-1.8007110579018502 -2.655631440627633 L-1.825799206498349 -2.7225661685347515 L-1.8598039716056098 -2.791798993480727 L-1.9029516273936131 -2.86269351936249 L-1.9554260216254669 -2.9346133500769738 L-2.0173685756574082 -3.0068938052498626 L-2.0889065687100516 -3.0788560623712176 L-2.160140505846784 -3.1416188602693356 L-2.1860276851060236 -3.204855419710848 L-2.2134846414194973 -3.291879051271477 L-2.2402203488161607 -3.4099588126618188 L-2.2602102575203045 -3.5526317479018283 L-2.2666802845681615 -3.6357945764371777 L-2.2698834782869364 -3.7255476401731866 L-2.2692753664551164 -3.8215868831939437 L-2.264368045393682 -3.9234102596848057 L-2.2544826925926937 -4.033025952904345 L-2.239315252136242 -4.147329764083151 L-2.21800305375128 -4.2686410034635145 L-2.1904683156918754 -4.39427973634474 L-2.1603430746677645 -4.509151898873528 A5 5 0 0 1 -1.6608586473066977 -4.716045122880641 L-1.5583300000000007 -4.65612 L-1.4500200000000008 -4.58675 L-1.3491700000000004 -4.51604 L-1.2576200000000004 -4.44594 L-1.1731200000000004 -4.37542 L-1.0976500000000005 -4.30689 L-1.0293100000000004 -4.23941 L-0.9681100000000006 -4.17368 L-0.9138800000000006 -4.1103 L-0.8271300000000005 -3.99528 L-0.7625400000000004 -3.89288 L-0.7204200000000004 -3.81193 L-0.6940100000000005 -3.74891 L-0.7000000000000004 -3.65416 L-0.6997000000000004 -3.55269 L-0.6923900000000004 -3.45778 L-0.6786400000000005 -3.36982 L-0.6590200000000005 -3.28918 L-0.6341100000000004 -3.21618 L-0.6045200000000003 -3.15111 L-0.5708900000000003 -3.09423 L-0.5338500000000004 -3.04574 L-0.4940300000000004 -3.00582 L-0.4521000000000004 -2.9746 L-0.4087200000000004 -2.95218 L-0.3645500000000003 -2.93862 L-0.31474000000000035 -2.93395 L-0.10050000000000037 -2.9483 L-3.612708057484692e-16 -2.95 L0.10049999999999965 -2.9483 L0.3147399999999997 -2.93395 L0.36454999999999965 -2.93862 L0.40871999999999964 -2.95218 L0.4520999999999996 -2.9746 L0.49402999999999964 -3.00582 L0.5338499999999997 -3.04574 L0.5708899999999997 -3.09423 L0.6045199999999996 -3.15111 L0.6341099999999995 -3.21618 L0.6590199999999996 -3.28918 L0.6786399999999996 -3.36982 L0.6923899999999995 -3.45778 L0.6996999999999995 -3.55269 L0.6999999999999995 -3.65416 L0.6940099999999996 -3.74891 L0.7204199999999995 -3.81193 L0.7625399999999996 -3.89288 L0.8271299999999996 -3.99528 L0.9138799999999995 -4.1103 L0.9681099999999995 -4.17368 L1.0293099999999995 -4.23941 L1.0976499999999996 -4.30689 L1.1731199999999995 -4.37542 L1.2576199999999995 -4.44594 L1.3491699999999995 -4.51604 L1.4500199999999994 -4.58675 L1.5583299999999993 -4.65612 L1.6608586473066964 -4.716045122880641 A5 5 0 0 1 2.1603430746677637 -4.509151898873529 L2.1904683156918745 -4.394279736344741 L2.218003053751279 -4.268641003463515 L2.239315252136241 -4.1473297640831515 L2.254482692592693 -4.033025952904346 L2.2643680453936805 -3.923410259684807 L2.2692753664551155 -3.8215868831939446 L2.269883478286936 -3.725547640173187 L2.2666802845681606 -3.6357945764371786 L2.2602102575203036 -3.552631747901829 L2.2402203488161603 -3.409958812661819 L2.213484641419497 -3.2918790512714775 L2.1860276851060227 -3.204855419710849 L2.1601405058467837 -3.1416188602693365 L2.088906568710051 -3.0788560623712184 L2.017368575657408 -3.0068938052498635 L1.9554260216254664 -2.9346133500769747 L1.9029516273936125 -2.862693519362491 L1.8598039716056096 -2.7917989934807275 L1.8257992064983484 -2.7225661685347524 L1.8007110579018497 -2.655631440627634 L1.7842708252392625 -2.5916312058624396 L1.7761744525946765 -2.5311523628675543 L1.776103741916558 -2.4747676681357387 L1.7836768555430662 -2.4230428070919428 L1.7984978136767358 -2.376515180889868 L1.820142352248856 -2.3356939064119686 L1.8520611523516168 -2.297170728972925 L2.01369869146305 -2.1558271544815466 L2.085965004500315 -2.085965004500316 L2.155827154481546 -2.0136986914630506 L2.297170728972925 -1.8520611523516173 L2.335693906411968 -1.8201423522488567 L2.3765151808898675 -1.7984978136767367 L2.4230428070919428 -1.7836768555430667 L2.4747676681357382 -1.7761037419165584 L2.5311523628675534 -1.7761744525946774 L2.591631205862439 -1.7842708252392632 L2.655631440627633 -1.8007110579018506 L2.722566168534752 -1.8257992064983495 L2.791798993480727 -1.8598039716056103 L2.86269351936249 -1.9029516273936136 L2.9346133500769738 -1.9554260216254673 L3.0068938052498626 -2.0173685756574087 L3.0788560623712176 -2.088906568710052 L3.1416188602693356 -2.1601405058467846 L3.2048554197108485 -2.186027685106024 L3.291879051271477 -2.213484641419498 L3.4099588126618188 -2.2402203488161616 L3.5526317479018283 -2.260210257520305 L3.635794576437178 -2.266680284568162 L3.7255476401731866 -2.2698834782869373 L3.8215868831939437 -2.2692753664551164 L3.923410259684806 -2.2643680453936823 L4.033025952904345 -2.254482692592694 L4.147329764083151 -2.239315252136243 L4.2686410034635145 -2.2180030537512803 L4.39427973634474 -2.1904683156918754 L4.509151898873528 -2.1603430746677654 A5 5 0 0 1 4.716045122880641 -1.660858647306698 L4.65612 -1.5583300000000009 L4.58675 -1.450020000000001 L4.51604 -1.3491700000000009 L4.44594 -1.2576200000000008 L4.37542 -1.1731200000000008 L4.30689 -1.097650000000001 L4.23941 -1.0293100000000008 L4.17368 -0.9681100000000008 L4.1103 -0.9138800000000008 L3.99528 -0.8271300000000008 L3.89288 -0.7625400000000007 L3.81193 -0.7204200000000006 L3.74891 -0.6940100000000007 L3.65416 -0.7000000000000006 L3.55269 -0.6997000000000007 L3.45778 -0.6923900000000006 L3.36982 -0.6786400000000007 L3.28918 -0.6590200000000006 L3.21618 -0.6341100000000005 L3.15111 -0.6045200000000005 L3.09423 -0.5708900000000006 L3.04574 -0.5338500000000006 L3.00582 -0.4940300000000006 L2.9746 -0.45210000000000056 L2.95218 -0.4087200000000006 L2.93862 -0.36455000000000054 L2.93395 -0.3147400000000006 L2.9483 -0.10050000000000055 L2.95 -5.419062086227038e-16 L2.9483 0.10049999999999946 L2.93395 0.31473999999999946 L2.93862 0.36454999999999943 L2.95218 0.4087199999999995 L2.9746 0.45209999999999945 L3.00582 0.49402999999999947 L3.04574 0.5338499999999995 L3.09423 0.5708899999999995 L3.15111 0.6045199999999994 L3.21618 0.6341099999999994 L3.28918 0.6590199999999995 L3.36982 0.6786399999999994 L3.45778 0.6923899999999993 L3.55269 0.6996999999999993 L3.65416 0.6999999999999993 L3.74891 0.6940099999999993 L3.81193 0.7204199999999993 L3.89288 0.7625399999999993 L3.99528 0.8271299999999993 L4.1103 0.9138799999999992 L4.17368 0.9681099999999992 L4.23941 1.029309999999999 L4.30689 1.0976499999999991 L4.37542 1.173119999999999 L4.44594 1.257619999999999 L4.51604 1.349169999999999 L4.58675 1.4500199999999992 L4.65612 1.558329999999999 L4.716045122880641 1.6608586473066962 A5 5 0 0 1 4.509151898873529 2.1603430746677628 L4.394279736344741 2.1904683156918736 L4.268641003463515 2.2180030537512785 L4.1473297640831515 2.239315252136241 L4.033025952904346 2.2544826925926924 L3.923410259684807 2.26436804539368 L3.821586883193944 2.269275366455115 L3.725547640173187 2.2698834782869355 L3.6357945764371786 2.26668028456816 L3.552631747901829 2.260210257520303 L3.409958812661819 2.24022034881616 L3.2918790512714775 2.2134846414194964 L3.204855419710849 2.1860276851060227 L3.1416188602693365 2.1601405058467833 L3.0788560623712184 2.0889065687100508 L3.006893805249863 2.017368575657408 L2.9346133500769747 1.955426021625466 L2.8626935193624905 1.902951627393612 L2.791798993480727 1.8598039716056092 L2.7225661685347524 1.8257992064983484 L2.655631440627634 1.8007110579018497 L2.591631205862439 1.784270825239262 L2.5311523628675543 1.776174452594676 L2.4747676681357387 1.7761037419165575 L2.4230428070919428 1.7836768555430658 L2.376515180889868 1.7984978136767353 L2.335693906411968 1.8201423522488556 L2.297170728972925 1.8520611523516164 L2.1558271544815466 2.0136986914630497 L2.085965004500316 2.0859650045003146 L2.0136986914630506 2.1558271544815457 L1.8520611523516173 2.2971707289729246 L1.8201423522488567 2.3356939064119677 L1.7984978136767367 2.376515180889867 L1.7836768555430669 2.4230428070919423 L1.7761037419165584 2.474767668135738 L1.7761744525946774 2.531152362867553 L1.7842708252392632 2.5916312058624387 L1.8007110579018508 2.655631440627633 L1.8257992064983495 2.722566168534752 L1.8598039716056103 2.7917989934807266 L1.9029516273936136 2.8626935193624896 L1.9554260216254675 2.9346133500769733 L2.017368575657409 3.0068938052498626 L2.088906568710052 3.078856062371217 L2.1601405058467846 3.141618860269335 L2.186027685106024 3.2048554197108476 L2.213484641419498 3.2918790512714766 L2.2402203488161616 3.4099588126618183 L2.260210257520305 3.552631747901828 L2.266680284568162 3.6357945764371777 L2.2698834782869373 3.725547640173186 L2.269275366455117 3.8215868831939432 L2.2643680453936823 3.9234102596848057 L2.254482692592694 4.033025952904344 L2.239315252136243 4.14732976408315 L2.2180030537512803 4.2686410034635145 L2.190468315691876 4.39427973634474 L2.1603430746677654 4.509151898873528 A5 5 0 0 1 1.6608586473066982 4.716045122880641 L1.558330000000001 4.65612 L1.4500200000000012 4.58675 L1.349170000000001 4.51604 L1.257620000000001 4.44594 L1.173120000000001 4.37542 L1.0976500000000011 4.30689 L1.029310000000001 4.23941 L0.968110000000001 4.17368 L0.913880000000001 4.1103 L0.827130000000001 3.99528 L0.762540000000001 3.89288 L0.7204200000000008 3.81193 L0.6940100000000009 3.74891 L0.7000000000000008 3.65416 L0.6997000000000009 3.55269 L0.6923900000000008 3.45778 L0.6786400000000008 3.36982 L0.6590200000000008 3.28918 L0.6341100000000007 3.21618 L0.6045200000000007 3.15111 L0.5708900000000008 3.09423 L0.5338500000000008 3.04574 L0.49403000000000075 3.00582 L0.4521000000000007 2.9746 L0.40872000000000075 2.95218 L0.3645500000000007 2.93862 L0.31474000000000074 2.93395 L0.10050000000000073 2.9483 L7.225416114969384e-16 2.95 L-0.10049999999999928 2.9483 L-0.3147399999999993 2.93395 L-0.36454999999999926 2.93862 L-0.4087199999999993 2.95218 L-0.4520999999999993 2.9746 L-0.4940299999999993 3.00582 L-0.5338499999999993 3.04574 L-0.5708899999999992 3.09423 L-0.6045199999999992 3.15111 L-0.6341099999999992 3.21618 L-0.6590199999999993 3.28918 L-0.6786399999999992 3.36982 L-0.6923899999999991 3.45778 L-0.6996999999999991 3.55269 L-0.6999999999999991 3.65416 L-0.6940099999999991 3.74891 L-0.7204199999999991 3.81193 L-0.762539999999999 3.89288 L-0.827129999999999 3.99528 L-0.913879999999999 4.1103 L-0.968109999999999 4.17368 L-1.0293099999999988 4.23941 L-1.097649999999999 4.30689 L-1.1731199999999988 4.37542 L-1.2576199999999988 4.44594 L-1.3491699999999989 4.51604 L-1.450019999999999 4.58675 L-1.5583299999999989 4.65612 L-1.660858647306696 4.716045122880641 A5 5 0 0 1 -2.1603430746677637 4.509151898873528 Z" id="SvgjsPath1101">
        </path>
      </g>
    </g>
    <g transform="matrix(1,0,0,1,0,0)" id="SvgjsG1102">
      <g fill="none" stroke-width="0.04" stroke="blue" id="SvgjsG1103">
      </g>
      <g fill="none" stroke-width="0.1" stroke="black" id="SvgjsG1104">
        <circle cy="0" cx="0" r="0.5" id="SvgjsCircle1105">
        </circle>
        <path d="M15.495108233898254 -2.788384916179707  L15.264854433243574 -2.624338175023188 L15.049742352275011 -2.484315782451947 L14.850329608179969 -2.3660737324338372 L14.668780374969987 -2.26844183231473 L14.505633962336448 -2.189254592529475 L14.360841866767842 -2.126294796938546 L14.236215968443911 -2.0782043990721006 L14.019921121810617 -2.005879226276729 L13.971548220193222 -1.9849079986275473 L13.930209453961002 -1.962926503992339 L13.89591429073542 -1.9402273348592916 L13.86867428870721 -1.917083193278685 L13.848487924994254 -1.893795571673028 L13.83535681256833 -1.8706361268079679 L13.829260583394044 -1.8478943153177942 L13.835620987353753 -1.7830740664639881 L13.873580440387414 -1.458172062583764 L13.904001417454186 -1.1324777329519713 L13.911256891119722 -1.0677515597151057 L13.921948191539252 -1.04677418868489 L13.939607476993933 -1.0268509450425967 L13.964194489010458 -1.0082691948532494 L13.995651169246884 -0.9912943231746998 L14.03391632350737 -0.9762215507216601 L14.078921948231022 -0.9633152172673494 L14.130597949287674 -0.9528595530228938 L14.357203483537688 -0.927085086059139 L14.489104562905048 -0.9059567600079521 L14.643822681345553 -0.87447675641471 L14.819867906346317 -0.8309399943115203 L15.017748666657237 -0.7731877934982883 L15.237387668394572 -0.698989856762637 L15.476911326674664 -0.6067516058895714 L15.736240764671873 -0.49416213663045205 L15.995745275345973 -0.3685715263359062 A16 16 0 0 1 15.995745275345973 0.36857152633591195 L15.736240764671871 0.4941621366304576 L15.476911326674662 0.6067516058895768 L15.23738766839457 0.6989898567626425 L15.017748666657237 0.7731877934982936 L14.819867906346317 0.8309399943115255 L14.64382268134555 0.874476756414715 L14.489104562905046 0.9059567600079573 L14.357203483537686 0.9270850860591441 L14.130597949287672 0.9528595530228987 L14.07892194823102 0.9633152172673544 L14.03391632350737 0.976221550721665 L13.995651169246882 0.9912943231747047 L13.964194489010456 1.0082691948532543 L13.939607476993931 1.0268509450426015 L13.921948191539254 1.046774188684895 L13.911256891119722 1.0677515597151106 L13.904001417454184 1.132477732951976 L13.873580440387412 1.4581720625837689 L13.835620987353751 1.7830740664639928 L13.829260583394044 1.8478943153177991 L13.835356812568328 1.8706361268079728 L13.848487924994252 1.8937955716730328 L13.868674288707208 1.9170831932786898 L13.895914290735417 1.9402273348592964 L13.930209453960998 1.9629265039923438 L13.97154822019322 1.984907998627552 L14.019921121810615 2.005879226276734 L14.23621596844391 2.0782043990721055 L14.36084186676784 2.126294796938551 L14.505633962336447 2.1892545925294797 L14.668780374969984 2.268441832314735 L14.850329608179965 2.3660737324338426 L15.04974235227501 2.4843157824519517 L15.264854433243572 2.624338175023193 L15.495108233898252 2.7883849161797123 L15.72283019225655 2.965185091903104 A16 16 0 0 1 15.569569533800987 3.6862198002716324 L15.289624063168343 3.75511193281685 L15.01255292866979 3.81132343010773 L14.759086026307042 3.851746285111233 L14.528820045248203 3.8786573026878752 L14.323256096599168 3.894005755893888 L14.142006080322423 3.899989274898539 L13.984123863205776 3.8986136592792535 L13.850712312894942 3.8918565042817885 L13.623699840248925 3.8699537975279954 L13.570979228968156 3.8694369356683986 L13.524273707514446 3.872704039238399 L13.483710933076821 3.8794916625280464 L13.449412382504407 3.8895553809577152 L13.42149929259101 3.9026191480823478 L13.4000836296206 3.9184354491523767 L13.385264519086707 3.9367315679480193 L13.364710266810736 3.9985348212068548 L13.26723840231739 4.310787071530517 L13.162557529430533 4.620696973036818 L13.142859228019223 4.6827783415905895 L13.144093951480393 4.706290667251282 L13.152122998254482 4.731674134467159 L13.167026472704693 4.758649846678552 L13.18885927772402 4.7869517481162305 L13.217685586715287 4.816285251315473 L13.253550792006322 4.846381210337106 L13.296506466264844 4.87695145811163 L13.493037502585715 4.992666379632777 L13.604941470088052 5.065617068164385 L13.733479433418855 5.157305010571058 L13.876596752589732 5.2686818656772285 L14.033879886037624 5.401926482577171 L14.204351078684912 5.559044900903642 L14.385650152181332 5.740731784715708 L14.576765119524552 5.949066167997487 L14.762751983255598 6.169348893089244 A16 16 0 0 1 14.462928892545214 6.842762580490383 L14.17477742234808 6.851945318512916 L13.892073929460581 6.849322131671257 L13.63574150291757 6.836162918071165 L13.404912270848266 6.814610875887309 L13.200649264822346 6.786884780430951 L13.022115952714987 6.755053547844451 L12.867969847413125 6.720882434016135 L12.738878551087046 6.686535118067834 L12.521380674426364 6.617912490982482 L12.469919596616007 6.606445692362276 L12.423555433837725 6.599930777944655 L12.38246782710767 6.598136600362523 L12.34682641744199 6.600849332756854 L12.316807185602803 6.607824167506516 L12.292571112352219 6.618842277752488 L12.27427185794428 6.633657516127669 L12.241317146512575 6.68983675067615 L12.081054382792917 6.975000000000001 L11.914227146512577 7.256373249323854 L11.882051857944278 7.313002483872334 L11.878371112352218 7.336257722247516 L11.880947185602801 7.362755832493487 L11.88991641744199 7.39224066724315 L11.905387827107669 7.424463399637482 L11.927485433837726 7.459149222055348 L11.956309596616007 7.496044307637727 L11.991970674426366 7.534877509017521 L12.160148551087046 7.68892488193217 L12.254439847413124 7.783547565983868 L12.361105952714986 7.899956452155553 L12.477939264822346 8.038655219569053 L12.604082270848265 8.201689124112693 L12.738161502917569 8.390817081928837 L12.877723929460581 8.606227868328748 L13.02134742234808 8.849744681487087 L13.157470673042837 9.103882543826906 A16 16 0 0 1 12.72418885785249 9.70024380072383 L12.440424990042644 9.64931581450843 L12.164444637967248 9.587972589386657 L11.916449644303357 9.521806427962208 L11.69514550630656 9.452733253679462 L11.501110716429737 9.38314437297674 L11.333096870928737 9.314889566406318 L11.18942380191843 9.249416396014468 L11.070294668675324 9.18898006163898 L10.871817088880654 9.076636652313598 L10.82386464057867 9.05472107105629 L10.779868172869163 9.038708871673126 L10.740051459420993 9.028411307388971 L10.704624891290896 9.0236544943252 L10.673811502005547 9.024235562952361 L10.647814251173424 9.029973938085766 L10.626834618118627 9.040660799032091 L10.58291972655501 9.088760712742571 L10.366870315409649 9.334371958706072 L10.145187866487172 9.574911194673374 L10.101941805266483 9.623613325929577 L10.093506456865745 9.64559511151124 L10.090516969830402 9.672049770217514 L10.093159960588045 9.702755098742951 L10.101593800057625 9.737490374066482 L10.115996933076284 9.776012578822268 L10.136520299114725 9.81809429868318 L10.163328220255767 9.863493256425572 L10.295802757039201 10.049140471336045 L10.36836040007973 10.16129968556476 L10.448492826710199 10.297341888583944 L10.533935955386516 10.457300766618275 L10.623425779325832 10.642998594853584 L10.715253144992188 10.855870292866207 L10.806979376847034 11.095590496832648 L10.89683435945765 11.36364688660921 L10.977144757868928 11.64053284212408 A16 16 0 0 1 10.429340712639256 12.133777819931593 L10.162366289890098 12.02496490685546 L9.905170744313162 11.907582636748849 L9.676351754763507 11.79130130625476 L9.474244763604753 11.677725829039142 L9.29891844127687 11.569315531101266 L9.148767073650502 11.467620213116952 L9.021846243467378 11.373706477882818 L8.917885788074969 11.289822482898058 L8.747102927784432 11.138668237403653 L8.704754861082996 11.107261689572814 L8.665048945199644 11.082452015172208 L8.628243306472834 11.064101117158446 L8.59457989090114 11.05208265419318 L8.564319037140445 11.046244561210555 L8.537696813336796 11.046452406702286 L8.514953712271085 11.052543823115151 L8.461997932063912 11.09046221894949 L8.19960426948 11.285787071530516 L7.93275519468371 11.474979575294181 L7.880328421203601 11.513626086423457 L7.867507135196589 11.533373709701372 L7.859082742803915 11.55862872133895 L7.855283981101426 11.589212573443087 L7.856311651120035 11.624942293485832 L7.8623908244004825 11.665617275381663 L7.873716424121163 11.711046456432689 L7.89049955380035 11.761027018235971 L7.981480977765742 11.970160401016505 L8.029133850349654 12.09495424956082 L8.079230426746934 12.244684072352648 L8.129549097267434 12.418912090469851 L8.178474604394173 12.619157956225903 L8.224036807141376 12.846469879760114 L8.263917967824705 13.10002257807459 L8.296077346246307 13.380903193958874 L8.31706494259149 13.668435997746569 A16 16 0 0 1 7.6786803327544835 14.037007524082478 L7.440163418425565 13.87506533058933 L7.212993358849956 13.706774183964164 L7.013350861253193 13.545459736522755 L6.839274062263062 13.392345749724194 L6.690318809078882 13.249852084781375 L6.564592254598618 13.11916082876736 L6.459970712555393 13.000911009568775 L6.375722505771944 12.897245487075647 L6.240098395487323 12.713886571258868 L6.205205524109857 12.67436167370004 L6.1715254991068855 12.641838826103326 L6.139339518126848 12.616236616660535 L6.108910507909029 12.59748176829634 L6.080524734190016 12.58547966638155 L6.054441056342664 12.580147898386263 L6.03092846991612 12.581377646138566 L5.971246222770473 12.607457308246154 L5.6739761709074115 12.743959134114283 L5.373623055289837 12.873536285413483 L5.314306871122957 12.900438138432946 L5.297659999231533 12.917088533510258 L5.284168887853808 12.940040132883587 L5.274094397806068 12.969165847471867 L5.267670984262583 13.00432845201774 L5.2651605087613556 13.045378519164549 L5.266793359110224 13.092169688200364 L5.2728181940261845 13.144547463680386 L5.31833018036894 13.368026881970163 L5.3389956233004625 13.500001274821365 L5.356866888685947 13.656874805646428 L5.369861933693114 13.837757363415998 L5.376084844575214 14.043799561472982 L5.373390597511501 14.27561708870671 L5.359683688930411 14.53192081177204 L5.332741944008155 14.813349823035171 L5.293489479617294 15.098962911834695 A16 16 0 0 1 4.592424775932063 15.32675264239571 L4.392789703710697 15.11875881942606 L4.2055735518227575 14.906913926940375 L4.043832881314855 14.707616577977438 L3.905394265922374 14.521655897541459 L3.789320141212653 14.35130652251216 L3.6935132536122253 14.197331163482481 L3.6157634631260454 14.059913344844011 L3.5549095558557426 13.940996975617832 L3.460371619993161 13.733447053953565 L3.4344589298534336 13.687531234351576 L3.4082767744381637 13.648716618060664 L3.382117133019197 13.616982036594527 L3.3562524219163636 13.592310479700666 L3.3309823227606095 13.57466891829986 L3.3065771727548565 13.564030560663614 L3.2833227138202252 13.560344893877595 L3.219522400323565 13.573446015880226 L2.9003680869077435 13.645159030236588 L2.5796378028755242 13.709457685779388 L2.516024609900599 13.723439140622677 L2.496279700306972 13.736264605337045 L2.4783114962489363 13.755909697419519 L2.462401581413798 13.78230434100375 L2.448807818303029 13.8153630555052 L2.4378174138461257 13.854994122988597 L2.4296861514276538 13.901102281393394 L2.424689377384193 13.953588110425226 L2.4227428339103922 14.181646441271756 L2.415517668169622 14.315033464178851 L2.4003825624901194 14.472194576977376 L2.3754860361599963 14.651826238653967 L2.3387343797310667 14.85465973625663 L2.2879014343815567 15.080851328865846 L2.2212055142140854 15.328704374102363 L2.136340129481911 15.598381982505916 L2.038563125403109 15.869592693813072 A16 16 0 0 1 1.3054582195023778 15.946645124317286 L1.15343 15.70169 L1.01435 15.45555 L0.89758 15.22698 L0.80083 15.0163 L0.72271 14.82554 L0.66101 14.65501 L0.61353 14.50443 L0.57873 14.37546 L0.52941 14.15279 L0.51361 14.10249 L0.49607 14.05908 L0.47708 14.0226 L0.45691 13.99309 L0.43586 13.97058 L0.4142 13.9551 L0.39222 13.94666 L0.32709 13.94621 L0 13.95 L-0.32709 13.94621 L-0.39222 13.94666 L-0.4142 13.9551 L-0.43586 13.97058 L-0.45691 13.99309 L-0.47708 14.0226 L-0.49607 14.05908 L-0.51361 14.10249 L-0.52941 14.15279 L-0.57873 14.37546 L-0.61353 14.50443 L-0.66101 14.65501 L-0.72271 14.82554 L-0.80083 15.0163 L-0.89758 15.22698 L-1.01435 15.45555 L-1.15343 15.70169 L-1.3054582195023778 15.946645124317286 A16 16 0 0 1 -2.038563125403109 15.869592693813072 L-2.136340129481911 15.598381982505916 L-2.2212055142140854 15.328704374102363 L-2.2879014343815567 15.080851328865846 L-2.3387343797310667 14.85465973625663 L-2.3754860361599963 14.651826238653967 L-2.4003825624901194 14.472194576977376 L-2.415517668169622 14.315033464178851 L-2.4227428339103922 14.181646441271756 L-2.424689377384193 13.953588110425226 L-2.4296861514276538 13.901102281393394 L-2.4378174138461257 13.854994122988597 L-2.448807818303029 13.8153630555052 L-2.462401581413798 13.78230434100375 L-2.4783114962489363 13.755909697419519 L-2.496279700306972 13.736264605337045 L-2.516024609900599 13.723439140622677 L-2.5796378028755242 13.709457685779388 L-2.9003680869077435 13.645159030236588 L-3.219522400323565 13.573446015880226 L-3.2833227138202252 13.560344893877595 L-3.3065771727548565 13.564030560663614 L-3.3309823227606095 13.57466891829986 L-3.3562524219163636 13.592310479700666 L-3.382117133019197 13.616982036594527 L-3.4082767744381637 13.648716618060664 L-3.4344589298534336 13.687531234351576 L-3.460371619993161 13.733447053953565 L-3.5549095558557426 13.940996975617832 L-3.6157634631260454 14.059913344844011 L-3.6935132536122253 14.197331163482481 L-3.789320141212653 14.35130652251216 L-3.905394265922374 14.521655897541459 L-4.043832881314855 14.707616577977438 L-4.2055735518227575 14.906913926940375 L-4.392789703710697 15.11875881942606 L-4.592424775932063 15.32675264239571 A16 16 0 0 1 -5.293489479617294 15.098962911834695 L-5.332741944008155 14.813349823035171 L-5.359683688930411 14.53192081177204 L-5.373390597511501 14.27561708870671 L-5.376084844575214 14.043799561472982 L-5.369861933693114 13.837757363415998 L-5.356866888685947 13.656874805646428 L-5.3389956233004625 13.500001274821365 L-5.31833018036894 13.368026881970163 L-5.2728181940261845 13.144547463680386 L-5.266793359110224 13.092169688200364 L-5.2651605087613556 13.045378519164549 L-5.267670984262583 13.00432845201774 L-5.274094397806068 12.969165847471867 L-5.284168887853808 12.940040132883587 L-5.297659999231533 12.917088533510258 L-5.314306871122957 12.900438138432946 L-5.373623055289837 12.873536285413483 L-5.6739761709074115 12.743959134114283 L-5.971246222770473 12.607457308246154 L-6.03092846991612 12.581377646138566 L-6.054441056342664 12.580147898386263 L-6.080524734190016 12.58547966638155 L-6.108910507909029 12.59748176829634 L-6.139339518126848 12.616236616660535 L-6.1715254991068855 12.641838826103326 L-6.205205524109857 12.67436167370004 L-6.240098395487323 12.713886571258868 L-6.375722505771944 12.897245487075647 L-6.459970712555393 13.000911009568775 L-6.564592254598618 13.11916082876736 L-6.690318809078882 13.249852084781375 L-6.839274062263062 13.392345749724194 L-7.013350861253193 13.545459736522755 L-7.212993358849956 13.706774183964164 L-7.440163418425565 13.87506533058933 L-7.6786803327544835 14.037007524082478 A16 16 0 0 1 -8.317064942591484 13.66843599774657 L-8.296077346246303 13.380903193958876 L-8.263917967824701 13.100022578074592 L-8.224036807141372 12.846469879760116 L-8.17847460439417 12.619157956225905 L-8.12954909726743 12.418912090469853 L-8.07923042674693 12.24468407235265 L-8.02913385034965 12.094954249560821 L-7.98148097776574 11.970160401016507 L-7.890499553800346 11.761027018235971 L-7.8737164241211595 11.71104645643269 L-7.862390824400481 11.665617275381665 L-7.8563116511200315 11.624942293485834 L-7.855283981101422 11.589212573443088 L-7.859082742803912 11.558628721338952 L-7.867507135196585 11.533373709701374 L-7.880328421203598 11.513626086423459 L-7.932755194683707 11.474979575294183 L-8.199604269479996 11.285787071530518 L-8.46199793206391 11.090462218949492 L-8.514953712271081 11.052543823115153 L-8.537696813336792 11.046452406702288 L-8.564319037140441 11.046244561210557 L-8.594579890901137 11.052082654193182 L-8.628243306472832 11.064101117158447 L-8.665048945199642 11.08245201517221 L-8.704754861082993 11.107261689572816 L-8.747102927784429 11.138668237403657 L-8.917885788074967 11.28982248289806 L-9.021846243467374 11.37370647788282 L-9.148767073650498 11.467620213116954 L-9.298918441276866 11.569315531101267 L-9.47424476360475 11.677725829039144 L-9.676351754763504 11.791301306254761 L-9.905170744313159 11.90758263674885 L-10.162366289890095 12.024964906855462 L-10.429340712639254 12.133777819931595 A16 16 0 0 1 -10.977144757868928 11.64053284212408 L-10.89683435945765 11.36364688660921 L-10.806979376847034 11.095590496832648 L-10.715253144992188 10.855870292866207 L-10.623425779325832 10.642998594853584 L-10.533935955386516 10.457300766618275 L-10.448492826710199 10.297341888583944 L-10.36836040007973 10.16129968556476 L-10.295802757039201 10.049140471336045 L-10.163328220255767 9.863493256425572 L-10.136520299114725 9.81809429868318 L-10.115996933076284 9.776012578822268 L-10.101593800057625 9.737490374066482 L-10.093159960588045 9.702755098742951 L-10.090516969830402 9.672049770217514 L-10.093506456865745 9.64559511151124 L-10.101941805266483 9.623613325929577 L-10.145187866487172 9.574911194673374 L-10.366870315409649 9.334371958706072 L-10.58291972655501 9.088760712742571 L-10.626834618118627 9.040660799032091 L-10.647814251173424 9.029973938085766 L-10.673811502005547 9.024235562952361 L-10.704624891290896 9.0236544943252 L-10.740051459420993 9.028411307388971 L-10.779868172869163 9.038708871673126 L-10.82386464057867 9.05472107105629 L-10.871817088880654 9.076636652313598 L-11.070294668675324 9.18898006163898 L-11.18942380191843 9.249416396014468 L-11.333096870928737 9.314889566406318 L-11.501110716429737 9.38314437297674 L-11.69514550630656 9.452733253679462 L-11.916449644303357 9.521806427962208 L-12.164444637967248 9.587972589386657 L-12.440424990042644 9.64931581450843 L-12.72418885785249 9.70024380072383 A16 16 0 0 1 -13.157470673042837 9.103882543826906 L-13.02134742234808 8.849744681487087 L-12.877723929460581 8.606227868328748 L-12.738161502917569 8.390817081928837 L-12.604082270848265 8.201689124112693 L-12.477939264822346 8.038655219569053 L-12.361105952714986 7.899956452155553 L-12.254439847413124 7.783547565983868 L-12.160148551087046 7.68892488193217 L-11.991970674426366 7.534877509017521 L-11.956309596616007 7.496044307637727 L-11.927485433837726 7.459149222055348 L-11.905387827107669 7.424463399637482 L-11.88991641744199 7.39224066724315 L-11.880947185602801 7.362755832493487 L-11.878371112352218 7.336257722247516 L-11.882051857944278 7.313002483872334 L-11.914227146512577 7.256373249323854 L-12.081054382792917 6.975000000000001 L-12.241317146512575 6.68983675067615 L-12.27427185794428 6.633657516127669 L-12.292571112352219 6.618842277752488 L-12.316807185602803 6.607824167506516 L-12.34682641744199 6.600849332756854 L-12.38246782710767 6.598136600362523 L-12.423555433837725 6.599930777944655 L-12.469919596616007 6.606445692362276 L-12.521380674426364 6.617912490982482 L-12.738878551087046 6.686535118067834 L-12.867969847413125 6.720882434016135 L-13.022115952714987 6.755053547844451 L-13.200649264822346 6.786884780430951 L-13.404912270848266 6.814610875887309 L-13.63574150291757 6.836162918071165 L-13.892073929460581 6.849322131671257 L-14.17477742234808 6.851945318512916 L-14.462928892545214 6.842762580490383 A16 16 0 0 1 -14.762751983255598 6.169348893089247 L-14.576765119524552 5.949066167997491 L-14.385650152181332 5.740731784715711 L-14.204351078684912 5.559044900903645 L-14.033879886037624 5.401926482577174 L-13.876596752589732 5.268681865677232 L-13.733479433418855 5.157305010571061 L-13.604941470088052 5.0656170681643875 L-13.493037502585715 4.992666379632779 L-13.296506466264844 4.876951458111632 L-13.253550792006322 4.84638121033711 L-13.217685586715286 4.816285251315477 L-13.18885927772402 4.786951748116233 L-13.167026472704693 4.758649846678555 L-13.152122998254482 4.731674134467162 L-13.144093951480393 4.7062906672512845 L-13.142859228019223 4.682778341590593 L-13.162557529430533 4.620696973036821 L-13.26723840231739 4.31078707153052 L-13.364710266810736 3.9985348212068574 L-13.385264519086707 3.936731567948023 L-13.4000836296206 3.9184354491523794 L-13.42149929259101 3.9026191480823504 L-13.449412382504407 3.889555380957718 L-13.483710933076821 3.879491662528049 L-13.524273707514448 3.8727040392384025 L-13.570979228968156 3.869436935668402 L-13.623699840248925 3.869953797527998 L-13.850712312894942 3.891856504281791 L-13.984123863205776 3.898613659279256 L-14.142006080322423 3.8999892748985427 L-14.323256096599168 3.8940057558938914 L-14.528820045248203 3.878657302687879 L-14.759086026307042 3.8517462851112367 L-15.01255292866979 3.8113234301077337 L-15.289624063168343 3.7551119328168534 L-15.569569533800987 3.686219800271636 A16 16 0 0 1 -15.72283019225655 2.9651850919031006 L-15.495108233898252 2.7883849161797087 L-15.264854433243572 2.6243381750231896 L-15.04974235227501 2.484315782451948 L-14.850329608179967 2.366073732433839 L-14.668780374969986 2.268441832314732 L-14.505633962336447 2.1892545925294766 L-14.36084186676784 2.1262947969385473 L-14.23621596844391 2.0782043990721024 L-14.019921121810615 2.005879226276731 L-13.97154822019322 1.9849079986275489 L-13.930209453961 1.9629265039923407 L-13.895914290735417 1.9402273348592933 L-13.868674288707208 1.9170831932786867 L-13.848487924994252 1.8937955716730297 L-13.83535681256833 1.8706361268079696 L-13.829260583394044 1.847894315317796 L-13.835620987353751 1.78307406646399 L-13.873580440387412 1.4581720625837657 L-13.904001417454184 1.132477732951973 L-13.911256891119722 1.0677515597151075 L-13.921948191539252 1.0467741886848918 L-13.939607476993931 1.0268509450425984 L-13.964194489010456 1.0082691948532512 L-13.995651169246882 0.9912943231747016 L-14.033916323507368 0.976221550721662 L-14.07892194823102 0.9633152172673513 L-14.130597949287672 0.9528595530228954 L-14.357203483537686 0.9270850860591408 L-14.489104562905046 0.905956760007954 L-14.64382268134555 0.8744767564147119 L-14.819867906346316 0.8309399943115224 L-15.017748666657235 0.7731877934982903 L-15.23738766839457 0.6989898567626389 L-15.476911326674662 0.6067516058895732 L-15.736240764671871 0.49416213663045405 L-15.995745275345973 0.3685715263359084 A16 16 0 0 1 -15.995745275345973 -0.3685715263359062 L-15.736240764671873 -0.49416213663045205 L-15.476911326674664 -0.6067516058895714 L-15.237387668394572 -0.698989856762637 L-15.017748666657237 -0.7731877934982883 L-14.819867906346317 -0.8309399943115203 L-14.643822681345553 -0.87447675641471 L-14.489104562905048 -0.9059567600079521 L-14.357203483537688 -0.927085086059139 L-14.130597949287674 -0.9528595530228938 L-14.078921948231022 -0.9633152172673494 L-14.03391632350737 -0.9762215507216601 L-13.995651169246884 -0.9912943231746998 L-13.964194489010458 -1.0082691948532494 L-13.939607476993933 -1.0268509450425967 L-13.921948191539252 -1.04677418868489 L-13.911256891119722 -1.0677515597151057 L-13.904001417454186 -1.1324777329519713 L-13.873580440387414 -1.458172062583764 L-13.835620987353753 -1.7830740664639881 L-13.829260583394044 -1.8478943153177942 L-13.83535681256833 -1.8706361268079679 L-13.848487924994254 -1.893795571673028 L-13.86867428870721 -1.917083193278685 L-13.89591429073542 -1.9402273348592916 L-13.930209453961002 -1.962926503992339 L-13.971548220193222 -1.9849079986275473 L-14.019921121810617 -2.005879226276729 L-14.236215968443911 -2.0782043990721006 L-14.360841866767842 -2.126294796938546 L-14.505633962336448 -2.189254592529475 L-14.668780374969987 -2.26844183231473 L-14.850329608179969 -2.3660737324338372 L-15.049742352275011 -2.484315782451947 L-15.264854433243574 -2.624338175023188 L-15.495108233898254 -2.788384916179707 L-15.722830192256554 -2.965185091903099 A16 16 0 0 1 -15.569569533800989 -3.686219800271627 L-15.289624063168345 -3.755111932816844 L-15.012552928669791 -3.811323430107725 L-14.759086026307044 -3.851746285111228 L-14.528820045248205 -3.878657302687871 L-14.32325609659917 -3.8940057558938834 L-14.142006080322425 -3.8999892748985348 L-13.984123863205776 -3.898613659279248 L-13.850712312894943 -3.891856504281783 L-13.623699840248927 -3.869953797527991 L-13.570979228968158 -3.869436935668394 L-13.524273707514448 -3.8727040392383945 L-13.483710933076823 -3.879491662528042 L-13.44941238250441 -3.88955538095771 L-13.421499292591012 -3.9026191480823433 L-13.400083629620601 -3.9184354491523714 L-13.385264519086709 -3.936731567948015 L-13.364710266810738 -3.9985348212068494 L-13.267238402317393 -4.310787071530512 L-13.162557529430535 -4.620696973036813 L-13.142859228019224 -4.682778341590585 L-13.144093951480395 -4.7062906672512765 L-13.152122998254484 -4.731674134467155 L-13.167026472704695 -4.758649846678547 L-13.188859277724022 -4.786951748116226 L-13.21768558671529 -4.816285251315469 L-13.253550792006324 -4.846381210337102 L-13.296506466264846 -4.876951458111625 L-13.493037502585716 -4.992666379632771 L-13.604941470088052 -5.0656170681643795 L-13.733479433418857 -5.157305010571053 L-13.876596752589734 -5.268681865677224 L-14.033879886037626 -5.401926482577166 L-14.204351078684914 -5.559044900903636 L-14.385650152181334 -5.740731784715703 L-14.576765119524554 -5.949066167997483 L-14.7627519832556 -6.169348893089238 A16 16 0 0 1 -14.462928892545213 -6.842762580490385 L-14.174777422348079 -6.851945318512918 L-13.89207392946058 -6.849322131671259 L-13.635741502917568 -6.8361629180711665 L-13.404912270848264 -6.814610875887311 L-13.200649264822344 -6.7868847804309524 L-13.022115952714985 -6.755053547844453 L-12.867969847413123 -6.720882434016136 L-12.738878551087044 -6.686535118067836 L-12.521380674426362 -6.617912490982484 L-12.469919596616005 -6.606445692362278 L-12.423555433837723 -6.599930777944657 L-12.382467827107668 -6.598136600362524 L-12.346826417441989 -6.600849332756855 L-12.316807185602801 -6.607824167506517 L-12.292571112352217 -6.6188422777524885 L-12.274271857944278 -6.63365751612767 L-12.241317146512575 -6.689836750676151 L-12.081054382792916 -6.975000000000002 L-11.914227146512573 -7.256373249323855 L-11.882051857944276 -7.313002483872335 L-11.878371112352216 -7.336257722247517 L-11.8809471856028 -7.362755832493488 L-11.889916417441988 -7.392240667243151 L-11.905387827107667 -7.424463399637483 L-11.927485433837724 -7.45914922205535 L-11.956309596616006 -7.496044307637729 L-11.991970674426364 -7.534877509017523 L-12.160148551087044 -7.688924881932172 L-12.254439847413122 -7.78354756598387 L-12.361105952714984 -7.899956452155555 L-12.477939264822345 -8.038655219569055 L-12.604082270848263 -8.201689124112695 L-12.738161502917567 -8.390817081928839 L-12.87772392946058 -8.60622786832875 L-13.021347422348079 -8.849744681487088 L-13.157470673042836 -9.103882543826908 A16 16 0 0 1 -12.724188857852493 -9.700243800723825 L-12.440424990042647 -9.649315814508423 L-12.164444637967252 -9.587972589386652 L-11.91644964430336 -9.521806427962202 L-11.695145506306561 -9.452733253679455 L-11.501110716429741 -9.383144372976735 L-11.33309687092874 -9.314889566406315 L-11.189423801918434 -9.249416396014462 L-11.070294668675327 -9.188980061638974 L-10.871817088880656 -9.076636652313592 L-10.823864640578673 -9.054721071056285 L-10.779868172869165 -9.038708871673121 L-10.740051459420997 -9.028411307388966 L-10.7046248912909 -9.023654494325196 L-10.67381150200555 -9.024235562952356 L-10.647814251173427 -9.02997393808576 L-10.62683461811863 -9.040660799032086 L-10.582919726555014 -9.088760712742566 L-10.366870315409653 -9.334371958706067 L-10.145187866487175 -9.57491119467337 L-10.101941805266486 -9.623613325929572 L-10.093506456865748 -9.645595111511234 L-10.090516969830405 -9.672049770217509 L-10.093159960588048 -9.702755098742948 L-10.101593800057628 -9.737490374066477 L-10.115996933076289 -9.776012578822263 L-10.136520299114729 -9.818094298683175 L-10.163328220255769 -9.863493256425567 L-10.295802757039205 -10.04914047133604 L-10.368360400079734 -10.161299685564755 L-10.448492826710202 -10.29734188858394 L-10.53393595538652 -10.45730076661827 L-10.623425779325833 -10.64299859485358 L-10.715253144992193 -10.855870292866202 L-10.806979376847037 -11.095590496832642 L-10.896834359457653 -11.363646886609207 L-10.977144757868931 -11.640532842124074 A16 16 0 0 1 -10.42934071263926 -12.133777819931591 L-10.1623662898901 -12.024964906855459 L-9.905170744313164 -11.907582636748847 L-9.676351754763509 -11.791301306254757 L-9.474244763604755 -11.67772582903914 L-9.298918441276872 -11.569315531101264 L-9.148767073650504 -11.46762021311695 L-9.02184624346738 -11.373706477882816 L-8.91788578807497 -11.289822482898057 L-8.747102927784434 -11.138668237403651 L-8.704754861082998 -11.107261689572814 L-8.665048945199645 -11.082452015172207 L-8.628243306472834 -11.064101117158444 L-8.594579890901143 -11.052082654193178 L-8.564319037140447 -11.046244561210555 L-8.537696813336797 -11.046452406702285 L-8.514953712271087 -11.05254382311515 L-8.461997932063914 -11.090462218949488 L-8.199604269480002 -11.285787071530514 L-7.932755194683712 -11.47497957529418 L-7.880328421203604 -11.513626086423455 L-7.867507135196591 -11.53337370970137 L-7.859082742803917 -11.55862872133895 L-7.855283981101428 -11.589212573443085 L-7.856311651120035 -11.62494229348583 L-7.862390824400484 -11.665617275381662 L-7.873716424121165 -11.711046456432689 L-7.8904995538003515 -11.76102701823597 L-7.981480977765743 -11.970160401016503 L-8.029133850349655 -12.094954249560818 L-8.079230426746935 -12.244684072352646 L-8.129549097267436 -12.41891209046985 L-8.178474604394175 -12.619157956225902 L-8.224036807141378 -12.846469879760113 L-8.263917967824707 -13.100022578074588 L-8.296077346246308 -13.380903193958872 L-8.31706494259149 -13.668435997746567 A16 16 0 0 1 -7.678680332754482 -14.037007524082478 L-7.440163418425564 -13.87506533058933 L-7.212993358849954 -13.706774183964164 L-7.013350861253191 -13.545459736522755 L-6.83927406226306 -13.392345749724194 L-6.690318809078881 -13.249852084781375 L-6.564592254598616 -13.11916082876736 L-6.459970712555391 -13.000911009568775 L-6.375722505771943 -12.897245487075647 L-6.240098395487321 -12.713886571258868 L-6.205205524109855 -12.67436167370004 L-6.171525499106884 -12.641838826103326 L-6.139339518126846 -12.616236616660535 L-6.108910507909028 -12.59748176829634 L-6.080524734190015 -12.58547966638155 L-6.054441056342662 -12.580147898386265 L-6.030928469916119 -12.581377646138566 L-5.971246222770471 -12.607457308246154 L-5.673976170907411 -12.743959134114283 L-5.373623055289835 -12.873536285413483 L-5.314306871122956 -12.900438138432946 L-5.297659999231532 -12.917088533510256 L-5.284168887853807 -12.940040132883587 L-5.274094397806066 -12.969165847471867 L-5.2676709842625815 -13.00432845201774 L-5.265160508761354 -13.045378519164549 L-5.266793359110222 -13.092169688200364 L-5.272818194026183 -13.144547463680386 L-5.318330180368939 -13.368026881970163 L-5.338995623300461 -13.500001274821365 L-5.356866888685945 -13.656874805646428 L-5.369861933693113 -13.837757363415998 L-5.376084844575212 -14.043799561472982 L-5.3733905975114995 -14.27561708870671 L-5.359683688930409 -14.53192081177204 L-5.332741944008153 -14.813349823035171 L-5.293489479617293 -15.098962911834695 A16 16 0 0 1 -4.592424775932068 -15.326752642395709 L-4.392789703710703 -15.11875881942606 L-4.205573551822763 -14.906913926940375 L-4.04383288131486 -14.707616577977436 L-3.9053942659223786 -14.521655897541459 L-3.7893201412126585 -14.35130652251216 L-3.69351325361223 -14.197331163482481 L-3.6157634631260507 -14.059913344844011 L-3.5549095558557475 -13.940996975617832 L-3.4603716199931656 -13.733447053953565 L-3.434458929853438 -13.687531234351576 L-3.4082767744381686 -13.648716618060664 L-3.382117133019202 -13.616982036594527 L-3.3562524219163685 -13.592310479700664 L-3.3309823227606143 -13.57466891829986 L-3.306577172754861 -13.564030560663614 L-3.2833227138202297 -13.560344893877595 L-3.2195224003235694 -13.573446015880226 L-2.900368086907748 -13.645159030236588 L-2.5796378028755287 -13.709457685779388 L-2.5160246099006036 -13.723439140622677 L-2.4962797003069763 -13.736264605337045 L-2.478311496248941 -13.755909697419519 L-2.4624015814138027 -13.782304341003751 L-2.4488078183030337 -13.8153630555052 L-2.4378174138461306 -13.854994122988597 L-2.429686151427658 -13.901102281393394 L-2.4246893773841975 -13.953588110425226 L-2.422742833910397 -14.181646441271756 L-2.4155176681696267 -14.315033464178851 L-2.4003825624901243 -14.472194576977376 L-2.3754860361600008 -14.651826238653967 L-2.338734379731072 -14.85465973625663 L-2.2879014343815616 -15.080851328865847 L-2.2212055142140907 -15.328704374102363 L-2.1363401294819164 -15.598381982505916 L-2.0385631254031145 -15.869592693813074 A16 16 0 0 1 -1.3054582195023798 -15.946645124317286 L-1.153430000000002 -15.70169 L-1.014350000000002 -15.45555 L-0.8975800000000019 -15.22698 L-0.8008300000000019 -15.0163 L-0.7227100000000017 -14.82554 L-0.6610100000000018 -14.65501 L-0.6135300000000018 -14.50443 L-0.5787300000000017 -14.37546 L-0.5294100000000018 -14.15279 L-0.5136100000000018 -14.10249 L-0.49607000000000173 -14.05908 L-0.4770800000000017 -14.0226 L-0.4569100000000017 -13.99309 L-0.43586000000000175 -13.97058 L-0.41420000000000173 -13.9551 L-0.39222000000000173 -13.94666 L-0.3270900000000017 -13.94621 L-1.7083822848105576e-15 -13.95 L0.32708999999999827 -13.94621 L0.3922199999999983 -13.94666 L0.4141999999999983 -13.9551 L0.4358599999999983 -13.97058 L0.45690999999999826 -13.99309 L0.4770799999999983 -14.0226 L0.4960699999999983 -14.05908 L0.5136099999999982 -14.10249 L0.5294099999999983 -14.15279 L0.5787299999999982 -14.37546 L0.6135299999999982 -14.50443 L0.6610099999999982 -14.65501 L0.7227099999999982 -14.82554 L0.8008299999999982 -15.0163 L0.8975799999999982 -15.22698 L1.014349999999998 -15.45555 L1.153429999999998 -15.70169 L1.3054582195023758 -15.946645124317286 A16 16 0 0 1 2.038563125403111 -15.869592693813072 L2.136340129481913 -15.598381982505916 L2.221205514214087 -15.328704374102363 L2.287901434381558 -15.080851328865846 L2.3387343797310685 -14.85465973625663 L2.375486036159998 -14.651826238653967 L2.400382562490121 -14.472194576977376 L2.415517668169624 -14.315033464178851 L2.422742833910394 -14.181646441271756 L2.4246893773841944 -13.953588110425226 L2.429686151427655 -13.901102281393394 L2.4378174138461275 -13.854994122988597 L2.4488078183030306 -13.8153630555052 L2.4624015814137996 -13.78230434100375 L2.478311496248938 -13.755909697419519 L2.496279700306973 -13.736264605337045 L2.516024609900601 -13.723439140622677 L2.5796378028755256 -13.709457685779388 L2.900368086907745 -13.645159030236588 L3.2195224003235663 -13.573446015880226 L3.283322713820227 -13.560344893877595 L3.306577172754858 -13.564030560663614 L3.3309823227606112 -13.57466891829986 L3.3562524219163654 -13.592310479700666 L3.382117133019199 -13.616982036594527 L3.4082767744381655 -13.648716618060664 L3.434458929853435 -13.687531234351576 L3.4603716199931625 -13.733447053953565 L3.5549095558557444 -13.940996975617832 L3.615763463126047 -14.059913344844011 L3.693513253612227 -14.197331163482481 L3.789320141212655 -14.35130652251216 L3.905394265922376 -14.521655897541459 L4.043832881314857 -14.707616577977438 L4.205573551822759 -14.906913926940375 L4.392789703710699 -15.11875881942606 L4.592424775932065 -15.32675264239571 A16 16 0 0 1 5.293489479617289 -15.098962911834697 L5.332741944008149 -14.813349823035171 L5.359683688930406 -14.531920811772041 L5.373390597511496 -14.275617088706708 L5.3760848445752085 -14.043799561472984 L5.369861933693109 -13.837757363416 L5.356866888685942 -13.65687480564643 L5.338995623300458 -13.500001274821367 L5.318330180368935 -13.368026881970165 L5.272818194026179 -13.144547463680386 L5.26679335911022 -13.092169688200366 L5.26516050876135 -13.04537851916455 L5.267670984262579 -13.004328452017742 L5.2740943978060635 -12.969165847471869 L5.284168887853803 -12.940040132883588 L5.297659999231529 -12.917088533510258 L5.314306871122953 -12.900438138432948 L5.3736230552898325 -12.873536285413483 L5.673976170907407 -12.743959134114284 L5.971246222770469 -12.607457308246158 L6.030928469916115 -12.581377646138568 L6.054441056342659 -12.580147898386267 L6.0805247341900115 -12.585479666381552 L6.108910507909025 -12.597481768296342 L6.139339518126843 -12.616236616660537 L6.17152549910688 -12.641838826103328 L6.205205524109853 -12.674361673700043 L6.240098395487319 -12.713886571258868 L6.3757225057719396 -12.897245487075649 L6.459970712555388 -13.000911009568776 L6.564592254598613 -13.119160828767361 L6.690318809078878 -13.249852084781377 L6.839274062263057 -13.392345749724196 L7.013350861253188 -13.545459736522757 L7.212993358849951 -13.706774183964166 L7.44016341842556 -13.875065330589333 L7.678680332754478 -14.03700752408248 A16 16 0 0 1 8.317064942591486 -13.66843599774657 L8.296077346246305 -13.380903193958876 L8.263917967824703 -13.100022578074592 L8.224036807141374 -12.846469879760116 L8.178474604394172 -12.619157956225905 L8.129549097267432 -12.418912090469853 L8.079230426746932 -12.24468407235265 L8.029133850349652 -12.094954249560821 L7.981480977765742 -11.970160401016507 L7.890499553800348 -11.761027018235971 L7.873716424121161 -11.71104645643269 L7.862390824400481 -11.665617275381665 L7.856311651120033 -11.624942293485834 L7.855283981101424 -11.589212573443088 L7.859082742803913 -11.558628721338952 L7.867507135196587 -11.533373709701374 L7.8803284212035996 -11.513626086423459 L7.9327551946837085 -11.474979575294183 L8.199604269479998 -11.285787071530518 L8.461997932063912 -11.090462218949492 L8.514953712271083 -11.052543823115153 L8.537696813336794 -11.046452406702288 L8.564319037140443 -11.046244561210557 L8.594579890901139 -11.052082654193182 L8.628243306472832 -11.064101117158447 L8.665048945199642 -11.08245201517221 L8.704754861082995 -11.107261689572816 L8.74710292778443 -11.138668237403657 L8.917885788074969 -11.28982248289806 L9.021846243467376 -11.37370647788282 L9.1487670736505 -11.467620213116954 L9.298918441276868 -11.569315531101267 L9.474244763604752 -11.677725829039144 L9.676351754763505 -11.791301306254761 L9.90517074431316 -11.90758263674885 L10.162366289890096 -12.024964906855462 L10.429340712639256 -12.133777819931595 A16 16 0 0 1 10.97714475786893 -11.640532842124077 L10.896834359457651 -11.36364688660921 L10.806979376847035 -11.095590496832646 L10.71525314499219 -10.855870292866205 L10.623425779325832 -10.642998594853582 L10.533935955386518 -10.457300766618273 L10.4484928267102 -10.297341888583942 L10.368360400079732 -10.161299685564758 L10.295802757039203 -10.049140471336043 L10.163328220255769 -9.86349325642557 L10.136520299114727 -9.818094298683178 L10.115996933076286 -9.776012578822266 L10.101593800057627 -9.73749037406648 L10.093159960588046 -9.70275509874295 L10.090516969830404 -9.672049770217512 L10.093506456865747 -9.645595111511238 L10.101941805266485 -9.623613325929576 L10.145187866487174 -9.574911194673373 L10.36687031540965 -9.33437195870607 L10.582919726555012 -9.08876071274257 L10.626834618118629 -9.04066079903209 L10.647814251173426 -9.029973938085764 L10.673811502005549 -9.02423556295236 L10.704624891290898 -9.023654494325198 L10.740051459420995 -9.02841130738897 L10.779868172869165 -9.038708871673125 L10.823864640578671 -9.054721071056289 L10.871817088880656 -9.076636652313596 L11.070294668675325 -9.188980061638977 L11.189423801918432 -9.249416396014466 L11.333096870928738 -9.314889566406316 L11.50111071642974 -9.383144372976739 L11.69514550630656 -9.45273325367946 L11.91644964430336 -9.521806427962206 L12.16444463796725 -9.587972589386656 L12.440424990042645 -9.649315814508427 L12.724188857852491 -9.700243800723829 A16 16 0 0 1 13.157470673042832 -9.103882543826911 L13.021347422348077 -8.849744681487092 L12.877723929460577 -8.606227868328752 L12.738161502917567 -8.390817081928843 L12.604082270848261 -8.201689124112699 L12.477939264822343 -8.038655219569058 L12.361105952714983 -7.899956452155558 L12.25443984741312 -7.783547565983873 L12.160148551087042 -7.6889248819321745 L11.99197067442636 -7.534877509017526 L11.956309596616004 -7.496044307637732 L11.927485433837722 -7.459149222055353 L11.905387827107665 -7.424463399637486 L11.889916417441986 -7.392240667243154 L11.880947185602798 -7.362755832493492 L11.878371112352216 -7.33625772224752 L11.882051857944274 -7.313002483872339 L11.914227146512571 -7.256373249323858 L12.081054382792916 -6.975000000000006 L12.241317146512573 -6.689836750676155 L12.274271857944276 -6.633657516127673 L12.292571112352217 -6.618842277752492 L12.3168071856028 -6.607824167506521 L12.346826417441987 -6.600849332756859 L12.382467827107666 -6.598136600362527 L12.423555433837722 -6.599930777944659 L12.469919596616004 -6.60644569236228 L12.521380674426362 -6.617912490982486 L12.738878551087042 -6.686535118067838 L12.867969847413121 -6.720882434016139 L13.022115952714984 -6.755053547844455 L13.200649264822342 -6.786884780430955 L13.404912270848262 -6.814610875887315 L13.635741502917568 -6.836162918071171 L13.892073929460578 -6.849322131671262 L14.174777422348077 -6.8519453185129215 L14.462928892545213 -6.842762580490389 A16 16 0 0 1 14.762751983255598 -6.1693488930892455 L14.576765119524552 -5.949066167997489 L14.385650152181332 -5.7407317847157096 L14.204351078684912 -5.559044900903643 L14.033879886037624 -5.4019264825771725 L13.876596752589732 -5.26868186567723 L13.733479433418855 -5.15730501057106 L13.604941470088052 -5.065617068164386 L13.493037502585715 -4.9926663796327775 L13.296506466264844 -4.876951458111631 L13.253550792006322 -4.846381210337108 L13.217685586715287 -4.816285251315475 L13.18885927772402 -4.786951748116232 L13.167026472704693 -4.758649846678553 L13.152122998254482 -4.731674134467161 L13.144093951480393 -4.706290667251283 L13.142859228019223 -4.682778341590591 L13.162557529430533 -4.620696973036819 L13.26723840231739 -4.310787071530518 L13.364710266810736 -3.9985348212068557 L13.385264519086707 -3.936731567948021 L13.4000836296206 -3.9184354491523776 L13.42149929259101 -3.9026191480823496 L13.449412382504407 -3.889555380957716 L13.483710933076821 -3.8794916625280482 L13.524273707514446 -3.8727040392384007 L13.570979228968156 -3.8694369356684004 L13.623699840248925 -3.869953797527997 L13.850712312894942 -3.8918565042817894 L13.984123863205776 -3.8986136592792544 L14.142006080322423 -3.899989274898541 L14.323256096599168 -3.8940057558938896 L14.528820045248203 -3.878657302687877 L14.759086026307042 -3.851746285111235 L15.01255292866979 -3.811323430107732 L15.289624063168343 -3.7551119328168516 L15.569569533800987 -3.686219800271634 A16 16 0 0 1 15.722830192256554 -2.965185091903099 Z" id="SvgjsPath1106">
        </path>
      </g>
    </g>
  </g>
</svg>
