<?xml version="1.0" encoding="UTF-8"?>
<svg viewBox="-18.2 -18.2 48.4 36.4" height="36.4mm" width="48.4mm" xmlns:svgjs="http://svgjs.com/svgjs" xmlns:xlink="http://www.w3.org/1999/xlink" version="1.1" xmlns="http://www.w3.org/2000/svg" id="SvgjsSvg1078">
  <defs id="SvgjsDefs1079">
  </defs>
  <defs id="SvgjsDefs1079">
  </defs>
  <g id="SvgjsG1080">
    <g transform="matrix(1,0,0,1,21,0)" id="SvgjsG1081">
      <g fill="none" stroke-width="0.04" stroke="blue" id="SvgjsG1082">
      </g>
      <g fill="none" stroke-width="0.1" stroke="black" id="SvgjsG1083">
        <circle cy="0" cx="0" r="0.5" id="SvgjsCircle1084">
        </circle>
        <path d="M-5.130615493428201 4.570833291282289  L-5.090215218804944 4.416068619569508 L-5.046214026929034 4.272480919492169 L-4.999721411079429 4.1407684923204675 L-4.951234787953638 4.0198097870617815 L-4.902349413439985 3.911241739466461 L-4.852540916222828 3.8119325872952317 L-4.804354833852696 3.7251533301779984 L-4.757081891203379 3.6477924686699055 L-4.712516626195505 3.5813017719163147 L-4.632934610051247 3.476961867246936 L-4.571503534587206 3.408943611114252 L-4.53396707201912 3.3745586714185856 L-4.433189087074449 3.3141112616271684 L-4.3453412599781895 3.2515681614924157 L-4.270417943178196 3.1879191528615825 L-4.208330546835983 3.1241176778359607 L-4.158953160604987 3.0611418195329954 L-4.122078271598271 2.9999110008160916 L-4.097464706674854 2.941382945818845 L-4.084794690153381 2.8864480581667746 L-4.083718125844418 2.836012722247514 L-4.093811975272192 2.790929662194658 L-4.108435738621753 2.761140561075355 L-4.199696595570073 2.6201521200985916 L-4.286825748732972 2.4749999999999996 L-4.368966595570072 2.3269678799014075 L-4.445435738621753 2.177439438924644 L-4.463921975272193 2.149880337805341 L-4.497918125844417 2.118597277752485 L-4.5421346901533814 2.0943119418332246 L-4.596044706674855 2.077817054181154 L-4.659038271598272 2.069868999183907 L-4.730503160604988 2.0711881804670034 L-4.809730546835983 2.082462322164038 L-4.896027943178196 2.104330847138417 L-4.988611259978189 2.1373918385075834 L-5.086699087074449 2.182198738372831 L-5.189437072019119 2.2392513285814135 L-5.237983534587206 2.254566388885747 L-5.327604610051248 2.2737581327530636 L-5.457756626195504 2.2905082280836844 L-5.537621891203379 2.2958575313300935 L-5.628254833852696 2.298116669822 L-5.727500916222827 2.2964574127047666 L-5.838409413439985 2.289938260533537 L-5.9568747879536375 2.277990212938216 L-6.085871411079429 2.259501507679531 L-6.223184026929033 2.233909080507828 L-6.369535218804944 2.200221380430491 L-6.5237654934282014 2.157826708717708 L-6.6745276912057125 2.1095588506485843 A7 7 0 0 1 -6.835089964171137 1.5103322901628793 L-6.72866 1.3931500000000006 L-6.61629 1.2793200000000005 L-6.50639 1.1769700000000005 L-6.40027 1.0861500000000004 L-6.2978 1.0056400000000005 L-6.20118 0.9360600000000003 L-6.10839 0.8749600000000003 L-6.02327 0.8239000000000003 L-5.94365 0.7805400000000003 L-5.87181 0.7452400000000003 L-5.75072 0.6946700000000003 L-5.66351 0.6664800000000003 L-5.61381 0.6554700000000003 L-5.49631 0.6535100000000004 L-5.38896 0.6432700000000003 L-5.29225 0.6256100000000003 L-5.20658 0.6014000000000004 L-5.13233 0.5715500000000003 L-5.06978 0.5369600000000003 L-5.0192 0.49858000000000036 L-4.98076 0.4573400000000003 L-4.95461 0.4142000000000003 L-4.94081 0.37011000000000027 L-4.93858 0.3370000000000003 L-4.94712 0.1692700000000003 L-4.95 3.0310008278896993e-16 L-4.94712 -0.1692699999999997 L-4.93858 -0.33699999999999974 L-4.94081 -0.3701099999999997 L-4.95461 -0.41419999999999974 L-4.98076 -0.45733999999999975 L-5.0192 -0.4985799999999997 L-5.06978 -0.5369599999999997 L-5.13233 -0.5715499999999997 L-5.20658 -0.6013999999999997 L-5.29225 -0.6256099999999997 L-5.38896 -0.6432699999999997 L-5.49631 -0.6535099999999997 L-5.61381 -0.6554699999999997 L-5.66351 -0.6664799999999996 L-5.75072 -0.6946699999999997 L-5.87181 -0.7452399999999997 L-5.94365 -0.7805399999999997 L-6.02327 -0.8238999999999996 L-6.10839 -0.8749599999999996 L-6.20118 -0.9360599999999997 L-6.2978 -1.0056399999999996 L-6.40027 -1.0861499999999995 L-6.50639 -1.1769699999999996 L-6.61629 -1.2793199999999996 L-6.72866 -1.3931499999999997 L-6.835089964171137 -1.5103322901628784 A7 7 0 0 1 -6.674527691205711 -2.109558850648587 L-6.5237654934282 -2.1578267087177103 L-6.369535218804943 -2.2002213804304933 L-6.223184026929033 -2.2339090805078303 L-6.085871411079428 -2.2595015076795333 L-5.9568747879536375 -2.277990212938218 L-5.838409413439985 -2.28993826053354 L-5.727500916222826 -2.296457412704769 L-5.6282548338526945 -2.2981166698220026 L-5.5376218912033774 -2.2958575313300957 L-5.457756626195504 -2.290508228083686 L-5.327604610051247 -2.2737581327530654 L-5.237983534587205 -2.2545663888857486 L-5.189437072019119 -2.2392513285814153 L-5.0866990870744475 -2.182198738372833 L-4.988611259978188 -2.1373918385075856 L-4.896027943178194 -2.104330847138419 L-4.809730546835982 -2.08246232216404 L-4.730503160604987 -2.071188180467005 L-4.659038271598271 -2.069868999183909 L-4.596044706674854 -2.077817054181156 L-4.54213469015338 -2.094311941833226 L-4.497918125844417 -2.118597277752486 L-4.463921975272192 -2.1498803378053424 L-4.445435738621752 -2.177439438924645 L-4.368966595570072 -2.326967879901409 L-4.286825748732971 -2.475000000000001 L-4.199696595570071 -2.620152120098593 L-4.108435738621752 -2.7611405610753565 L-4.0938119752721915 -2.7909296621946593 L-4.083718125844416 -2.8360127222475153 L-4.084794690153379 -2.886448058166776 L-4.097464706674853 -2.9413829458188463 L-4.12207827159827 -2.9999110008160934 L-4.1589531606049865 -3.061141819532997 L-4.208330546835982 -3.1241176778359625 L-4.270417943178194 -3.187919152861584 L-4.345341259978187 -3.251568161492417 L-4.433189087074447 -3.3141112616271697 L-4.533967072019118 -3.3745586714185873 L-4.571503534587205 -3.4089436111142537 L-4.6329346100512465 -3.4769618672469376 L-4.712516626195503 -3.5813017719163165 L-4.757081891203377 -3.647792468669907 L-4.8043548338526945 -3.725153330178 L-4.852540916222826 -3.8119325872952334 L-4.902349413439984 -3.9112417394664627 L-4.951234787953636 -4.019809787061784 L-4.999721411079428 -4.140768492320469 L-5.046214026929032 -4.272480919492172 L-5.090215218804943 -4.41606861956951 L-5.130615493428199 -4.570833291282292 L-5.164195401042832 -4.725531113522552 A7 7 0 0 1 -4.7255311135225515 -5.164195401042834 L-4.57083329128229 -5.130615493428201 L-4.416068619569508 -5.090215218804944 L-4.27248091949217 -5.046214026929034 L-4.1407684923204675 -4.999721411079429 L-4.019809787061782 -4.951234787953638 L-3.9112417394664614 -4.902349413439985 L-3.811932587295232 -4.852540916222828 L-3.7251533301779984 -4.804354833852696 L-3.6477924686699055 -4.757081891203379 L-3.5813017719163147 -4.712516626195505 L-3.476961867246936 -4.632934610051247 L-3.408943611114252 -4.571503534587206 L-3.3745586714185856 -4.53396707201912 L-3.3141112616271684 -4.433189087074449 L-3.2515681614924157 -4.3453412599781895 L-3.1879191528615825 -4.270417943178196 L-3.1241176778359607 -4.208330546835983 L-3.0611418195329954 -4.158953160604987 L-2.9999110008160916 -4.122078271598271 L-2.941382945818845 -4.097464706674854 L-2.8864480581667746 -4.084794690153381 L-2.836012722247514 -4.083718125844418 L-2.790929662194658 -4.093811975272192 L-2.761140561075355 -4.108435738621753 L-2.6201521200985916 -4.199696595570073 L-2.4749999999999996 -4.286825748732972 L-2.3269678799014075 -4.368966595570072 L-2.177439438924644 -4.445435738621753 L-2.149880337805341 -4.463921975272193 L-2.118597277752485 -4.497918125844417 L-2.0943119418332246 -4.5421346901533814 L-2.077817054181154 -4.596044706674855 L-2.069868999183907 -4.659038271598272 L-2.0711881804670034 -4.730503160604988 L-2.082462322164038 -4.809730546835983 L-2.104330847138417 -4.896027943178196 L-2.1373918385075834 -4.988611259978189 L-2.182198738372831 -5.086699087074449 L-2.2392513285814135 -5.189437072019119 L-2.254566388885747 -5.237983534587206 L-2.2737581327530636 -5.327604610051248 L-2.2905082280836844 -5.457756626195504 L-2.2958575313300935 -5.537621891203379 L-2.298116669822001 -5.628254833852696 L-2.296457412704767 -5.727500916222827 L-2.2899382605335377 -5.838409413439985 L-2.2779902129382164 -5.9568747879536375 L-2.2595015076795315 -6.085871411079429 L-2.2339090805078285 -6.223184026929033 L-2.2002213804304915 -6.369535218804944 L-2.1578267087177085 -6.5237654934282014 L-2.1095588506485847 -6.6745276912057125 A7 7 0 0 1 -1.5103322901628797 -6.835089964171137 L-1.393150000000001 -6.72866 L-1.279320000000001 -6.61629 L-1.176970000000001 -6.50639 L-1.0861500000000008 -6.40027 L-1.0056400000000008 -6.2978 L-0.9360600000000008 -6.20118 L-0.8749600000000007 -6.10839 L-0.8239000000000007 -6.02327 L-0.7805400000000008 -5.94365 L-0.7452400000000007 -5.87181 L-0.6946700000000007 -5.75072 L-0.6664800000000006 -5.66351 L-0.6554700000000007 -5.61381 L-0.6535100000000007 -5.49631 L-0.6432700000000007 -5.38896 L-0.6256100000000007 -5.29225 L-0.6014000000000007 -5.20658 L-0.5715500000000007 -5.13233 L-0.5369600000000007 -5.06978 L-0.49858000000000063 -5.0192 L-0.45734000000000063 -4.98076 L-0.4142000000000006 -4.95461 L-0.3701100000000006 -4.94081 L-0.33700000000000063 -4.93858 L-0.16927000000000061 -4.94712 L-6.062001655779399e-16 -4.95 L0.1692699999999994 -4.94712 L0.3369999999999994 -4.93858 L0.3701099999999994 -4.94081 L0.4141999999999994 -4.95461 L0.4573399999999994 -4.98076 L0.4985799999999994 -5.0192 L0.5369599999999993 -5.06978 L0.5715499999999993 -5.13233 L0.6013999999999994 -5.20658 L0.6256099999999993 -5.29225 L0.6432699999999993 -5.38896 L0.6535099999999994 -5.49631 L0.6554699999999993 -5.61381 L0.6664799999999993 -5.66351 L0.6946699999999993 -5.75072 L0.7452399999999993 -5.87181 L0.7805399999999992 -5.94365 L0.8238999999999992 -6.02327 L0.8749599999999992 -6.10839 L0.9360599999999992 -6.20118 L1.0056399999999994 -6.2978 L1.086149999999999 -6.40027 L1.1769699999999992 -6.50639 L1.2793199999999991 -6.61629 L1.3931499999999992 -6.72866 L1.510332290162878 -6.835089964171137 A7 7 0 0 1 2.1095588506485834 -6.674527691205713 L2.1578267087177068 -6.523765493428202 L2.2002213804304898 -6.369535218804945 L2.2339090805078268 -6.223184026929034 L2.2595015076795297 -6.08587141107943 L2.277990212938215 -5.956874787953638 L2.2899382605335363 -5.838409413439986 L2.2964574127047657 -5.727500916222828 L2.298116669821999 -5.628254833852697 L2.295857531330092 -5.53762189120338 L2.290508228083683 -5.457756626195505 L2.2737581327530623 -5.327604610051249 L2.2545663888857455 -5.237983534587206 L2.239251328581412 -5.18943707201912 L2.18219873837283 -5.086699087074448 L2.1373918385075825 -4.988611259978189 L2.104330847138416 -4.896027943178196 L2.0824623221640373 -4.809730546835984 L2.0711881804670025 -4.7305031606049885 L2.0698689991839063 -4.659038271598272 L2.077817054181153 -4.5960447066748555 L2.0943119418332232 -4.5421346901533814 L2.118597277752484 -4.497918125844418 L2.14988033780534 -4.463921975272194 L2.177439438924643 -4.445435738621754 L2.3269678799014066 -4.368966595570073 L2.4749999999999988 -4.286825748732972 L2.6201521200985907 -4.199696595570074 L2.7611405610753543 -4.108435738621754 L2.790929662194657 -4.093811975272193 L2.836012722247513 -4.083718125844419 L2.886448058166774 -4.084794690153381 L2.941382945818844 -4.097464706674855 L2.9999110008160907 -4.122078271598273 L3.0611418195329945 -4.158953160604988 L3.12411767783596 -4.208330546835984 L3.1879191528615816 -4.270417943178196 L3.251568161492415 -4.3453412599781895 L3.3141112616271675 -4.4331890870744495 L3.3745586714185842 -4.533967072019121 L3.4089436111142506 -4.571503534587206 L3.4769618672469345 -4.632934610051248 L3.5813017719163134 -4.712516626195506 L3.647792468669904 -4.75708189120338 L3.7251533301779975 -4.804354833852697 L3.8119325872952308 -4.852540916222829 L3.91124173946646 -4.902349413439986 L4.0198097870617815 -4.951234787953639 L4.140768492320467 -4.99972141107943 L4.272480919492169 -5.046214026929035 L4.416068619569507 -5.0902152188049445 L4.570833291282289 -5.130615493428202 L4.72553111352255 -5.164195401042835 A7 7 0 0 1 5.164195401042836 -4.725531113522549 L5.130615493428203 -4.570833291282288 L5.090215218804945 -4.416068619569506 L5.046214026929035 -4.2724809194921685 L4.999721411079431 -4.140768492320466 L4.951234787953639 -4.019809787061781 L4.902349413439986 -3.9112417394664596 L4.852540916222829 -3.8119325872952303 L4.804354833852697 -3.725153330177997 L4.75708189120338 -3.6477924686699037 L4.712516626195506 -3.581301771916313 L4.632934610051249 -3.476961867246934 L4.571503534587206 -3.4089436111142506 L4.533967072019121 -3.374558671418584 L4.4331890870744495 -3.3141112616271666 L4.3453412599781895 -3.251568161492414 L4.270417943178196 -3.1879191528615807 L4.208330546835984 -3.124117677835959 L4.158953160604988 -3.061141819532994 L4.122078271598273 -2.9999110008160903 L4.097464706674855 -2.9413829458188436 L4.084794690153381 -2.8864480581667733 L4.083718125844419 -2.8360127222475127 L4.093811975272193 -2.7909296621946567 L4.108435738621754 -2.7611405610753543 L4.199696595570074 -2.62015212009859 L4.286825748732972 -2.4749999999999983 L4.368966595570073 -2.326967879901406 L4.445435738621754 -2.177439438924642 L4.463921975272194 -2.1498803378053397 L4.497918125844418 -2.1185972777524835 L4.5421346901533814 -2.0943119418332232 L4.5960447066748555 -2.0778170541811525 L4.659038271598272 -2.069868999183906 L4.7305031606049885 -2.071188180467002 L4.809730546835984 -2.0824623221640364 L4.896027943178196 -2.104330847138415 L4.988611259978189 -2.1373918385075816 L5.086699087074448 -2.182198738372829 L5.18943707201912 -2.2392513285814117 L5.237983534587206 -2.2545663888857446 L5.327604610051248 -2.273758132753062 L5.457756626195505 -2.2905082280836826 L5.53762189120338 -2.2958575313300917 L5.628254833852697 -2.2981166698219986 L5.727500916222828 -2.296457412704765 L5.838409413439986 -2.289938260533536 L5.956874787953638 -2.277990212938214 L6.085871411079429 -2.259501507679529 L6.223184026929034 -2.233909080507826 L6.369535218804944 -2.200221380430489 L6.5237654934282014 -2.157826708717706 L6.6745276912057125 -2.1095588506485825 A7 7 0 0 1 6.835089964171137 -1.5103322901628802 L6.72866 -1.3931500000000014 L6.61629 -1.2793200000000011 L6.50639 -1.1769700000000012 L6.40027 -1.086150000000001 L6.2978 -1.0056400000000012 L6.20118 -0.9360600000000011 L6.10839 -0.8749600000000011 L6.02327 -0.8239000000000011 L5.94365 -0.7805400000000011 L5.87181 -0.7452400000000011 L5.75072 -0.6946700000000011 L5.66351 -0.666480000000001 L5.61381 -0.655470000000001 L5.49631 -0.653510000000001 L5.38896 -0.643270000000001 L5.29225 -0.625610000000001 L5.20658 -0.601400000000001 L5.13233 -0.5715500000000009 L5.06978 -0.5369600000000009 L5.0192 -0.49858000000000097 L4.98076 -0.4573400000000009 L4.95461 -0.4142000000000009 L4.94081 -0.3701100000000009 L4.93858 -0.3370000000000009 L4.94712 -0.16927000000000092 L4.95 -9.093002483669098e-16 L4.94712 0.1692699999999991 L4.93858 0.33699999999999913 L4.94081 0.3701099999999991 L4.95461 0.4141999999999991 L4.98076 0.45733999999999914 L5.0192 0.4985799999999991 L5.06978 0.5369599999999991 L5.13233 0.5715499999999991 L5.20658 0.601399999999999 L5.29225 0.625609999999999 L5.38896 0.643269999999999 L5.49631 0.653509999999999 L5.61381 0.655469999999999 L5.66351 0.666479999999999 L5.75072 0.6946699999999989 L5.87181 0.7452399999999989 L5.94365 0.7805399999999989 L6.02327 0.8238999999999989 L6.10839 0.8749599999999988 L6.20118 0.9360599999999989 L6.2978 1.005639999999999 L6.40027 1.0861499999999988 L6.50639 1.176969999999999 L6.61629 1.279319999999999 L6.72866 1.3931499999999988 L6.835089964171137 1.5103322901628775 A7 7 0 0 1 6.674527691205714 2.1095588506485803 L6.523765493428202 2.157826708717704 L6.369535218804946 2.200221380430487 L6.223184026929036 2.233909080507824 L6.085871411079431 2.259501507679527 L5.956874787953639 2.2779902129382124 L5.8384094134399875 2.289938260533534 L5.727500916222828 2.296457412704763 L5.628254833852697 2.298116669821997 L5.53762189120338 2.29585753133009 L5.457756626195507 2.290508228083681 L5.327604610051249 2.27375813275306 L5.237983534587208 2.2545663888857432 L5.189437072019121 2.2392513285814104 L5.08669908707445 2.182198738372828 L4.988611259978191 2.1373918385075803 L4.896027943178197 2.1043308471384137 L4.8097305468359846 2.0824623221640346 L4.7305031606049885 2.0711881804670003 L4.6590382715982726 2.069868999183904 L4.5960447066748555 2.0778170541811507 L4.542134690153382 2.0943119418332214 L4.497918125844419 2.118597277752482 L4.463921975272195 2.149880337805338 L4.445435738621755 2.1774394389246408 L4.368966595570074 2.326967879901405 L4.286825748732974 2.474999999999997 L4.1996965955700745 2.620152120098589 L4.108435738621755 2.761140561075353 L4.093811975272194 2.7909296621946558 L4.0837181258444195 2.8360127222475113 L4.084794690153384 2.8864480581667724 L4.097464706674857 2.941382945818842 L4.122078271598274 2.9999110008160885 L4.15895316060499 3.0611418195329922 L4.208330546835985 3.124117677835958 L4.270417943178199 3.1879191528615793 L4.345341259978191 3.2515681614924126 L4.433189087074451 3.3141112616271653 L4.533967072019122 3.3745586714185825 L4.571503534587208 3.4089436111142493 L4.63293461005125 3.4769618672469322 L4.712516626195508 3.581301771916311 L4.757081891203382 3.647792468669902 L4.804354833852699 3.7251533301779953 L4.85254091622283 3.811932587295229 L4.902349413439988 3.911241739466458 L4.951234787953641 4.019809787061779 L4.999721411079433 4.140768492320464 L5.046214026929037 4.272480919492167 L5.090215218804947 4.416068619569504 L5.130615493428204 4.570833291282287 L5.1641954010428375 4.725531113522548 A7 7 0 0 1 4.72553111352255 5.164195401042836 L4.570833291282288 5.130615493428203 L4.416068619569506 5.090215218804945 L4.2724809194921685 5.046214026929035 L4.140768492320466 4.99972141107943 L4.019809787061781 4.951234787953639 L3.9112417394664596 4.902349413439986 L3.8119325872952303 4.852540916222829 L3.725153330177997 4.804354833852697 L3.647792468669904 4.75708189120338 L3.5813017719163134 4.712516626195506 L3.4769618672469345 4.632934610051248 L3.4089436111142506 4.571503534587206 L3.3745586714185842 4.533967072019121 L3.314111261627167 4.4331890870744495 L3.251568161492414 4.3453412599781895 L3.187919152861581 4.270417943178196 L3.12411767783596 4.208330546835984 L3.061141819532994 4.158953160604988 L2.9999110008160903 4.122078271598273 L2.9413829458188436 4.097464706674855 L2.8864480581667733 4.084794690153381 L2.8360127222475127 4.083718125844419 L2.7909296621946567 4.093811975272193 L2.7611405610753543 4.108435738621754 L2.62015212009859 4.199696595570074 L2.4749999999999983 4.286825748732972 L2.326967879901406 4.368966595570073 L2.177439438924642 4.445435738621754 L2.1498803378053397 4.463921975272194 L2.1185972777524835 4.497918125844418 L2.0943119418332232 4.5421346901533814 L2.0778170541811525 4.5960447066748555 L2.069868999183906 4.659038271598272 L2.071188180467002 4.7305031606049885 L2.0824623221640364 4.809730546835984 L2.1043308471384155 4.896027943178196 L2.1373918385075825 4.988611259978189 L2.1821987383728296 5.086699087074448 L2.239251328581412 5.18943707201912 L2.2545663888857455 5.237983534587206 L2.2737581327530623 5.327604610051249 L2.290508228083683 5.457756626195505 L2.295857531330092 5.53762189120338 L2.2981166698219986 5.628254833852697 L2.296457412704765 5.727500916222828 L2.289938260533536 5.838409413439986 L2.2779902129382146 5.956874787953638 L2.2595015076795297 6.08587141107943 L2.2339090805078268 6.223184026929034 L2.2002213804304898 6.369535218804944 L2.1578267087177068 6.5237654934282014 L2.1095588506485825 6.6745276912057125 A7 7 0 0 1 1.5103322901628806 6.835089964171137 L1.3931500000000017 6.72866 L1.2793200000000016 6.61629 L1.1769700000000016 6.50639 L1.0861500000000015 6.40027 L1.0056400000000016 6.2978 L0.9360600000000016 6.20118 L0.8749600000000014 6.10839 L0.8239000000000014 6.02327 L0.7805400000000015 5.94365 L0.7452400000000015 5.87181 L0.6946700000000015 5.75072 L0.6664800000000013 5.66351 L0.6554700000000013 5.61381 L0.6535100000000014 5.49631 L0.6432700000000013 5.38896 L0.6256100000000013 5.29225 L0.6014000000000013 5.20658 L0.5715500000000012 5.13233 L0.5369600000000012 5.06978 L0.49858000000000124 5.0192 L0.45734000000000125 4.98076 L0.41420000000000123 4.95461 L0.3701100000000012 4.94081 L0.33700000000000124 4.93858 L0.16927000000000123 4.94712 L1.2124003311558797e-15 4.95 L-0.16926999999999878 4.94712 L-0.3369999999999988 4.93858 L-0.3701099999999988 4.94081 L-0.4141999999999988 4.95461 L-0.4573399999999988 4.98076 L-0.4985799999999988 5.0192 L-0.5369599999999988 5.06978 L-0.5715499999999988 5.13233 L-0.6013999999999988 5.20658 L-0.6256099999999987 5.29225 L-0.6432699999999987 5.38896 L-0.6535099999999987 5.49631 L-0.6554699999999987 5.61381 L-0.6664799999999986 5.66351 L-0.6946699999999986 5.75072 L-0.7452399999999986 5.87181 L-0.7805399999999986 5.94365 L-0.8238999999999985 6.02327 L-0.8749599999999985 6.10839 L-0.9360599999999984 6.20118 L-1.0056399999999985 6.2978 L-1.0861499999999984 6.40027 L-1.1769699999999985 6.50639 L-1.2793199999999985 6.61629 L-1.3931499999999986 6.72866 L-1.510332290162877 6.835089964171137 A7 7 0 0 1 -2.10955885064858 6.674527691205714 L-2.1578267087177037 6.523765493428202 L-2.2002213804304867 6.369535218804946 L-2.2339090805078237 6.223184026929036 L-2.259501507679527 6.085871411079431 L-2.277990212938212 5.956874787953639 L-2.2899382605335337 5.8384094134399875 L-2.296457412704763 5.727500916222828 L-2.2981166698219964 5.628254833852697 L-2.2958575313300895 5.53762189120338 L-2.29050822808368 5.457756626195507 L-2.27375813275306 5.327604610051249 L-2.254566388885743 5.237983534587207 L-2.2392513285814095 5.189437072019121 L-2.1821987383728274 5.08669908707445 L-2.13739183850758 4.988611259978191 L-2.1043308471384132 4.896027943178197 L-2.0824623221640346 4.8097305468359846 L-2.0711881804670003 4.7305031606049885 L-2.069868999183904 4.6590382715982726 L-2.0778170541811507 4.5960447066748555 L-2.094311941833221 4.542134690153382 L-2.1185972777524817 4.497918125844419 L-2.1498803378053375 4.463921975272194 L-2.1774394389246403 4.445435738621755 L-2.3269678799014044 4.368966595570074 L-2.4749999999999965 4.286825748732974 L-2.6201521200985884 4.1996965955700745 L-2.7611405610753526 4.108435738621755 L-2.7909296621946553 4.093811975272195 L-2.836012722247511 4.0837181258444195 L-2.886448058166772 4.084794690153384 L-2.941382945818842 4.097464706674857 L-2.9999110008160885 4.122078271598274 L-3.0611418195329922 4.15895316060499 L-3.124117677835958 4.208330546835985 L-3.187919152861579 4.270417943178199 L-3.251568161492412 4.345341259978191 L-3.314111261627165 4.433189087074451 L-3.3745586714185825 4.533967072019122 L-3.408943611114249 4.571503534587209 L-3.4769618672469322 4.63293461005125 L-3.581301771916311 4.712516626195508 L-3.6477924686699015 4.757081891203382 L-3.725153330177995 4.804354833852699 L-3.811932587295228 4.85254091622283 L-3.9112417394664574 4.902349413439988 L-4.019809787061779 4.951234787953641 L-4.140768492320464 4.999721411079433 L-4.272480919492166 5.046214026929037 L-4.416068619569504 5.090215218804947 L-4.570833291282286 5.130615493428204 L-4.725531113522547 5.1641954010428375 A7 7 0 0 1 -5.164195401042834 4.725531113522551 Z" id="SvgjsPath1085">
        </path>
      </g>
    </g>
    <g transform="matrix(1,0,0,1,0,0)" id="SvgjsG1086">
      <g fill="none" stroke-width="0.04" stroke="blue" id="SvgjsG1087">
      </g>
      <g fill="none" stroke-width="0.1" stroke="black" id="SvgjsG1088">
        <circle cy="0" cx="0" r="0.5" id="SvgjsCircle1089">
        </circle>
        <path d="M15.495108233898254 -2.788384916179707  L15.264854433243574 -2.624338175023188 L15.049742352275011 -2.484315782451947 L14.850329608179969 -2.3660737324338372 L14.668780374969987 -2.26844183231473 L14.505633962336448 -2.189254592529475 L14.360841866767842 -2.126294796938546 L14.236215968443911 -2.0782043990721006 L14.019921121810617 -2.005879226276729 L13.971548220193222 -1.9849079986275473 L13.930209453961002 -1.962926503992339 L13.89591429073542 -1.9402273348592916 L13.86867428870721 -1.917083193278685 L13.848487924994254 -1.893795571673028 L13.83535681256833 -1.8706361268079679 L13.829260583394044 -1.8478943153177942 L13.835620987353753 -1.7830740664639881 L13.873580440387414 -1.458172062583764 L13.904001417454186 -1.1324777329519713 L13.911256891119722 -1.0677515597151057 L13.921948191539252 -1.04677418868489 L13.939607476993933 -1.0268509450425967 L13.964194489010458 -1.0082691948532494 L13.995651169246884 -0.9912943231746998 L14.03391632350737 -0.9762215507216601 L14.078921948231022 -0.9633152172673494 L14.130597949287674 -0.9528595530228938 L14.357203483537688 -0.927085086059139 L14.489104562905048 -0.9059567600079521 L14.643822681345553 -0.87447675641471 L14.819867906346317 -0.8309399943115203 L15.017748666657237 -0.7731877934982883 L15.237387668394572 -0.698989856762637 L15.476911326674664 -0.6067516058895714 L15.736240764671873 -0.49416213663045205 L15.995745275345973 -0.3685715263359062 A16 16 0 0 1 15.995745275345973 0.36857152633591195 L15.736240764671871 0.4941621366304576 L15.476911326674662 0.6067516058895768 L15.23738766839457 0.6989898567626425 L15.017748666657237 0.7731877934982936 L14.819867906346317 0.8309399943115255 L14.64382268134555 0.874476756414715 L14.489104562905046 0.9059567600079573 L14.357203483537686 0.9270850860591441 L14.130597949287672 0.9528595530228987 L14.07892194823102 0.9633152172673544 L14.03391632350737 0.976221550721665 L13.995651169246882 0.9912943231747047 L13.964194489010456 1.0082691948532543 L13.939607476993931 1.0268509450426015 L13.921948191539254 1.046774188684895 L13.911256891119722 1.0677515597151106 L13.904001417454184 1.132477732951976 L13.873580440387412 1.4581720625837689 L13.835620987353751 1.7830740664639928 L13.829260583394044 1.8478943153177991 L13.835356812568328 1.8706361268079728 L13.848487924994252 1.8937955716730328 L13.868674288707208 1.9170831932786898 L13.895914290735417 1.9402273348592964 L13.930209453960998 1.9629265039923438 L13.97154822019322 1.984907998627552 L14.019921121810615 2.005879226276734 L14.23621596844391 2.0782043990721055 L14.36084186676784 2.126294796938551 L14.505633962336447 2.1892545925294797 L14.668780374969984 2.268441832314735 L14.850329608179965 2.3660737324338426 L15.04974235227501 2.4843157824519517 L15.264854433243572 2.624338175023193 L15.495108233898252 2.7883849161797123 L15.72283019225655 2.965185091903104 A16 16 0 0 1 15.569569533800987 3.6862198002716324 L15.289624063168343 3.75511193281685 L15.01255292866979 3.81132343010773 L14.759086026307042 3.851746285111233 L14.528820045248203 3.8786573026878752 L14.323256096599168 3.894005755893888 L14.142006080322423 3.899989274898539 L13.984123863205776 3.8986136592792535 L13.850712312894942 3.8918565042817885 L13.623699840248925 3.8699537975279954 L13.570979228968156 3.8694369356683986 L13.524273707514446 3.872704039238399 L13.483710933076821 3.8794916625280464 L13.449412382504407 3.8895553809577152 L13.42149929259101 3.9026191480823478 L13.4000836296206 3.9184354491523767 L13.385264519086707 3.9367315679480193 L13.364710266810736 3.9985348212068548 L13.26723840231739 4.310787071530517 L13.162557529430533 4.620696973036818 L13.142859228019223 4.6827783415905895 L13.144093951480393 4.706290667251282 L13.152122998254482 4.731674134467159 L13.167026472704693 4.758649846678552 L13.18885927772402 4.7869517481162305 L13.217685586715287 4.816285251315473 L13.253550792006322 4.846381210337106 L13.296506466264844 4.87695145811163 L13.493037502585715 4.992666379632777 L13.604941470088052 5.065617068164385 L13.733479433418855 5.157305010571058 L13.876596752589732 5.2686818656772285 L14.033879886037624 5.401926482577171 L14.204351078684912 5.559044900903642 L14.385650152181332 5.740731784715708 L14.576765119524552 5.949066167997487 L14.762751983255598 6.169348893089244 A16 16 0 0 1 14.462928892545214 6.842762580490383 L14.17477742234808 6.851945318512916 L13.892073929460581 6.849322131671257 L13.63574150291757 6.836162918071165 L13.404912270848266 6.814610875887309 L13.200649264822346 6.786884780430951 L13.022115952714987 6.755053547844451 L12.867969847413125 6.720882434016135 L12.738878551087046 6.686535118067834 L12.521380674426364 6.617912490982482 L12.469919596616007 6.606445692362276 L12.423555433837725 6.599930777944655 L12.38246782710767 6.598136600362523 L12.34682641744199 6.600849332756854 L12.316807185602803 6.607824167506516 L12.292571112352219 6.618842277752488 L12.27427185794428 6.633657516127669 L12.241317146512575 6.68983675067615 L12.081054382792917 6.975000000000001 L11.914227146512577 7.256373249323854 L11.882051857944278 7.313002483872334 L11.878371112352218 7.336257722247516 L11.880947185602801 7.362755832493487 L11.88991641744199 7.39224066724315 L11.905387827107669 7.424463399637482 L11.927485433837726 7.459149222055348 L11.956309596616007 7.496044307637727 L11.991970674426366 7.534877509017521 L12.160148551087046 7.68892488193217 L12.254439847413124 7.783547565983868 L12.361105952714986 7.899956452155553 L12.477939264822346 8.038655219569053 L12.604082270848265 8.201689124112693 L12.738161502917569 8.390817081928837 L12.877723929460581 8.606227868328748 L13.02134742234808 8.849744681487087 L13.157470673042837 9.103882543826906 A16 16 0 0 1 12.72418885785249 9.70024380072383 L12.440424990042644 9.64931581450843 L12.164444637967248 9.587972589386657 L11.916449644303357 9.521806427962208 L11.69514550630656 9.452733253679462 L11.501110716429737 9.38314437297674 L11.333096870928737 9.314889566406318 L11.18942380191843 9.249416396014468 L11.070294668675324 9.18898006163898 L10.871817088880654 9.076636652313598 L10.82386464057867 9.05472107105629 L10.779868172869163 9.038708871673126 L10.740051459420993 9.028411307388971 L10.704624891290896 9.0236544943252 L10.673811502005547 9.024235562952361 L10.647814251173424 9.029973938085766 L10.626834618118627 9.040660799032091 L10.58291972655501 9.088760712742571 L10.366870315409649 9.334371958706072 L10.145187866487172 9.574911194673374 L10.101941805266483 9.623613325929577 L10.093506456865745 9.64559511151124 L10.090516969830402 9.672049770217514 L10.093159960588045 9.702755098742951 L10.101593800057625 9.737490374066482 L10.115996933076284 9.776012578822268 L10.136520299114725 9.81809429868318 L10.163328220255767 9.863493256425572 L10.295802757039201 10.049140471336045 L10.36836040007973 10.16129968556476 L10.448492826710199 10.297341888583944 L10.533935955386516 10.457300766618275 L10.623425779325832 10.642998594853584 L10.715253144992188 10.855870292866207 L10.806979376847034 11.095590496832648 L10.89683435945765 11.36364688660921 L10.977144757868928 11.64053284212408 A16 16 0 0 1 10.429340712639256 12.133777819931593 L10.162366289890098 12.02496490685546 L9.905170744313162 11.907582636748849 L9.676351754763507 11.79130130625476 L9.474244763604753 11.677725829039142 L9.29891844127687 11.569315531101266 L9.148767073650502 11.467620213116952 L9.021846243467378 11.373706477882818 L8.917885788074969 11.289822482898058 L8.747102927784432 11.138668237403653 L8.704754861082996 11.107261689572814 L8.665048945199644 11.082452015172208 L8.628243306472834 11.064101117158446 L8.59457989090114 11.05208265419318 L8.564319037140445 11.046244561210555 L8.537696813336796 11.046452406702286 L8.514953712271085 11.052543823115151 L8.461997932063912 11.09046221894949 L8.19960426948 11.285787071530516 L7.93275519468371 11.474979575294181 L7.880328421203601 11.513626086423457 L7.867507135196589 11.533373709701372 L7.859082742803915 11.55862872133895 L7.855283981101426 11.589212573443087 L7.856311651120035 11.624942293485832 L7.8623908244004825 11.665617275381663 L7.873716424121163 11.711046456432689 L7.89049955380035 11.761027018235971 L7.981480977765742 11.970160401016505 L8.029133850349654 12.09495424956082 L8.079230426746934 12.244684072352648 L8.129549097267434 12.418912090469851 L8.178474604394173 12.619157956225903 L8.224036807141376 12.846469879760114 L8.263917967824705 13.10002257807459 L8.296077346246307 13.380903193958874 L8.31706494259149 13.668435997746569 A16 16 0 0 1 7.6786803327544835 14.037007524082478 L7.440163418425565 13.87506533058933 L7.212993358849956 13.706774183964164 L7.013350861253193 13.545459736522755 L6.839274062263062 13.392345749724194 L6.690318809078882 13.249852084781375 L6.564592254598618 13.11916082876736 L6.459970712555393 13.000911009568775 L6.375722505771944 12.897245487075647 L6.240098395487323 12.713886571258868 L6.205205524109857 12.67436167370004 L6.1715254991068855 12.641838826103326 L6.139339518126848 12.616236616660535 L6.108910507909029 12.59748176829634 L6.080524734190016 12.58547966638155 L6.054441056342664 12.580147898386263 L6.03092846991612 12.581377646138566 L5.971246222770473 12.607457308246154 L5.6739761709074115 12.743959134114283 L5.373623055289837 12.873536285413483 L5.314306871122957 12.900438138432946 L5.297659999231533 12.917088533510258 L5.284168887853808 12.940040132883587 L5.274094397806068 12.969165847471867 L5.267670984262583 13.00432845201774 L5.2651605087613556 13.045378519164549 L5.266793359110224 13.092169688200364 L5.2728181940261845 13.144547463680386 L5.31833018036894 13.368026881970163 L5.3389956233004625 13.500001274821365 L5.356866888685947 13.656874805646428 L5.369861933693114 13.837757363415998 L5.376084844575214 14.043799561472982 L5.373390597511501 14.27561708870671 L5.359683688930411 14.53192081177204 L5.332741944008155 14.813349823035171 L5.293489479617294 15.098962911834695 A16 16 0 0 1 4.592424775932063 15.32675264239571 L4.392789703710697 15.11875881942606 L4.2055735518227575 14.906913926940375 L4.043832881314855 14.707616577977438 L3.905394265922374 14.521655897541459 L3.789320141212653 14.35130652251216 L3.6935132536122253 14.197331163482481 L3.6157634631260454 14.059913344844011 L3.5549095558557426 13.940996975617832 L3.460371619993161 13.733447053953565 L3.4344589298534336 13.687531234351576 L3.4082767744381637 13.648716618060664 L3.382117133019197 13.616982036594527 L3.3562524219163636 13.592310479700666 L3.3309823227606095 13.57466891829986 L3.3065771727548565 13.564030560663614 L3.2833227138202252 13.560344893877595 L3.219522400323565 13.573446015880226 L2.9003680869077435 13.645159030236588 L2.5796378028755242 13.709457685779388 L2.516024609900599 13.723439140622677 L2.496279700306972 13.736264605337045 L2.4783114962489363 13.755909697419519 L2.462401581413798 13.78230434100375 L2.448807818303029 13.8153630555052 L2.4378174138461257 13.854994122988597 L2.4296861514276538 13.901102281393394 L2.424689377384193 13.953588110425226 L2.4227428339103922 14.181646441271756 L2.415517668169622 14.315033464178851 L2.4003825624901194 14.472194576977376 L2.3754860361599963 14.651826238653967 L2.3387343797310667 14.85465973625663 L2.2879014343815567 15.080851328865846 L2.2212055142140854 15.328704374102363 L2.136340129481911 15.598381982505916 L2.038563125403109 15.869592693813072 A16 16 0 0 1 1.3054582195023778 15.946645124317286 L1.15343 15.70169 L1.01435 15.45555 L0.89758 15.22698 L0.80083 15.0163 L0.72271 14.82554 L0.66101 14.65501 L0.61353 14.50443 L0.57873 14.37546 L0.52941 14.15279 L0.51361 14.10249 L0.49607 14.05908 L0.47708 14.0226 L0.45691 13.99309 L0.43586 13.97058 L0.4142 13.9551 L0.39222 13.94666 L0.32709 13.94621 L0 13.95 L-0.32709 13.94621 L-0.39222 13.94666 L-0.4142 13.9551 L-0.43586 13.97058 L-0.45691 13.99309 L-0.47708 14.0226 L-0.49607 14.05908 L-0.51361 14.10249 L-0.52941 14.15279 L-0.57873 14.37546 L-0.61353 14.50443 L-0.66101 14.65501 L-0.72271 14.82554 L-0.80083 15.0163 L-0.89758 15.22698 L-1.01435 15.45555 L-1.15343 15.70169 L-1.3054582195023778 15.946645124317286 A16 16 0 0 1 -2.038563125403109 15.869592693813072 L-2.136340129481911 15.598381982505916 L-2.2212055142140854 15.328704374102363 L-2.2879014343815567 15.080851328865846 L-2.3387343797310667 14.85465973625663 L-2.3754860361599963 14.651826238653967 L-2.4003825624901194 14.472194576977376 L-2.415517668169622 14.315033464178851 L-2.4227428339103922 14.181646441271756 L-2.424689377384193 13.953588110425226 L-2.4296861514276538 13.901102281393394 L-2.4378174138461257 13.854994122988597 L-2.448807818303029 13.8153630555052 L-2.462401581413798 13.78230434100375 L-2.4783114962489363 13.755909697419519 L-2.496279700306972 13.736264605337045 L-2.516024609900599 13.723439140622677 L-2.5796378028755242 13.709457685779388 L-2.9003680869077435 13.645159030236588 L-3.219522400323565 13.573446015880226 L-3.2833227138202252 13.560344893877595 L-3.3065771727548565 13.564030560663614 L-3.3309823227606095 13.57466891829986 L-3.3562524219163636 13.592310479700666 L-3.382117133019197 13.616982036594527 L-3.4082767744381637 13.648716618060664 L-3.4344589298534336 13.687531234351576 L-3.460371619993161 13.733447053953565 L-3.5549095558557426 13.940996975617832 L-3.6157634631260454 14.059913344844011 L-3.6935132536122253 14.197331163482481 L-3.789320141212653 14.35130652251216 L-3.905394265922374 14.521655897541459 L-4.043832881314855 14.707616577977438 L-4.2055735518227575 14.906913926940375 L-4.392789703710697 15.11875881942606 L-4.592424775932063 15.32675264239571 A16 16 0 0 1 -5.293489479617294 15.098962911834695 L-5.332741944008155 14.813349823035171 L-5.359683688930411 14.53192081177204 L-5.373390597511501 14.27561708870671 L-5.376084844575214 14.043799561472982 L-5.369861933693114 13.837757363415998 L-5.356866888685947 13.656874805646428 L-5.3389956233004625 13.500001274821365 L-5.31833018036894 13.368026881970163 L-5.2728181940261845 13.144547463680386 L-5.266793359110224 13.092169688200364 L-5.2651605087613556 13.045378519164549 L-5.267670984262583 13.00432845201774 L-5.274094397806068 12.969165847471867 L-5.284168887853808 12.940040132883587 L-5.297659999231533 12.917088533510258 L-5.314306871122957 12.900438138432946 L-5.373623055289837 12.873536285413483 L-5.6739761709074115 12.743959134114283 L-5.971246222770473 12.607457308246154 L-6.03092846991612 12.581377646138566 L-6.054441056342664 12.580147898386263 L-6.080524734190016 12.58547966638155 L-6.108910507909029 12.59748176829634 L-6.139339518126848 12.616236616660535 L-6.1715254991068855 12.641838826103326 L-6.205205524109857 12.67436167370004 L-6.240098395487323 12.713886571258868 L-6.375722505771944 12.897245487075647 L-6.459970712555393 13.000911009568775 L-6.564592254598618 13.11916082876736 L-6.690318809078882 13.249852084781375 L-6.839274062263062 13.392345749724194 L-7.013350861253193 13.545459736522755 L-7.212993358849956 13.706774183964164 L-7.440163418425565 13.87506533058933 L-7.6786803327544835 14.037007524082478 A16 16 0 0 1 -8.317064942591484 13.66843599774657 L-8.296077346246303 13.380903193958876 L-8.263917967824701 13.100022578074592 L-8.224036807141372 12.846469879760116 L-8.17847460439417 12.619157956225905 L-8.12954909726743 12.418912090469853 L-8.07923042674693 12.24468407235265 L-8.02913385034965 12.094954249560821 L-7.98148097776574 11.970160401016507 L-7.890499553800346 11.761027018235971 L-7.8737164241211595 11.71104645643269 L-7.862390824400481 11.665617275381665 L-7.8563116511200315 11.624942293485834 L-7.855283981101422 11.589212573443088 L-7.859082742803912 11.558628721338952 L-7.867507135196585 11.533373709701374 L-7.880328421203598 11.513626086423459 L-7.932755194683707 11.474979575294183 L-8.199604269479996 11.285787071530518 L-8.46199793206391 11.090462218949492 L-8.514953712271081 11.052543823115153 L-8.537696813336792 11.046452406702288 L-8.564319037140441 11.046244561210557 L-8.594579890901137 11.052082654193182 L-8.628243306472832 11.064101117158447 L-8.665048945199642 11.08245201517221 L-8.704754861082993 11.107261689572816 L-8.747102927784429 11.138668237403657 L-8.917885788074967 11.28982248289806 L-9.021846243467374 11.37370647788282 L-9.148767073650498 11.467620213116954 L-9.298918441276866 11.569315531101267 L-9.47424476360475 11.677725829039144 L-9.676351754763504 11.791301306254761 L-9.905170744313159 11.90758263674885 L-10.162366289890095 12.024964906855462 L-10.429340712639254 12.133777819931595 A16 16 0 0 1 -10.977144757868928 11.64053284212408 L-10.89683435945765 11.36364688660921 L-10.806979376847034 11.095590496832648 L-10.715253144992188 10.855870292866207 L-10.623425779325832 10.642998594853584 L-10.533935955386516 10.457300766618275 L-10.448492826710199 10.297341888583944 L-10.36836040007973 10.16129968556476 L-10.295802757039201 10.049140471336045 L-10.163328220255767 9.863493256425572 L-10.136520299114725 9.81809429868318 L-10.115996933076284 9.776012578822268 L-10.101593800057625 9.737490374066482 L-10.093159960588045 9.702755098742951 L-10.090516969830402 9.672049770217514 L-10.093506456865745 9.64559511151124 L-10.101941805266483 9.623613325929577 L-10.145187866487172 9.574911194673374 L-10.366870315409649 9.334371958706072 L-10.58291972655501 9.088760712742571 L-10.626834618118627 9.040660799032091 L-10.647814251173424 9.029973938085766 L-10.673811502005547 9.024235562952361 L-10.704624891290896 9.0236544943252 L-10.740051459420993 9.028411307388971 L-10.779868172869163 9.038708871673126 L-10.82386464057867 9.05472107105629 L-10.871817088880654 9.076636652313598 L-11.070294668675324 9.18898006163898 L-11.18942380191843 9.249416396014468 L-11.333096870928737 9.314889566406318 L-11.501110716429737 9.38314437297674 L-11.69514550630656 9.452733253679462 L-11.916449644303357 9.521806427962208 L-12.164444637967248 9.587972589386657 L-12.440424990042644 9.64931581450843 L-12.72418885785249 9.70024380072383 A16 16 0 0 1 -13.157470673042837 9.103882543826906 L-13.02134742234808 8.849744681487087 L-12.877723929460581 8.606227868328748 L-12.738161502917569 8.390817081928837 L-12.604082270848265 8.201689124112693 L-12.477939264822346 8.038655219569053 L-12.361105952714986 7.899956452155553 L-12.254439847413124 7.783547565983868 L-12.160148551087046 7.68892488193217 L-11.991970674426366 7.534877509017521 L-11.956309596616007 7.496044307637727 L-11.927485433837726 7.459149222055348 L-11.905387827107669 7.424463399637482 L-11.88991641744199 7.39224066724315 L-11.880947185602801 7.362755832493487 L-11.878371112352218 7.336257722247516 L-11.882051857944278 7.313002483872334 L-11.914227146512577 7.256373249323854 L-12.081054382792917 6.975000000000001 L-12.241317146512575 6.68983675067615 L-12.27427185794428 6.633657516127669 L-12.292571112352219 6.618842277752488 L-12.316807185602803 6.607824167506516 L-12.34682641744199 6.600849332756854 L-12.38246782710767 6.598136600362523 L-12.423555433837725 6.599930777944655 L-12.469919596616007 6.606445692362276 L-12.521380674426364 6.617912490982482 L-12.738878551087046 6.686535118067834 L-12.867969847413125 6.720882434016135 L-13.022115952714987 6.755053547844451 L-13.200649264822346 6.786884780430951 L-13.404912270848266 6.814610875887309 L-13.63574150291757 6.836162918071165 L-13.892073929460581 6.849322131671257 L-14.17477742234808 6.851945318512916 L-14.462928892545214 6.842762580490383 A16 16 0 0 1 -14.762751983255598 6.169348893089247 L-14.576765119524552 5.949066167997491 L-14.385650152181332 5.740731784715711 L-14.204351078684912 5.559044900903645 L-14.033879886037624 5.401926482577174 L-13.876596752589732 5.268681865677232 L-13.733479433418855 5.157305010571061 L-13.604941470088052 5.0656170681643875 L-13.493037502585715 4.992666379632779 L-13.296506466264844 4.876951458111632 L-13.253550792006322 4.84638121033711 L-13.217685586715286 4.816285251315477 L-13.18885927772402 4.786951748116233 L-13.167026472704693 4.758649846678555 L-13.152122998254482 4.731674134467162 L-13.144093951480393 4.7062906672512845 L-13.142859228019223 4.682778341590593 L-13.162557529430533 4.620696973036821 L-13.26723840231739 4.31078707153052 L-13.364710266810736 3.9985348212068574 L-13.385264519086707 3.936731567948023 L-13.4000836296206 3.9184354491523794 L-13.42149929259101 3.9026191480823504 L-13.449412382504407 3.889555380957718 L-13.483710933076821 3.879491662528049 L-13.524273707514448 3.8727040392384025 L-13.570979228968156 3.869436935668402 L-13.623699840248925 3.869953797527998 L-13.850712312894942 3.891856504281791 L-13.984123863205776 3.898613659279256 L-14.142006080322423 3.8999892748985427 L-14.323256096599168 3.8940057558938914 L-14.528820045248203 3.878657302687879 L-14.759086026307042 3.8517462851112367 L-15.01255292866979 3.8113234301077337 L-15.289624063168343 3.7551119328168534 L-15.569569533800987 3.686219800271636 A16 16 0 0 1 -15.72283019225655 2.9651850919031006 L-15.495108233898252 2.7883849161797087 L-15.264854433243572 2.6243381750231896 L-15.04974235227501 2.484315782451948 L-14.850329608179967 2.366073732433839 L-14.668780374969986 2.268441832314732 L-14.505633962336447 2.1892545925294766 L-14.36084186676784 2.1262947969385473 L-14.23621596844391 2.0782043990721024 L-14.019921121810615 2.005879226276731 L-13.97154822019322 1.9849079986275489 L-13.930209453961 1.9629265039923407 L-13.895914290735417 1.9402273348592933 L-13.868674288707208 1.9170831932786867 L-13.848487924994252 1.8937955716730297 L-13.83535681256833 1.8706361268079696 L-13.829260583394044 1.847894315317796 L-13.835620987353751 1.78307406646399 L-13.873580440387412 1.4581720625837657 L-13.904001417454184 1.132477732951973 L-13.911256891119722 1.0677515597151075 L-13.921948191539252 1.0467741886848918 L-13.939607476993931 1.0268509450425984 L-13.964194489010456 1.0082691948532512 L-13.995651169246882 0.9912943231747016 L-14.033916323507368 0.976221550721662 L-14.07892194823102 0.9633152172673513 L-14.130597949287672 0.9528595530228954 L-14.357203483537686 0.9270850860591408 L-14.489104562905046 0.905956760007954 L-14.64382268134555 0.8744767564147119 L-14.819867906346316 0.8309399943115224 L-15.017748666657235 0.7731877934982903 L-15.23738766839457 0.6989898567626389 L-15.476911326674662 0.6067516058895732 L-15.736240764671871 0.49416213663045405 L-15.995745275345973 0.3685715263359084 A16 16 0 0 1 -15.995745275345973 -0.3685715263359062 L-15.736240764671873 -0.49416213663045205 L-15.476911326674664 -0.6067516058895714 L-15.237387668394572 -0.698989856762637 L-15.017748666657237 -0.7731877934982883 L-14.819867906346317 -0.8309399943115203 L-14.643822681345553 -0.87447675641471 L-14.489104562905048 -0.9059567600079521 L-14.357203483537688 -0.927085086059139 L-14.130597949287674 -0.9528595530228938 L-14.078921948231022 -0.9633152172673494 L-14.03391632350737 -0.9762215507216601 L-13.995651169246884 -0.9912943231746998 L-13.964194489010458 -1.0082691948532494 L-13.939607476993933 -1.0268509450425967 L-13.921948191539252 -1.04677418868489 L-13.911256891119722 -1.0677515597151057 L-13.904001417454186 -1.1324777329519713 L-13.873580440387414 -1.458172062583764 L-13.835620987353753 -1.7830740664639881 L-13.829260583394044 -1.8478943153177942 L-13.83535681256833 -1.8706361268079679 L-13.848487924994254 -1.893795571673028 L-13.86867428870721 -1.917083193278685 L-13.89591429073542 -1.9402273348592916 L-13.930209453961002 -1.962926503992339 L-13.971548220193222 -1.9849079986275473 L-14.019921121810617 -2.005879226276729 L-14.236215968443911 -2.0782043990721006 L-14.360841866767842 -2.126294796938546 L-14.505633962336448 -2.189254592529475 L-14.668780374969987 -2.26844183231473 L-14.850329608179969 -2.3660737324338372 L-15.049742352275011 -2.484315782451947 L-15.264854433243574 -2.624338175023188 L-15.495108233898254 -2.788384916179707 L-15.722830192256554 -2.965185091903099 A16 16 0 0 1 -15.569569533800989 -3.686219800271627 L-15.289624063168345 -3.755111932816844 L-15.012552928669791 -3.811323430107725 L-14.759086026307044 -3.851746285111228 L-14.528820045248205 -3.878657302687871 L-14.32325609659917 -3.8940057558938834 L-14.142006080322425 -3.8999892748985348 L-13.984123863205776 -3.898613659279248 L-13.850712312894943 -3.891856504281783 L-13.623699840248927 -3.869953797527991 L-13.570979228968158 -3.869436935668394 L-13.524273707514448 -3.8727040392383945 L-13.483710933076823 -3.879491662528042 L-13.44941238250441 -3.88955538095771 L-13.421499292591012 -3.9026191480823433 L-13.400083629620601 -3.9184354491523714 L-13.385264519086709 -3.936731567948015 L-13.364710266810738 -3.9985348212068494 L-13.267238402317393 -4.310787071530512 L-13.162557529430535 -4.620696973036813 L-13.142859228019224 -4.682778341590585 L-13.144093951480395 -4.7062906672512765 L-13.152122998254484 -4.731674134467155 L-13.167026472704695 -4.758649846678547 L-13.188859277724022 -4.786951748116226 L-13.21768558671529 -4.816285251315469 L-13.253550792006324 -4.846381210337102 L-13.296506466264846 -4.876951458111625 L-13.493037502585716 -4.992666379632771 L-13.604941470088052 -5.0656170681643795 L-13.733479433418857 -5.157305010571053 L-13.876596752589734 -5.268681865677224 L-14.033879886037626 -5.401926482577166 L-14.204351078684914 -5.559044900903636 L-14.385650152181334 -5.740731784715703 L-14.576765119524554 -5.949066167997483 L-14.7627519832556 -6.169348893089238 A16 16 0 0 1 -14.462928892545213 -6.842762580490385 L-14.174777422348079 -6.851945318512918 L-13.89207392946058 -6.849322131671259 L-13.635741502917568 -6.8361629180711665 L-13.404912270848264 -6.814610875887311 L-13.200649264822344 -6.7868847804309524 L-13.022115952714985 -6.755053547844453 L-12.867969847413123 -6.720882434016136 L-12.738878551087044 -6.686535118067836 L-12.521380674426362 -6.617912490982484 L-12.469919596616005 -6.606445692362278 L-12.423555433837723 -6.599930777944657 L-12.382467827107668 -6.598136600362524 L-12.346826417441989 -6.600849332756855 L-12.316807185602801 -6.607824167506517 L-12.292571112352217 -6.6188422777524885 L-12.274271857944278 -6.63365751612767 L-12.241317146512575 -6.689836750676151 L-12.081054382792916 -6.975000000000002 L-11.914227146512573 -7.256373249323855 L-11.882051857944276 -7.313002483872335 L-11.878371112352216 -7.336257722247517 L-11.8809471856028 -7.362755832493488 L-11.889916417441988 -7.392240667243151 L-11.905387827107667 -7.424463399637483 L-11.927485433837724 -7.45914922205535 L-11.956309596616006 -7.496044307637729 L-11.991970674426364 -7.534877509017523 L-12.160148551087044 -7.688924881932172 L-12.254439847413122 -7.78354756598387 L-12.361105952714984 -7.899956452155555 L-12.477939264822345 -8.038655219569055 L-12.604082270848263 -8.201689124112695 L-12.738161502917567 -8.390817081928839 L-12.87772392946058 -8.60622786832875 L-13.021347422348079 -8.849744681487088 L-13.157470673042836 -9.103882543826908 A16 16 0 0 1 -12.724188857852493 -9.700243800723825 L-12.440424990042647 -9.649315814508423 L-12.164444637967252 -9.587972589386652 L-11.91644964430336 -9.521806427962202 L-11.695145506306561 -9.452733253679455 L-11.501110716429741 -9.383144372976735 L-11.33309687092874 -9.314889566406315 L-11.189423801918434 -9.249416396014462 L-11.070294668675327 -9.188980061638974 L-10.871817088880656 -9.076636652313592 L-10.823864640578673 -9.054721071056285 L-10.779868172869165 -9.038708871673121 L-10.740051459420997 -9.028411307388966 L-10.7046248912909 -9.023654494325196 L-10.67381150200555 -9.024235562952356 L-10.647814251173427 -9.02997393808576 L-10.62683461811863 -9.040660799032086 L-10.582919726555014 -9.088760712742566 L-10.366870315409653 -9.334371958706067 L-10.145187866487175 -9.57491119467337 L-10.101941805266486 -9.623613325929572 L-10.093506456865748 -9.645595111511234 L-10.090516969830405 -9.672049770217509 L-10.093159960588048 -9.702755098742948 L-10.101593800057628 -9.737490374066477 L-10.115996933076289 -9.776012578822263 L-10.136520299114729 -9.818094298683175 L-10.163328220255769 -9.863493256425567 L-10.295802757039205 -10.04914047133604 L-10.368360400079734 -10.161299685564755 L-10.448492826710202 -10.29734188858394 L-10.53393595538652 -10.45730076661827 L-10.623425779325833 -10.64299859485358 L-10.715253144992193 -10.855870292866202 L-10.806979376847037 -11.095590496832642 L-10.896834359457653 -11.363646886609207 L-10.977144757868931 -11.640532842124074 A16 16 0 0 1 -10.42934071263926 -12.133777819931591 L-10.1623662898901 -12.024964906855459 L-9.905170744313164 -11.907582636748847 L-9.676351754763509 -11.791301306254757 L-9.474244763604755 -11.67772582903914 L-9.298918441276872 -11.569315531101264 L-9.148767073650504 -11.46762021311695 L-9.02184624346738 -11.373706477882816 L-8.91788578807497 -11.289822482898057 L-8.747102927784434 -11.138668237403651 L-8.704754861082998 -11.107261689572814 L-8.665048945199645 -11.082452015172207 L-8.628243306472834 -11.064101117158444 L-8.594579890901143 -11.052082654193178 L-8.564319037140447 -11.046244561210555 L-8.537696813336797 -11.046452406702285 L-8.514953712271087 -11.05254382311515 L-8.461997932063914 -11.090462218949488 L-8.199604269480002 -11.285787071530514 L-7.932755194683712 -11.47497957529418 L-7.880328421203604 -11.513626086423455 L-7.867507135196591 -11.53337370970137 L-7.859082742803917 -11.55862872133895 L-7.855283981101428 -11.589212573443085 L-7.856311651120035 -11.62494229348583 L-7.862390824400484 -11.665617275381662 L-7.873716424121165 -11.711046456432689 L-7.8904995538003515 -11.76102701823597 L-7.981480977765743 -11.970160401016503 L-8.029133850349655 -12.094954249560818 L-8.079230426746935 -12.244684072352646 L-8.129549097267436 -12.41891209046985 L-8.178474604394175 -12.619157956225902 L-8.224036807141378 -12.846469879760113 L-8.263917967824707 -13.100022578074588 L-8.296077346246308 -13.380903193958872 L-8.31706494259149 -13.668435997746567 A16 16 0 0 1 -7.678680332754482 -14.037007524082478 L-7.440163418425564 -13.87506533058933 L-7.212993358849954 -13.706774183964164 L-7.013350861253191 -13.545459736522755 L-6.83927406226306 -13.392345749724194 L-6.690318809078881 -13.249852084781375 L-6.564592254598616 -13.11916082876736 L-6.459970712555391 -13.000911009568775 L-6.375722505771943 -12.897245487075647 L-6.240098395487321 -12.713886571258868 L-6.205205524109855 -12.67436167370004 L-6.171525499106884 -12.641838826103326 L-6.139339518126846 -12.616236616660535 L-6.108910507909028 -12.59748176829634 L-6.080524734190015 -12.58547966638155 L-6.054441056342662 -12.580147898386265 L-6.030928469916119 -12.581377646138566 L-5.971246222770471 -12.607457308246154 L-5.673976170907411 -12.743959134114283 L-5.373623055289835 -12.873536285413483 L-5.314306871122956 -12.900438138432946 L-5.297659999231532 -12.917088533510256 L-5.284168887853807 -12.940040132883587 L-5.274094397806066 -12.969165847471867 L-5.2676709842625815 -13.00432845201774 L-5.265160508761354 -13.045378519164549 L-5.266793359110222 -13.092169688200364 L-5.272818194026183 -13.144547463680386 L-5.318330180368939 -13.368026881970163 L-5.338995623300461 -13.500001274821365 L-5.356866888685945 -13.656874805646428 L-5.369861933693113 -13.837757363415998 L-5.376084844575212 -14.043799561472982 L-5.3733905975114995 -14.27561708870671 L-5.359683688930409 -14.53192081177204 L-5.332741944008153 -14.813349823035171 L-5.293489479617293 -15.098962911834695 A16 16 0 0 1 -4.592424775932068 -15.326752642395709 L-4.392789703710703 -15.11875881942606 L-4.205573551822763 -14.906913926940375 L-4.04383288131486 -14.707616577977436 L-3.9053942659223786 -14.521655897541459 L-3.7893201412126585 -14.35130652251216 L-3.69351325361223 -14.197331163482481 L-3.6157634631260507 -14.059913344844011 L-3.5549095558557475 -13.940996975617832 L-3.4603716199931656 -13.733447053953565 L-3.434458929853438 -13.687531234351576 L-3.4082767744381686 -13.648716618060664 L-3.382117133019202 -13.616982036594527 L-3.3562524219163685 -13.592310479700664 L-3.3309823227606143 -13.57466891829986 L-3.306577172754861 -13.564030560663614 L-3.2833227138202297 -13.560344893877595 L-3.2195224003235694 -13.573446015880226 L-2.900368086907748 -13.645159030236588 L-2.5796378028755287 -13.709457685779388 L-2.5160246099006036 -13.723439140622677 L-2.4962797003069763 -13.736264605337045 L-2.478311496248941 -13.755909697419519 L-2.4624015814138027 -13.782304341003751 L-2.4488078183030337 -13.8153630555052 L-2.4378174138461306 -13.854994122988597 L-2.429686151427658 -13.901102281393394 L-2.4246893773841975 -13.953588110425226 L-2.422742833910397 -14.181646441271756 L-2.4155176681696267 -14.315033464178851 L-2.4003825624901243 -14.472194576977376 L-2.3754860361600008 -14.651826238653967 L-2.338734379731072 -14.85465973625663 L-2.2879014343815616 -15.080851328865847 L-2.2212055142140907 -15.328704374102363 L-2.1363401294819164 -15.598381982505916 L-2.0385631254031145 -15.869592693813074 A16 16 0 0 1 -1.3054582195023798 -15.946645124317286 L-1.153430000000002 -15.70169 L-1.014350000000002 -15.45555 L-0.8975800000000019 -15.22698 L-0.8008300000000019 -15.0163 L-0.7227100000000017 -14.82554 L-0.6610100000000018 -14.65501 L-0.6135300000000018 -14.50443 L-0.5787300000000017 -14.37546 L-0.5294100000000018 -14.15279 L-0.5136100000000018 -14.10249 L-0.49607000000000173 -14.05908 L-0.4770800000000017 -14.0226 L-0.4569100000000017 -13.99309 L-0.43586000000000175 -13.97058 L-0.41420000000000173 -13.9551 L-0.39222000000000173 -13.94666 L-0.3270900000000017 -13.94621 L-1.7083822848105576e-15 -13.95 L0.32708999999999827 -13.94621 L0.3922199999999983 -13.94666 L0.4141999999999983 -13.9551 L0.4358599999999983 -13.97058 L0.45690999999999826 -13.99309 L0.4770799999999983 -14.0226 L0.4960699999999983 -14.05908 L0.5136099999999982 -14.10249 L0.5294099999999983 -14.15279 L0.5787299999999982 -14.37546 L0.6135299999999982 -14.50443 L0.6610099999999982 -14.65501 L0.7227099999999982 -14.82554 L0.8008299999999982 -15.0163 L0.8975799999999982 -15.22698 L1.014349999999998 -15.45555 L1.153429999999998 -15.70169 L1.3054582195023758 -15.946645124317286 A16 16 0 0 1 2.038563125403111 -15.869592693813072 L2.136340129481913 -15.598381982505916 L2.221205514214087 -15.328704374102363 L2.287901434381558 -15.080851328865846 L2.3387343797310685 -14.85465973625663 L2.375486036159998 -14.651826238653967 L2.400382562490121 -14.472194576977376 L2.415517668169624 -14.315033464178851 L2.422742833910394 -14.181646441271756 L2.4246893773841944 -13.953588110425226 L2.429686151427655 -13.901102281393394 L2.4378174138461275 -13.854994122988597 L2.4488078183030306 -13.8153630555052 L2.4624015814137996 -13.78230434100375 L2.478311496248938 -13.755909697419519 L2.496279700306973 -13.736264605337045 L2.516024609900601 -13.723439140622677 L2.5796378028755256 -13.709457685779388 L2.900368086907745 -13.645159030236588 L3.2195224003235663 -13.573446015880226 L3.283322713820227 -13.560344893877595 L3.306577172754858 -13.564030560663614 L3.3309823227606112 -13.57466891829986 L3.3562524219163654 -13.592310479700666 L3.382117133019199 -13.616982036594527 L3.4082767744381655 -13.648716618060664 L3.434458929853435 -13.687531234351576 L3.4603716199931625 -13.733447053953565 L3.5549095558557444 -13.940996975617832 L3.615763463126047 -14.059913344844011 L3.693513253612227 -14.197331163482481 L3.789320141212655 -14.35130652251216 L3.905394265922376 -14.521655897541459 L4.043832881314857 -14.707616577977438 L4.205573551822759 -14.906913926940375 L4.392789703710699 -15.11875881942606 L4.592424775932065 -15.32675264239571 A16 16 0 0 1 5.293489479617289 -15.098962911834697 L5.332741944008149 -14.813349823035171 L5.359683688930406 -14.531920811772041 L5.373390597511496 -14.275617088706708 L5.3760848445752085 -14.043799561472984 L5.369861933693109 -13.837757363416 L5.356866888685942 -13.65687480564643 L5.338995623300458 -13.500001274821367 L5.318330180368935 -13.368026881970165 L5.272818194026179 -13.144547463680386 L5.26679335911022 -13.092169688200366 L5.26516050876135 -13.04537851916455 L5.267670984262579 -13.004328452017742 L5.2740943978060635 -12.969165847471869 L5.284168887853803 -12.940040132883588 L5.297659999231529 -12.917088533510258 L5.314306871122953 -12.900438138432948 L5.3736230552898325 -12.873536285413483 L5.673976170907407 -12.743959134114284 L5.971246222770469 -12.607457308246158 L6.030928469916115 -12.581377646138568 L6.054441056342659 -12.580147898386267 L6.0805247341900115 -12.585479666381552 L6.108910507909025 -12.597481768296342 L6.139339518126843 -12.616236616660537 L6.17152549910688 -12.641838826103328 L6.205205524109853 -12.674361673700043 L6.240098395487319 -12.713886571258868 L6.3757225057719396 -12.897245487075649 L6.459970712555388 -13.000911009568776 L6.564592254598613 -13.119160828767361 L6.690318809078878 -13.249852084781377 L6.839274062263057 -13.392345749724196 L7.013350861253188 -13.545459736522757 L7.212993358849951 -13.706774183964166 L7.44016341842556 -13.875065330589333 L7.678680332754478 -14.03700752408248 A16 16 0 0 1 8.317064942591486 -13.66843599774657 L8.296077346246305 -13.380903193958876 L8.263917967824703 -13.100022578074592 L8.224036807141374 -12.846469879760116 L8.178474604394172 -12.619157956225905 L8.129549097267432 -12.418912090469853 L8.079230426746932 -12.24468407235265 L8.029133850349652 -12.094954249560821 L7.981480977765742 -11.970160401016507 L7.890499553800348 -11.761027018235971 L7.873716424121161 -11.71104645643269 L7.862390824400481 -11.665617275381665 L7.856311651120033 -11.624942293485834 L7.855283981101424 -11.589212573443088 L7.859082742803913 -11.558628721338952 L7.867507135196587 -11.533373709701374 L7.8803284212035996 -11.513626086423459 L7.9327551946837085 -11.474979575294183 L8.199604269479998 -11.285787071530518 L8.461997932063912 -11.090462218949492 L8.514953712271083 -11.052543823115153 L8.537696813336794 -11.046452406702288 L8.564319037140443 -11.046244561210557 L8.594579890901139 -11.052082654193182 L8.628243306472832 -11.064101117158447 L8.665048945199642 -11.08245201517221 L8.704754861082995 -11.107261689572816 L8.74710292778443 -11.138668237403657 L8.917885788074969 -11.28982248289806 L9.021846243467376 -11.37370647788282 L9.1487670736505 -11.467620213116954 L9.298918441276868 -11.569315531101267 L9.474244763604752 -11.677725829039144 L9.676351754763505 -11.791301306254761 L9.90517074431316 -11.90758263674885 L10.162366289890096 -12.024964906855462 L10.429340712639256 -12.133777819931595 A16 16 0 0 1 10.97714475786893 -11.640532842124077 L10.896834359457651 -11.36364688660921 L10.806979376847035 -11.095590496832646 L10.71525314499219 -10.855870292866205 L10.623425779325832 -10.642998594853582 L10.533935955386518 -10.457300766618273 L10.4484928267102 -10.297341888583942 L10.368360400079732 -10.161299685564758 L10.295802757039203 -10.049140471336043 L10.163328220255769 -9.86349325642557 L10.136520299114727 -9.818094298683178 L10.115996933076286 -9.776012578822266 L10.101593800057627 -9.73749037406648 L10.093159960588046 -9.70275509874295 L10.090516969830404 -9.672049770217512 L10.093506456865747 -9.645595111511238 L10.101941805266485 -9.623613325929576 L10.145187866487174 -9.574911194673373 L10.36687031540965 -9.33437195870607 L10.582919726555012 -9.08876071274257 L10.626834618118629 -9.04066079903209 L10.647814251173426 -9.029973938085764 L10.673811502005549 -9.02423556295236 L10.704624891290898 -9.023654494325198 L10.740051459420995 -9.02841130738897 L10.779868172869165 -9.038708871673125 L10.823864640578671 -9.054721071056289 L10.871817088880656 -9.076636652313596 L11.070294668675325 -9.188980061638977 L11.189423801918432 -9.249416396014466 L11.333096870928738 -9.314889566406316 L11.50111071642974 -9.383144372976739 L11.69514550630656 -9.45273325367946 L11.91644964430336 -9.521806427962206 L12.16444463796725 -9.587972589386656 L12.440424990042645 -9.649315814508427 L12.724188857852491 -9.700243800723829 A16 16 0 0 1 13.157470673042832 -9.103882543826911 L13.021347422348077 -8.849744681487092 L12.877723929460577 -8.606227868328752 L12.738161502917567 -8.390817081928843 L12.604082270848261 -8.201689124112699 L12.477939264822343 -8.038655219569058 L12.361105952714983 -7.899956452155558 L12.25443984741312 -7.783547565983873 L12.160148551087042 -7.6889248819321745 L11.99197067442636 -7.534877509017526 L11.956309596616004 -7.496044307637732 L11.927485433837722 -7.459149222055353 L11.905387827107665 -7.424463399637486 L11.889916417441986 -7.392240667243154 L11.880947185602798 -7.362755832493492 L11.878371112352216 -7.33625772224752 L11.882051857944274 -7.313002483872339 L11.914227146512571 -7.256373249323858 L12.081054382792916 -6.975000000000006 L12.241317146512573 -6.689836750676155 L12.274271857944276 -6.633657516127673 L12.292571112352217 -6.618842277752492 L12.3168071856028 -6.607824167506521 L12.346826417441987 -6.600849332756859 L12.382467827107666 -6.598136600362527 L12.423555433837722 -6.599930777944659 L12.469919596616004 -6.60644569236228 L12.521380674426362 -6.617912490982486 L12.738878551087042 -6.686535118067838 L12.867969847413121 -6.720882434016139 L13.022115952714984 -6.755053547844455 L13.200649264822342 -6.786884780430955 L13.404912270848262 -6.814610875887315 L13.635741502917568 -6.836162918071171 L13.892073929460578 -6.849322131671262 L14.174777422348077 -6.8519453185129215 L14.462928892545213 -6.842762580490389 A16 16 0 0 1 14.762751983255598 -6.1693488930892455 L14.576765119524552 -5.949066167997489 L14.385650152181332 -5.7407317847157096 L14.204351078684912 -5.559044900903643 L14.033879886037624 -5.4019264825771725 L13.876596752589732 -5.26868186567723 L13.733479433418855 -5.15730501057106 L13.604941470088052 -5.065617068164386 L13.493037502585715 -4.9926663796327775 L13.296506466264844 -4.876951458111631 L13.253550792006322 -4.846381210337108 L13.217685586715287 -4.816285251315475 L13.18885927772402 -4.786951748116232 L13.167026472704693 -4.758649846678553 L13.152122998254482 -4.731674134467161 L13.144093951480393 -4.706290667251283 L13.142859228019223 -4.682778341590591 L13.162557529430533 -4.620696973036819 L13.26723840231739 -4.310787071530518 L13.364710266810736 -3.9985348212068557 L13.385264519086707 -3.936731567948021 L13.4000836296206 -3.9184354491523776 L13.42149929259101 -3.9026191480823496 L13.449412382504407 -3.889555380957716 L13.483710933076821 -3.8794916625280482 L13.524273707514446 -3.8727040392384007 L13.570979228968156 -3.8694369356684004 L13.623699840248925 -3.869953797527997 L13.850712312894942 -3.8918565042817894 L13.984123863205776 -3.8986136592792544 L14.142006080322423 -3.899989274898541 L14.323256096599168 -3.8940057558938896 L14.528820045248203 -3.878657302687877 L14.759086026307042 -3.851746285111235 L15.01255292866979 -3.811323430107732 L15.289624063168343 -3.7551119328168516 L15.569569533800987 -3.686219800271634 A16 16 0 0 1 15.722830192256554 -2.965185091903099 Z" id="SvgjsPath1090">
        </path>
      </g>
    </g>
  </g>
</svg>
