<?xml version="1.0" encoding="UTF-8"?>
<svg viewBox="-23.63450904914646 -23.63450904914646 47.26901809829292 47.26901809829292" height="47.26901809829292mm" width="47.26901809829292mm" xmlns:svgjs="http://svgjs.com/svgjs" xmlns:xlink="http://www.w3.org/1999/xlink" version="1.1" xmlns="http://www.w3.org/2000/svg" id="SvgjsSvg1579">
  <desc>Created with svg.js [http://svgjs.com]</desc>
  <defs id="SvgjsDefs1580">
  </defs>
  <defs id="SvgjsDefs1580">
  </defs>
  <g id="SvgjsG1581">
    <g transform="matrix(1,0,0,1,9.549296379089355,0)" id="SvgjsG1582">
      <g fill="none" stroke-width="0.04" stroke="blue" id="SvgjsG1583">
        <circle cy="0" cx="0" r="7.957747154594767" id="SvgjsCircle1584">
        </circle>
        <circle cy="0" cx="0" r="9.54929658551372" id="SvgjsCircle1585">
        </circle>
        <line y2="0.4297183463481174" x2="0" y1="-0.4297183463481174" x1="0" id="SvgjsLine1586">
        </line>
        <line y2="0" x2="0.4297183463481174" y1="0" x1="-0.4297183463481174" id="SvgjsLine1587">
        </line>
      </g>
      <g fill="none" stroke-width="0.1" stroke="black" id="SvgjsG1588">
        <circle cy="0" cx="0" r="0.5" id="SvgjsCircle1589">
        </circle>
        <path d="M7.9118444741136615 -5.0400100490611255  L7.827733334003455 -4.826929366432781 7.7389045824683285 -4.62684704687228 7.648555454129967 -4.444355877199611 7.55588987674032 -4.275401419232256 7.464532309638035 -4.124200057025588 7.37283900944953 -3.9858436231291448 7.284307646897663 -3.863676650322622 7.1980444951222005 -3.7545277426516632 7.03908480518198 -3.577060638730658 6.903624006138984 -3.4490769838264734 6.799202016496184 -3.3656874396435312 6.748395953389483 -3.3307684455057 6.594150491197038 -3.2835741217682086 6.438654688755957 -3.223724002944567 6.2997579869838125 -3.1571859579115187 6.177720112902723 -3.085264073274309 6.072734219578663 -3.009240804448578 5.984901924706589 -2.930421438316231 5.914245671290206 -2.850096050964784 5.860727988827632 -2.76957730989269 5.824194189865083 -2.6901503111242357 5.804442034122961 -2.6130846998339914 5.801196527025644 -2.5396475111372467 5.816808358228364 -2.462895312299052 5.890532039323386 -2.2795222669903166 6.00706316822345 -1.9518131398710425 6.1054100965319495 -1.6181956078193187 6.1535503573386325 -1.4265100053618973 6.186033931140429 -1.3552397680039143 6.231824898023288 -1.2977354955371423 6.293102757469515 -1.2469981321676435 6.369345240209245 -1.2042143685921707 6.459969683356364 -1.170530243187543 6.56434587119894 -1.1470763434808622 6.681732551413035 -1.1349366643947407 6.811353279528664 -1.135141707741422 6.9523586167244895 -1.1486877434084355 7.103838490507581 -1.1764987670979454 7.264816254428874 -1.2194771433225113 7.4173435821325935 -1.2719593412906034 7.4789714203823054 -1.2735723362277782 7.612465728855901 -1.2674864833576727 7.797282722240463 -1.2435673914791951 8.030196359274496 -1.1934276499204437 8.164140833282012 -1.1558285371270602 8.307572155054533 -1.1090308092485868 8.463077464581465 -1.0509940725300801 8.625861219763575 -0.9823682315602864 8.800138185367645 -0.9001486635740907 8.980497783827541 -0.8056160911803079 9.169967190090702 -0.6959583245138035 9.363260214653465 -0.5730117188047434 9.538571211240424 -0.4513042155525153 A9.54929658551372 9.54929658551372 0 0 1 9.538571211240422 0.4513042155525171 L9.363260214653465 0.5730117188047448 9.1699671900907 0.6959583245138043 8.980497783827541 0.805616091180309 8.800138185367645 0.9001486635740918 8.625861219763573 0.9823682315602875 8.463077464581465 1.050994072530081 8.307572155054533 1.1090308092485877 8.164140833282012 1.1558285371270614 8.030196359274495 1.1934276499204448 7.797282722240462 1.2435673914791963 7.6124657288559 1.2674864833576736 7.478971420382305 1.273572336227779 7.4173435821325935 1.2719593412906045 7.264816254428873 1.2194771433225122 7.10383849050758 1.1764987670979465 6.952358616724489 1.1486877434084364 6.811353279528664 1.1351417077414232 6.681732551413035 1.1349366643947418 6.564345871198939 1.1470763434808628 6.459969683356364 1.1705302431875442 6.3693452402092445 1.2042143685921713 6.293102757469515 1.2469981321676444 6.231824898023288 1.297735495537143 6.186033931140428 1.3552397680039152 6.153550357338632 1.4265100053618984 6.105410096531949 1.6181956078193196 6.007063168223449 1.9518131398710432 5.890532039323385 2.2795222669903175 5.816808358228363 2.462895312299053 5.801196527025643 2.5396475111372476 5.804442034122961 2.6130846998339923 5.824194189865081 2.690150311124236 5.860727988827631 2.7695773098926906 5.914245671290206 2.850096050964785 5.984901924706588 2.9304214383162313 6.072734219578663 3.009240804448579 6.177720112902721 3.0852640732743093 6.299757986983812 3.1571859579115196 6.438654688755956 3.223724002944568 6.594150491197037 3.2835741217682095 6.7483959533894815 3.3307684455057007 6.799202016496183 3.365687439643532 6.903624006138983 3.4490769838264743 7.039084805181979 3.577060638730659 7.1980444951222 3.7545277426516637 7.284307646897661 3.8636766503226223 7.372839009449529 3.9858436231291456 7.4645323096380345 4.124200057025589 7.555889876740318 4.2754014192322565 7.6485554541299665 4.444355877199611 7.738904582468327 4.62684704687228 7.827733334003453 4.826929366432782 7.9118444741136615 5.0400100490611255 7.98213617414832 5.241518705893633 A9.54929658551372 9.54929658551372 0 0 1 7.451596249749937 5.971744265923713 L7.23822879870528 5.9671624860392 7.009585255284668 5.953013590249546 6.79184606765774 5.930361264285855 6.590367235490707 5.900827009790286 6.40104675907677 5.864906607364928 6.22901467747806 5.824744188353932 6.069095101420916 5.780293167064161 5.925549710293523 5.733846508561276 5.795086150519596 5.685534243336853 5.577183659295395 5.589194945445045 5.413604281343605 5.499913194180268 5.302027942571464 5.426370766791687 5.253118068736951 5.3888418920218255 5.160569130491583 5.25672958816766 5.055597439475056 5.127338995831392 4.949394556854614 5.015801769206787 4.84328100275772 4.921961938447531 4.738536152344182 4.845606902517703 4.636432808803336 4.786429949759216 4.538204842674285 4.74405376930191 4.44508909591329 4.718037088015818 4.358259966416279 4.707835672879118 4.278862462816567 4.712864840020277 4.208016629119696 4.732471518673105 4.139845271429603 4.771036986266399 3.9882290121220842 4.897817760887771 3.7125692105297188 5.109913139871043 3.425670954913521 5.306540113921865 3.2582432723193353 5.411558331394552 3.200499225004911 5.4644757604680585 3.1599595989162395 5.5257953553508585 3.1306413988118464 5.5997527704127625 3.1135118445316765 5.685484590469045 3.1094808306081285 5.782082524850418 3.1194288623109845 5.8885978320378785 3.1441578205098097 6.0039905663256175 3.184407836131778 6.127203842568202 3.240863927113937 6.257121932113169 3.3141236377234318 6.392593774211123 3.4047433672597474 6.532411676923061 3.50179043999384 6.66125589477448 3.5223685386853427 6.719369009079624 3.557832558626688 6.848210273003881 3.592195742236911 7.0313730847648115 3.6164842863673 7.268381149235255 3.622116523909173 7.407388678888406 3.6219319558159127 7.558261265313571 3.61478952253463 7.724089941201738 3.5998254160535144 7.900113043427616 3.575484504253028 8.091267530983416 3.5413128662985263 8.292011873766736 3.4955713991974213 8.506094100697041 3.4383730581654772 8.72791928182667 3.376796421361611 8.932259634356779 A9.54929658551372 9.54929658551372 0 0 1 2.5183647912962237 9.211180978834342 L2.34844 9.08206 2.17178 8.93622 2.00894 8.78991 1.8633 8.64759 1.73125 8.50725 1.61568 8.37364 1.51243 8.24368 1.4236 8.12173 1.34645 8.00596 1.22679 7.79994 1.14693 7.63156 1.09989 7.50648 1.08238 7.44737 1.08516 7.28609 1.07629 7.11971 1.05593 6.96705 1.02524 6.82876 0.98538 6.70542 0.93756 6.59753 0.883 6.50551 0.82296 6.42973 0.75871 6.37044 0.69152 6.32784 0.62268 6.30206 0.54486 6.29319 0.34768 6.30664 0 6.3162 -0.34768 6.30664 -0.54486 6.29319 -0.62268 6.30206 -0.69152 6.32784 -0.75871 6.37044 -0.82296 6.42973 -0.883 6.50551 -0.93756 6.59753 -0.98538 6.70542 -1.02524 6.82876 -1.05593 6.96705 -1.07629 7.11971 -1.08516 7.28609 -1.08238 7.44737 -1.09989 7.50648 -1.14693 7.63156 -1.22679 7.79994 -1.34645 8.00596 -1.4236 8.12173 -1.51243 8.24368 -1.61568 8.37364 -1.73125 8.50725 -1.8633 8.64759 -2.00894 8.78991 -2.17178 8.93622 -2.34844 9.08206 -2.5183647912962237 9.211180978834342 A9.54929658551372 9.54929658551372 0 0 1 -3.376796421361611 8.932259634356779 L-3.4383730581654772 8.72791928182667 -3.4955713991974213 8.506094100697041 -3.5413128662985263 8.292011873766736 -3.575484504253028 8.091267530983416 -3.5998254160535144 7.900113043427616 -3.61478952253463 7.724089941201738 -3.6219319558159127 7.558261265313571 -3.622116523909173 7.407388678888406 -3.6164842863673 7.268381149235255 -3.592195742236911 7.0313730847648115 -3.557832558626688 6.848210273003881 -3.5223685386853427 6.719369009079624 -3.50179043999384 6.66125589477448 -3.4047433672597474 6.532411676923061 -3.3141236377234318 6.392593774211123 -3.240863927113937 6.257121932113169 -3.184407836131778 6.127203842568202 -3.1441578205098097 6.0039905663256175 -3.1194288623109845 5.8885978320378785 -3.1094808306081285 5.782082524850418 -3.1135118445316765 5.685484590469045 -3.1306413988118464 5.5997527704127625 -3.1599595989162395 5.5257953553508585 -3.200499225004911 5.4644757604680585 -3.2582432723193353 5.411558331394552 -3.425670954913521 5.306540113921865 -3.7125692105297188 5.109913139871043 -3.9882290121220842 4.897817760887771 -4.139845271429603 4.771036986266399 -4.208016629119696 4.732471518673105 -4.278862462816567 4.712864840020277 -4.358259966416279 4.707835672879118 -4.44508909591329 4.718037088015818 -4.538204842674285 4.74405376930191 -4.636432808803336 4.786429949759216 -4.738536152344182 4.845606902517703 -4.84328100275772 4.921961938447531 -4.949394556854614 5.015801769206787 -5.055597439475056 5.127338995831392 -5.160569130491583 5.25672958816766 -5.253118068736951 5.3888418920218255 -5.302027942571464 5.426370766791687 -5.413604281343605 5.499913194180268 -5.577183659295395 5.589194945445045 -5.795086150519596 5.685534243336853 -5.925549710293523 5.733846508561276 -6.069095101420916 5.780293167064161 -6.22901467747806 5.824744188353932 -6.40104675907677 5.864906607364928 -6.590367235490707 5.900827009790286 -6.79184606765774 5.930361264285855 -7.009585255284668 5.953013590249546 -7.23822879870528 5.9671624860392 -7.451596249749937 5.971744265923713 A9.54929658551372 9.54929658551372 0 0 1 -7.98213617414832 5.241518705893633 L-7.9118444741136615 5.0400100490611255 -7.827733334003453 4.826929366432782 -7.738904582468327 4.62684704687228 -7.6485554541299665 4.444355877199611 -7.555889876740318 4.2754014192322565 -7.4645323096380345 4.124200057025589 -7.372839009449529 3.9858436231291456 -7.284307646897661 3.8636766503226223 -7.1980444951222 3.7545277426516637 -7.039084805181979 3.577060638730659 -6.903624006138983 3.4490769838264743 -6.799202016496183 3.365687439643532 -6.7483959533894815 3.3307684455057007 -6.594150491197037 3.2835741217682095 -6.438654688755956 3.223724002944568 -6.299757986983812 3.1571859579115196 -6.177720112902721 3.0852640732743093 -6.072734219578663 3.009240804448579 -5.984901924706588 2.9304214383162313 -5.914245671290206 2.850096050964785 -5.860727988827631 2.7695773098926906 -5.824194189865081 2.690150311124236 -5.804442034122961 2.6130846998339923 -5.801196527025643 2.5396475111372476 -5.816808358228363 2.462895312299053 -5.890532039323385 2.2795222669903175 -6.007063168223449 1.9518131398710432 -6.105410096531949 1.6181956078193196 -6.153550357338632 1.4265100053618984 -6.186033931140428 1.3552397680039152 -6.231824898023288 1.297735495537143 -6.293102757469515 1.2469981321676444 -6.3693452402092445 1.2042143685921713 -6.459969683356364 1.1705302431875442 -6.564345871198939 1.1470763434808628 -6.681732551413035 1.1349366643947418 -6.811353279528664 1.1351417077414232 -6.952358616724489 1.1486877434084364 -7.10383849050758 1.1764987670979465 -7.264816254428873 1.2194771433225122 -7.4173435821325935 1.2719593412906045 -7.478971420382305 1.273572336227779 -7.6124657288559 1.2674864833576736 -7.797282722240462 1.2435673914791963 -8.030196359274495 1.1934276499204448 -8.164140833282012 1.1558285371270614 -8.307572155054533 1.1090308092485877 -8.463077464581465 1.050994072530081 -8.625861219763573 0.9823682315602875 -8.800138185367645 0.9001486635740918 -8.980497783827541 0.805616091180309 -9.1699671900907 0.6959583245138043 -9.363260214653465 0.5730117188047448 -9.538571211240422 0.4513042155525171 A9.54929658551372 9.54929658551372 0 0 1 -9.538571211240424 -0.4513042155525153 L-9.363260214653465 -0.5730117188047434 -9.169967190090702 -0.6959583245138035 -8.980497783827541 -0.8056160911803079 -8.800138185367645 -0.9001486635740907 -8.625861219763575 -0.9823682315602864 -8.463077464581465 -1.0509940725300801 -8.307572155054533 -1.1090308092485868 -8.164140833282012 -1.1558285371270602 -8.030196359274496 -1.1934276499204437 -7.797282722240463 -1.2435673914791951 -7.612465728855901 -1.2674864833576727 -7.4789714203823054 -1.2735723362277782 -7.4173435821325935 -1.2719593412906034 -7.264816254428874 -1.2194771433225113 -7.103838490507581 -1.1764987670979454 -6.9523586167244895 -1.1486877434084355 -6.811353279528664 -1.135141707741422 -6.681732551413035 -1.1349366643947407 -6.56434587119894 -1.1470763434808622 -6.459969683356364 -1.170530243187543 -6.369345240209245 -1.2042143685921707 -6.293102757469515 -1.2469981321676435 -6.231824898023288 -1.2977354955371423 -6.186033931140429 -1.3552397680039143 -6.1535503573386325 -1.4265100053618973 -6.1054100965319495 -1.6181956078193187 -6.00706316822345 -1.9518131398710425 -5.890532039323386 -2.2795222669903166 -5.816808358228364 -2.462895312299052 -5.801196527025644 -2.5396475111372467 -5.804442034122961 -2.6130846998339914 -5.824194189865083 -2.6901503111242357 -5.860727988827632 -2.76957730989269 -5.914245671290206 -2.850096050964784 -5.984901924706589 -2.930421438316231 -6.072734219578663 -3.009240804448578 -6.177720112902723 -3.085264073274309 -6.2997579869838125 -3.1571859579115187 -6.438654688755957 -3.223724002944567 -6.594150491197038 -3.2835741217682086 -6.748395953389483 -3.3307684455057 -6.799202016496184 -3.3656874396435312 -6.903624006138984 -3.4490769838264734 -7.03908480518198 -3.577060638730658 -7.1980444951222005 -3.7545277426516632 -7.284307646897663 -3.863676650322622 -7.37283900944953 -3.9858436231291448 -7.464532309638035 -4.124200057025588 -7.55588987674032 -4.275401419232256 -7.648555454129967 -4.444355877199611 -7.7389045824683285 -4.62684704687228 -7.827733334003455 -4.826929366432781 -7.9118444741136615 -5.0400100490611255 -7.982136174148323 -5.241518705893633 A9.54929658551372 9.54929658551372 0 0 1 -7.451596249749937 -5.9717442659237125 L-7.238228798705281 -5.967162486039198 -7.0095852552846685 -5.953013590249545 -6.79184606765774 -5.930361264285852 -6.5903672354907075 -5.9008270097902855 -6.40104675907677 -5.864906607364927 -6.229014677478061 -5.8247441883539315 -6.069095101420917 -5.78029316706416 -5.925549710293524 -5.7338465085612755 -5.795086150519596 -5.6855342433368525 -5.577183659295395 -5.589194945445044 -5.413604281343606 -5.499913194180267 -5.302027942571465 -5.4263707667916865 -5.253118068736952 -5.388841892021825 -5.1605691304915835 -5.2567295881676595 -5.055597439475057 -5.127338995831391 -4.949394556854615 -5.015801769206785 -4.84328100275772 -4.92196193844753 -4.738536152344182 -4.845606902517702 -4.636432808803336 -4.786429949759215 -4.538204842674286 -4.74405376930191 -4.445089095913291 -4.718037088015817 -4.35825996641628 -4.707835672879117 -4.2788624628165675 -4.712864840020276 -4.2080166291196965 -4.732471518673104 -4.1398452714296035 -4.771036986266398 -3.988229012122085 -4.897817760887771 -3.7125692105297197 -5.1099131398710425 -3.425670954913522 -5.306540113921865 -3.258243272319336 -5.411558331394551 -3.200499225004912 -5.464475760468058 -3.159959598916241 -5.525795355350858 -3.1306413988118473 -5.599752770412762 -3.1135118445316774 -5.685484590469044 -3.1094808306081294 -5.782082524850418 -3.1194288623109854 -5.888597832037878 -3.14415782050981 -6.003990566325617 -3.1844078361317787 -6.127203842568201 -3.240863927113938 -6.257121932113169 -3.3141236377234327 -6.392593774211123 -3.4047433672597482 -6.5324116769230605 -3.501790439993841 -6.661255894774479 -3.5223685386853436 -6.719369009079623 -3.5578325586266892 -6.84821027300388 -3.5921957422369117 -7.031373084764811 -3.6164842863673012 -7.268381149235254 -3.622116523909174 -7.407388678888405 -3.6219319558159135 -7.55826126531357 -3.6147895225346307 -7.724089941201737 -3.5998254160535157 -7.9001130434276154 -3.575484504253029 -8.091267530983416 -3.5413128662985276 -8.292011873766734 -3.4955713991974227 -8.50609410069704 -3.438373058165478 -8.72791928182667 -3.3767964213616124 -8.932259634356777 A9.54929658551372 9.54929658551372 0 0 1 -2.518364791296225 -9.211180978834342 L-2.3484400000000014 -9.08206 -2.171780000000001 -8.93622 -2.008940000000001 -8.78991 -1.863300000000001 -8.64759 -1.731250000000001 -8.50725 -1.6156800000000011 -8.37364 -1.512430000000001 -8.24368 -1.4236000000000009 -8.12173 -1.3464500000000008 -8.00596 -1.226790000000001 -7.79994 -1.146930000000001 -7.63156 -1.099890000000001 -7.50648 -1.0823800000000008 -7.44737 -1.0851600000000008 -7.28609 -1.0762900000000009 -7.11971 -1.055930000000001 -6.96705 -1.0252400000000008 -6.82876 -0.9853800000000008 -6.70542 -0.9375600000000007 -6.59753 -0.8830000000000008 -6.50551 -0.8229600000000008 -6.42973 -0.7587100000000008 -6.37044 -0.6915200000000008 -6.32784 -0.6226800000000008 -6.30206 -0.5448600000000008 -6.29319 -0.34768000000000077 -6.30664 -7.735114112774512e-16 -6.3162 0.3476799999999992 -6.30664 0.5448599999999992 -6.29319 0.6226799999999992 -6.30206 0.6915199999999992 -6.32784 0.7587099999999992 -6.37044 0.8229599999999992 -6.42973 0.8829999999999992 -6.50551 0.9375599999999992 -6.59753 0.9853799999999993 -6.70542 1.025239999999999 -6.82876 1.0559299999999991 -6.96705 1.076289999999999 -7.11971 1.085159999999999 -7.28609 1.082379999999999 -7.44737 1.0998899999999991 -7.50648 1.1469299999999991 -7.63156 1.2267899999999992 -7.79994 1.346449999999999 -8.00596 1.423599999999999 -8.12173 1.5124299999999988 -8.24368 1.615679999999999 -8.37364 1.7312499999999988 -8.50725 1.8632999999999988 -8.64759 2.008939999999999 -8.78991 2.171779999999999 -8.93622 2.3484399999999988 -9.08206 2.5183647912962224 -9.211180978834342 A9.54929658551372 9.54929658551372 0 0 1 3.376796421361609 -8.932259634356779 L3.438373058165476 -8.727919281826672 3.49557139919742 -8.506094100697041 3.541312866298525 -8.292011873766738 3.5754845042530268 -8.091267530983417 3.5998254160535135 -7.900113043427618 3.6147895225346285 -7.724089941201739 3.6219319558159118 -7.558261265313572 3.6221165239091717 -7.407388678888407 3.616484286367299 -7.268381149235255 3.592195742236911 -7.031373084764812 3.557832558626687 -6.848210273003881 3.5223685386853414 -6.7193690090796245 3.5017904399938393 -6.661255894774481 3.404743367259746 -6.532411676923061 3.314123637723431 -6.392593774211123 3.240863927113936 -6.2571219321131695 3.184407836131777 -6.1272038425682025 3.144157820509809 -6.003990566325618 3.1194288623109836 -5.8885978320378785 3.109480830608127 -5.782082524850419 3.113511844531676 -5.685484590469046 3.1306413988118456 -5.599752770412763 3.159959598916239 -5.525795355350859 3.2004992250049105 -5.4644757604680585 3.2582432723193344 -5.411558331394553 3.4256709549135205 -5.306540113921866 3.7125692105297183 -5.109913139871044 3.988229012122084 -4.897817760887772 4.139845271429603 -4.7710369862664 4.208016629119695 -4.732471518673105 4.278862462816567 -4.712864840020278 4.358259966416279 -4.707835672879119 4.44508909591329 -4.7180370880158184 4.5382048426742845 -4.744053769301911 4.6364328088033355 -4.786429949759216 4.738536152344181 -4.845606902517704 4.8432810027577196 -4.921961938447532 4.949394556854613 -5.015801769206788 5.055597439475055 -5.127338995831392 5.160569130491583 -5.256729588167662 5.25311806873695 -5.388841892021826 5.302027942571463 -5.426370766791688 5.413604281343604 -5.4999131941802695 5.577183659295395 -5.589194945445046 5.7950861505195945 -5.685534243336855 5.925549710293522 -5.733846508561277 6.069095101420915 -5.780293167064162 6.229014677478059 -5.824744188353933 6.4010467590767695 -5.864906607364929 6.590367235490707 -5.900827009790287 6.7918460676577395 -5.930361264285856 7.009585255284668 -5.953013590249547 7.238228798705279 -5.967162486039201 7.451596249749935 -5.971744265923714 A9.54929658551372 9.54929658551372 0 0 1 7.982136174148323 -5.241518705893633 Z" id="SvgjsPath1590">
        </path>
      </g>
    </g>
    <g transform="matrix(1,0,0,1,0,0)" id="SvgjsG1591">
      <g fill="none" stroke-width="0.04" stroke="blue" id="SvgjsG1592">
        <circle cy="0" cx="0" r="15.915494309189533" id="SvgjsCircle1593">
        </circle>
        <circle cy="0" cx="0" r="17.507043740108486" id="SvgjsCircle1594">
        </circle>
        <circle cy="0" cx="0" r="19.09859317102744" id="SvgjsCircle1595">
        </circle>
        <line y2="0.4297183463481174" x2="0" y1="-0.4297183463481174" x1="0" id="SvgjsLine1596">
        </line>
        <line y2="0" x2="0.4297183463481174" y1="0" x1="-0.4297183463481174" id="SvgjsLine1597">
        </line>
      </g>
      <g fill="none" stroke-width="0.1" stroke="black" id="SvgjsG1598">
        <path d="M19.13818 -0.44567999999999985  L19.11643 -0.4962599999999999 19.078949999999995 -0.5462900000000004 19.02578 -0.59564 18.916709999999995 -0.6681400000000002 18.58484 -0.83432 18.29554 -0.96427 18.14502 -1.0265600000000004 17.76772 -1.1665999999999999 17.52576 -1.24326 17.30906 -1.30324 16.98153 -1.37481 16.760179999999995 -1.4064199999999998 16.26363 -1.4411800000000001 16.128389999999996 -1.4618299999999995 16.01591 -1.49432 15.927009999999997 -1.5377100000000001 15.895279999999996 -1.5609699999999997 15.867819999999998 -1.5874499999999996 15.848109999999998 -1.6146999999999996 15.834049999999998 -1.64482 15.7535 -2.26501 15.75349961840739 -2.26501265403489 15.656059063004552 -2.882774158794442 15.661063749601507 -2.9156352469089017 15.672298143937521 -2.947334379135241 15.691185542887812 -2.9804781290874183 15.71507715566847 -3.0117353096822703 15.788151705381452 -3.0784137341106073 15.886921984281827 -3.141276938816865 16.010866036734676 -3.19919197970924 16.477509249107147 -3.3724382565716917 16.680987452694964 -3.465129330924497 16.975086587249773 -3.62607610738836 17.166110395872686 -3.744677941013294 17.37667169796099 -3.886400681823935 17.699234569645665 -4.12706577154518 17.826108331068465 -4.229238973327399 18.067078502573594 -4.435430313942828 18.33868711943113 -4.68837743993705 18.42291340769226 -4.788669250498797 18.460026147419217 -4.85099994879393 18.481892864251513 -4.909562718494282 18.488511803702586 -4.964221556211003 A21.48591731740587 21.48591731740587 0 0 1 18.257536814587628 -5.772217911650395 L18.23738667183641 -5.819475213172019 18.20226766693526 -5.8618786846661415 18.15221079046541 -5.899322781905657 18.087291047378205 -5.931694040106274 17.96221353837506 -5.97052871071863 17.596968288925712 -6.0364786694349215 17.282775825897495 -6.079659552661901 17.12080382254339 -6.097019985532576 16.71933329633857 -6.125089687861279 16.465576758635336 -6.130476409765214 16.240756312493726 -6.126975353255073 15.906329979752632 -6.1033704010343905 15.685040643921301 -6.071338472473493 15.198811384197217 -5.964796147136722 15.063231777146814 -5.946508166054625 14.946154516702883 -5.945992814773838 14.8486312157072 -5.9625791905957675 14.81163340438228 -5.975957623133461 14.777825449221668 -5.993628621063908 14.751236630537797 -6.0142218558995575 14.729260374716713 -6.0391606245156355 14.47724550126458 -6.611535014368036 14.477244387401118 -6.611537453388802 14.20970733089288 -7.17682309976142 14.205251254142723 -7.209763066063721 14.207099898999163 -7.243343255345422 14.21588455216448 -7.280465645742121 14.230002221347199 -7.317187736053641 14.281331255346494 -7.40175269551499 14.358390032560209 -7.489896301944078 14.460996927459842 -7.5803844515497385 14.859928694372407 -7.878081622258526 15.029050507624822 -8.024344491375118 15.265892613927717 -8.261629093661076 15.415764618261246 -8.429244345702918 15.577868797998939 -8.624548293721315 15.819562415859659 -8.946341218884989 15.912511381102098 -9.080120157288459 16.085629753921804 -9.345848442369775 16.274972872817713 -9.665070422544648 16.327531936378083 -9.785028997634795 16.34558076237728 -9.855290731744125 16.350062684690496 -9.917641863829907 16.341014336482665 -9.971951405300166 A21.48591731740587 21.48591731740587 0 0 1 15.891756578209675 -10.682145056800607 L15.859108737435442 -10.72181115432457 15.813465860549462 -10.752602820235513 15.754887418041644 -10.77442751664482 15.683477343359579 -10.787197506225924 15.552525361268147 -10.7892206933963 15.183494860282693 -10.749597737393199 14.869863939006278 -10.702511245494708 14.70956194072522 -10.673535672211345 14.316445642711534 -10.587361036523026 14.071450412841553 -10.521038080158307 13.856723136046051 -10.454339601914894 13.542493703132559 -10.337472030318391 13.339192577400603 -10.244393209547386 12.902675460858525 -10.005179984441021 12.777740100197976 -9.94943560574129 12.665550482665996 -9.915956653875572 12.567304638527903 -9.904395675993314 12.52803635851715 -9.906808700029098 12.490619367659384 -9.914239096731139 12.459305798251616 -9.92650722498874 12.431193672158246 -9.944244371504189 12.02813067151091 -10.42243278218471 12.028128915615186 -10.4224348085964 11.612169619215711 -10.88944851539616 11.598613783955432 -10.919798759718013 11.590926913120338 -10.952539538828544 11.588897140145574 -10.990633134375182 11.59209713613418 -11.02984512904101 11.617522281350688 -11.125445673446993 11.666626713034079 -11.23172881081624 11.739583849982427 -11.34745925740788 12.038485092218401 -11.745489667665424 12.159549271631855 -11.933474983748752 12.319946810784417 -12.227874024565464 12.416525272360591 -12.430923504150071 12.517039613175998 -12.663986295025074 12.658283397700984 -13.040837306610632 12.7097773943879 -13.195384007659886 12.801018947530935 -13.499121511896764 12.892757115039165 -13.858756879904737 12.909390931149895 -13.988663889190592 12.906913634879384 -14.061164471279206 12.89364766398271 -14.122252647845286 12.869665071475179 -14.171813057010443 A21.48591731740587 21.48591731740587 0 0 1 12.238520735780677 -14.726668338611638 L12.196020130878768 -14.75552972081991 12.143551096444622 -14.77221502350066 12.08119676493141 -14.776652211973143 12.009081578213157 -14.76878638432493 11.882864073821057 -14.73383418146114 11.539944977780447 -14.59184832698722 11.25228411026274 -14.458309127502725 11.106638831602769 -14.385344976688373 10.753724706292644 -14.19190735946621 10.537338840737243 -14.059247816319697 10.350100660221534 -13.934755430379168 10.081525126995901 -13.734093155019385 9.912682459491773 -13.587508134536078 9.561241506846686 -13.23500364250241 9.45707191247751 -13.146318944222708 9.358858873452577 -13.082588657345228 9.26784978017361 -13.043816927431019 9.229492313986045 -13.035069054108323 9.191497589503006 -13.031656883031427 9.157996108535793 -13.034606013920914 9.126025589436969 -13.043704580211925 8.604568228798911 -13.388967030583217 8.604565973123158 -13.388968480218 8.07388298522154 -13.719875574357447 8.052325604604269 -13.74517730040375 8.035725962637125 -13.77442620613649 8.023046203657168 -13.810404890273212 8.015069281807772 -13.848930066688235 8.012530744185208 -13.947821208489406 8.02970268131859 -14.063633449099308 8.067099506972896 -14.195230400169546 8.241755023520458 -14.661347993314775 8.304953669275273 -14.875826304047491 8.375912186576256 -15.2034893239665 8.4113728928124 -15.425523169839675 8.442154320594462 -15.677463442332382 8.471505540370625 -16.078842312600425 8.477372831137037 -16.241636321701073 8.479345716602161 -16.55877603889673 8.466046851979083 -16.929689276055687 8.445407847783999 -17.059020426231644 8.422605125054563 -17.127886290316283 8.392665991014287 -17.182762510602657 8.355692081222045 -17.223558697859254 A21.48591731740587 21.48591731740587 0 0 1 7.593792728624102 -17.578124534497295 L7.544882505842842 -17.593843023848613 7.489838042985021 -17.595070219307292 7.428759399570122 -17.581760425221887 7.361781444358067 -17.553896022920533 7.250523809226747 -17.484800049629847 6.961497383873798 -17.2519541461922 6.723111142816032 -17.04278079087573 6.603921898068356 -16.93173918409486 6.319800949033298 -16.646709750668386 6.149554743723483 -16.458460907969126 6.004974583324611 -16.286260247055658 5.803811342208581 -16.01805973209774 5.683105761707456 -15.829843958487002 5.445212628842847 -15.392606017045663 5.3702480017804 -15.278165706012405 5.293968177588881 -15.189347132947365 5.21756885065458 -15.126505705974498 5.183229692080084 -15.107305635964321 5.147735340586064 -15.093327330916177 5.114760038806387 -15.086718543392042 5.081521188023501 -15.086441417728972 4.483914841527281 -15.270806797416808 4.48391226881293 -15.2708075528339 3.881498368995707 -15.438799909526116 3.8536858937923766 -15.457003321927754 3.829518284963487 -15.480390781890174 3.8072157786414644 -15.5113397756017 3.7887081817217254 -15.54605705309082 3.7584116184810066 -15.640227220106716 3.7422598928432738 -15.756186144984976 3.741066738796513 -15.892988398195302 3.77732697842133 -16.389431098939657 3.7775401120952665 -16.613026647137822 3.7533109704794967 -16.947408336972302 3.7247811058492992 -17.170438687427527 3.683335892383311 -17.42084573900707 3.5984166861428166 -17.814235138980536 3.5581819379849478 -17.9720878536885 3.470726324324982 -18.276937010058266 3.3534678224909626 -18.62907893179954 3.2972280473650635 -18.747356582240315 3.25594723915923 -18.807008625573907 3.211760432560409 -18.85122714457442 3.1647906117625153 -18.879954045455186 A21.48591731740587 21.48591731740587 0 0 1 2.333860796618698 -19.00550562172989 L2.282503371327527 -19.006807799698464 2.229342855064746 -18.99247746785742 2.1744881281889596 -18.962498971574533 2.118073560081146 -18.916893402778513 2.0307892261343103 -18.819251403887368 1.819070673544782 -18.5144092417946 1.649271694459893 -18.24654771189206 1.566194487388235 -18.106424579736185 1.3738845041867191 -17.7528947196663 1.2635702941835223 -17.524307379090818 1.1733611786456835 -17.318349116634852 1.0559072790706159 -17.004338372750812 0.9931176338409679 -16.789739968628282 0.8880450075765868 -16.303190995440687 0.8483585360736664 -16.17226634505105 0.8001916644179762 -16.065555038363787 0.7445915229322669 -15.983734953013247 0.7170526263757052 -15.9556381618006 0.686934189135714 -15.932226161924028 0.6571565293820921 -15.916594860647502 0.6253421609265158 -15.906964494103446 0.0000013406634669952294 -15.915496616508648 -0.000001340663465046143 -15.915496616508648 -0.6253421609265138 -15.906964494103446 -0.6571565293820901 -15.916594860647502 -0.686934189135712 -15.932226161924028 -0.7170526263757032 -15.9556381618006 -0.7445915229322649 -15.983734953013247 -0.8001916644179742 -16.065555038363787 -0.8483585360736644 -16.17226634505105 -0.8880450075765848 -16.303190995440687 -0.9931176338409659 -16.789739968628282 -1.0559072790706137 -17.004338372750812 -1.1733611786456812 -17.318349116634852 -1.26357029418352 -17.524307379090818 -1.373884504186717 -17.7528947196663 -1.5661944873882327 -18.106424579736185 -1.6492716944598909 -18.24654771189206 -1.8190706735447797 -18.5144092417946 -2.0307892261343077 -18.819251403887368 -2.118073560081143 -18.916893402778513 -2.174488128188957 -18.962498971574533 -2.2293428550647434 -18.99247746785742 -2.2825033713275245 -19.006807799698464 A21.48591731740587 21.48591731740587 0 0 1 -3.115146657124149 -18.893173673584023 L-3.164790611762509 -18.87995404545519 -3.211760432560403 -18.85122714457442 -3.255947239159224 -18.80700862557391 -3.297228047365057 -18.747356582240315 -3.3534678224909564 -18.629078931799544 -3.4707263243249753 -18.276937010058266 -3.558181937984941 -17.972087853688496 -3.5984166861428104 -17.81423513898054 -3.6833358923833055 -17.420845739007074 -3.724781105849293 -17.17043868742753 -3.753310970479491 -16.947408336972302 -3.777540112095261 -16.613026647137822 -3.777326978421325 -16.389431098939657 -3.7410667387965075 -15.892988398195302 -3.7422598928432684 -15.756186144984978 -3.7584116184810012 -15.640227220106718 -3.78870818172172 -15.546057053090822 -3.807215778641459 -15.511339775601702 -3.8295182849634815 -15.480390781890176 -3.853685893792371 -15.457003321927756 -3.8814983689957017 -15.438799909526118 -4.483912268812925 -15.270807552833901 -4.483914841527276 -15.27080679741681 -5.081521188023496 -15.086441417728974 -5.114760038806382 -15.086718543392044 -5.147735340586059 -15.093327330916178 -5.183229692080078 -15.107305635964323 -5.217568850654574 -15.1265057059745 -5.293968177588876 -15.189347132947367 -5.370248001780395 -15.278165706012407 -5.4452126288428415 -15.392606017045667 -5.68310576170745 -15.829843958487006 -5.803811342208576 -16.01805973209774 -6.004974583324605 -16.286260247055658 -6.149554743723477 -16.45846090796913 -6.319800949033293 -16.64670975066839 -6.60392189806835 -16.931739184094862 -6.723111142816027 -17.042780790875735 -6.961497383873793 -17.2519541461922 -7.250523809226741 -17.48480004962985 -7.361781444358062 -17.553896022920533 -7.428759399570116 -17.58176042522189 -7.4898380429850135 -17.595070219307292 -7.5448825058428355 -17.593843023848617 A21.48591731740587 21.48591731740587 0 0 1 -8.31178345519733 -17.250229156434646 L-8.355692081222045 -17.223558697859254 -8.392665991014287 -17.182762510602657 -8.422605125054563 -17.127886290316283 -8.445407847783999 -17.059020426231644 -8.466046851979083 -16.929689276055687 -8.479345716602161 -16.55877603889673 -8.477372831137037 -16.241636321701073 -8.471505540370625 -16.078842312600425 -8.442154320594462 -15.677463442332382 -8.4113728928124 -15.425523169839675 -8.375912186576256 -15.2034893239665 -8.304953669275273 -14.875826304047491 -8.241755023520458 -14.661347993314775 -8.067099506972896 -14.195230400169546 -8.02970268131859 -14.063633449099308 -8.012530744185208 -13.947821208489406 -8.015069281807772 -13.848930066688235 -8.023046203657168 -13.810404890273212 -8.035725962637125 -13.77442620613649 -8.052325604604269 -13.74517730040375 -8.07388298522154 -13.719875574357447 -8.604565973123158 -13.388968480218 -8.604568228798911 -13.388967030583217 -9.126025589436969 -13.043704580211925 -9.157996108535793 -13.034606013920914 -9.191497589503006 -13.031656883031427 -9.229492313986045 -13.035069054108323 -9.26784978017361 -13.043816927431019 -9.358858873452577 -13.082588657345228 -9.45707191247751 -13.146318944222708 -9.561241506846686 -13.23500364250241 -9.912682459491773 -13.587508134536078 -10.081525126995901 -13.734093155019385 -10.350100660221534 -13.934755430379168 -10.537338840737243 -14.059247816319697 -10.753724706292644 -14.19190735946621 -11.106638831602769 -14.385344976688373 -11.25228411026274 -14.458309127502725 -11.539944977780447 -14.59184832698722 -11.882864073821057 -14.73383418146114 -12.009081578213157 -14.76878638432493 -12.08119676493141 -14.776652211973143 -12.143551096444622 -14.77221502350066 -12.196020130878768 -14.75552972081991 A21.48591731740587 21.48591731740587 0 0 1 -12.835048989809975 -14.20977366409395 L-12.869665071475177 -14.171813057010445 -12.893647663982708 -14.122252647845288 -12.90691363487938 -14.061164471279207 -12.909390931149893 -13.988663889190594 -12.892757115039162 -13.858756879904739 -12.801018947530933 -13.499121511896764 -12.709777394387899 -13.195384007659888 -12.65828339770098 -13.040837306610634 -12.517039613175996 -12.663986295025076 -12.41652527236059 -12.430923504150073 -12.319946810784415 -12.227874024565466 -12.159549271631853 -11.933474983748754 -12.0384850922184 -11.745489667665426 -11.739583849982425 -11.34745925740788 -11.666626713034077 -11.231728810816241 -11.617522281350686 -11.125445673446995 -11.592097136134178 -11.029845129041012 -11.588897140145573 -10.990633134375184 -11.590926913120336 -10.952539538828546 -11.59861378395543 -10.919798759718015 -11.61216961921571 -10.889448515396161 -12.028128915615184 -10.422434808596401 -12.028130671510908 -10.422432782184712 -12.431193672158244 -9.94424437150419 -12.459305798251615 -9.926507224988741 -12.490619367659383 -9.91423909673114 -12.528036358517149 -9.9068087000291 -12.5673046385279 -9.904395675993316 -12.665550482665994 -9.915956653875574 -12.777740100197974 -9.949435605741291 -12.902675460858523 -10.005179984441025 -13.3391925774006 -10.244393209547388 -13.542493703132557 -10.337472030318393 -13.85672313604605 -10.454339601914896 -14.071450412841552 -10.52103808015831 -14.316445642711532 -10.587361036523028 -14.70956194072522 -10.673535672211347 -14.869863939006276 -10.70251124549471 -15.183494860282691 -10.749597737393202 -15.552525361268144 -10.789220693396302 -15.683477343359577 -10.787197506225926 -15.75488741804164 -10.774427516644822 -15.81346586054946 -10.752602820235515 -15.85910873743544 -10.721811154324572 A21.48591731740587 21.48591731740587 0 0 1 -16.31849518824372 -10.018126818266303 L-16.34101433648266 -9.971951405300171 -16.350062684690485 -9.917641863829912 -16.345580762377278 -9.855290731744132 -16.32753193637808 -9.7850289976348 -16.274972872817706 -9.665070422544655 -16.085629753921797 -9.345848442369782 -15.912511381102094 -9.080120157288466 -15.819562415859652 -8.946341218884994 -15.57786879799893 -8.62454829372132 -15.415764618261242 -8.429244345702923 -15.265892613927713 -8.261629093661082 -15.029050507624815 -8.024344491375123 -14.859928694372401 -7.878081622258532 -14.460996927459838 -7.580384451549744 -14.358390032560205 -7.489896301944083 -14.28133125534649 -7.401752695514995 -14.230002221347194 -7.317187736053646 -14.215884552164477 -7.280465645742126 -14.207099898999159 -7.243343255345427 -14.20525125414272 -7.209763066063727 -14.209707330892876 -7.176823099761425 -14.477244387401115 -6.611537453388808 -14.477245501264576 -6.611535014368041 -14.72926037471671 -6.039160624515642 -14.751236630537793 -6.014221855899563 -14.777825449221664 -5.993628621063913 -14.811633404382276 -5.975957623133466 -14.848631215707199 -5.962579190595773 -14.94615451670288 -5.9459928147738434 -15.063231777146811 -5.94650816605463 -15.198811384197214 -5.9647961471367275 -15.6850406439213 -6.0713384724734984 -15.906329979752629 -6.103370401034397 -16.240756312493723 -6.126975353255079 -16.465576758635333 -6.130476409765219 -16.71933329633856 -6.125089687861285 -17.120803822543387 -6.097019985532583 -17.282775825897495 -6.079659552661908 -17.596968288925712 -6.036478669434929 -17.96221353837506 -5.970528710718636 -18.0872910473782 -5.931694040106281 -18.152210790465407 -5.899322781905664 -18.202267666935256 -5.861878684666149 -18.237386671836408 -5.819475213172027 A21.48591731740587 21.48591731740587 0 0 1 -18.479913956353702 -5.014870917717001 L-18.488511803702586 -4.964221556211004 -18.481892864251513 -4.909562718494282 -18.460026147419217 -4.850999948793931 -18.42291340769226 -4.788669250498798 -18.33868711943113 -4.688377439937051 -18.067078502573594 -4.435430313942829 -17.826108331068465 -4.2292389733274 -17.699234569645665 -4.127065771545181 -17.37667169796099 -3.8864006818239356 -17.166110395872686 -3.744677941013295 -16.975086587249773 -3.62607610738836 -16.680987452694964 -3.4651293309244973 -16.477509249107147 -3.372438256571692 -16.010866036734676 -3.1991919797092403 -15.886921984281827 -3.1412769388168655 -15.788151705381452 -3.0784137341106077 -15.71507715566847 -3.0117353096822708 -15.691185542887812 -2.9804781290874187 -15.672298143937521 -2.9473343791352415 -15.661063749601507 -2.915635246908902 -15.656059063004552 -2.882774158794443 -15.75349961840739 -2.2650126540348903 -15.7535 -2.2650100000000006 -15.834049999999998 -1.6448200000000004 -15.848109999999998 -1.6147 -15.867819999999998 -1.58745 -15.895279999999996 -1.5609700000000002 -15.927009999999997 -1.5377100000000006 -16.01591 -1.4943200000000005 -16.128389999999996 -1.46183 -16.26363 -1.4411800000000006 -16.760179999999995 -1.4064200000000002 -16.98153 -1.3748100000000005 -17.30906 -1.3032400000000004 -17.52576 -1.2432600000000005 -17.76772 -1.1666000000000003 -18.14502 -1.0265600000000008 -18.29554 -0.9642700000000008 -18.58484 -0.8343200000000004 -18.916709999999995 -0.6681400000000006 -19.02578 -0.5956400000000004 -19.078949999999995 -0.5462900000000008 -19.11643 -0.49626000000000037 -19.13818 -0.4456800000000003 A21.48591731740587 21.48591731740587 0 0 1 -19.1442 0.39465999999999557 L-19.13818 0.44567999999999586 -19.11643 0.4962599999999959 -19.07895 0.546289999999996 -19.025780000000005 0.5956399999999955 -18.916709999999995 0.6681399999999953 -18.584839999999996 0.8343199999999957 -18.29554 0.9642699999999957 -18.14502 1.0265599999999961 -17.76772 1.1665999999999959 -17.52576 1.2432599999999958 -17.309060000000002 1.3032399999999957 -16.98153 1.3748099999999965 -16.76018 1.4064199999999958 -16.26363 1.4411799999999966 -16.128389999999996 1.461829999999996 -16.01591 1.4943199999999965 -15.92701 1.5377099999999966 -15.895279999999998 1.5609699999999962 -15.86782 1.587449999999996 -15.84811 1.614699999999996 -15.83405 1.6448199999999962 -15.753500000000003 2.2650099999999966 -15.753499618407393 2.2650126540348863 -15.656059063004554 2.882774158794439 -15.661063749601508 2.915635246908898 -15.672298143937523 2.9473343791352375 -15.691185542887814 2.9804781290874147 -15.715077155668471 3.0117353096822668 -15.788151705381454 3.0784137341106037 -15.886921984281827 3.1412769388168615 -16.010866036734683 3.1991919797092363 -16.47750924910715 3.3724382565716877 -16.680987452694964 3.4651293309244933 -16.975086587249777 3.626076107388356 -17.166110395872686 3.7446779410132907 -17.37667169796099 3.886400681823931 -17.699234569645665 4.127065771545176 -17.826108331068465 4.229238973327395 -18.067078502573597 4.435430313942825 -18.33868711943113 4.688377439937046 -18.422913407692263 4.788669250498794 -18.46002614741922 4.850999948793927 -18.481892864251513 4.909562718494278 -18.488511803702586 4.964221556210999 A21.48591731740587 21.48591731740587 0 0 1 -18.257536814587624 5.77221791165039 L-18.237386671836415 5.819475213172016 -18.20226766693526 5.861878684666136 -18.152210790465414 5.899322781905652 -18.08729104737821 5.931694040106269 -17.962213538375064 5.970528710718624 -17.596968288925716 6.036478669434916 -17.282775825897495 6.079659552661895 -17.12080382254339 6.097019985532571 -16.71933329633857 6.125089687861275 -16.46557675863534 6.130476409765208 -16.24075631249373 6.126975353255069 -15.906329979752634 6.103370401034385 -15.685040643921303 6.071338472473488 -15.198811384197219 5.964796147136718 -15.063231777146816 5.94650816605462 -14.946154516702885 5.945992814773834 -14.848631215707202 5.962579190595763 -14.811633404382281 5.975957623133456 -14.77782544922167 5.993628621063904 -14.751236630537797 6.014221855899553 -14.729260374716713 6.039160624515631 -14.477245501264582 6.611535014368031 -14.47724438740112 6.611537453388798 -14.209707330892883 7.176823099761416 -14.205251254142727 7.209763066063717 -14.207099898999164 7.243343255345417 -14.215884552164482 7.280465645742116 -14.2300022213472 7.317187736053636 -14.281331255346496 7.401752695514985 -14.35839003256021 7.489896301944073 -14.460996927459844 7.580384451549734 -14.859928694372408 7.878081622258521 -15.029050507624824 8.024344491375112 -15.26589261392772 8.261629093661071 -15.41576461826125 8.429244345702912 -15.577868797998939 8.62454829372131 -15.81956241585966 8.946341218884983 -15.9125113811021 9.080120157288455 -16.085629753921808 9.345848442369771 -16.274972872817717 9.665070422544645 -16.327531936378087 9.78502899763479 -16.345580762377285 9.85529073174412 -16.350062684690496 9.917641863829902 -16.34101433648267 9.97195140530016 A21.48591731740587 21.48591731740587 0 0 1 -15.891756578209677 10.682145056800604 L-15.859108737435443 10.721811154324566 -15.813465860549464 10.75260282023551 -15.754887418041646 10.774427516644819 -15.68347734335958 10.787197506225922 -15.552525361268149 10.789220693396299 -15.183494860282694 10.749597737393197 -14.86986393900628 10.702511245494705 -14.709561940725221 10.673535672211344 -14.316445642711535 10.587361036523024 -14.071450412841553 10.521038080158304 -13.856723136046053 10.454339601914892 -13.54249370313256 10.33747203031839 -13.339192577400604 10.244393209547384 -12.902675460858527 10.00517998444102 -12.777740100197978 9.949435605741288 -12.665550482665997 9.91595665387557 -12.567304638527904 9.904395675993312 -12.528036358517152 9.906808700029096 -12.490619367659384 9.914239096731137 -12.459305798251618 9.926507224988738 -12.431193672158248 9.944244371504187 -12.028130671510912 10.422432782184709 -12.028128915615188 10.422434808596398 -11.612169619215713 10.889448515396158 -11.598613783955434 10.919798759718011 -11.590926913120342 10.952539538828542 -11.588897140145576 10.99063313437518 -11.592097136134182 11.029845129041009 -11.61752228135069 11.125445673446992 -11.66662671303408 11.231728810816238 -11.739583849982429 11.347459257407879 -12.038485092218403 11.745489667665423 -12.159549271631857 11.93347498374875 -12.319946810784419 12.227874024565462 -12.416525272360595 12.430923504150067 -12.517039613176 12.663986295025072 -12.658283397700986 13.04083730661063 -12.709777394387903 13.195384007659886 -12.801018947530936 13.499121511896762 -12.892757115039167 13.858756879904735 -12.909390931149897 13.98866388919059 -12.906913634879386 14.061164471279204 -12.893647663982712 14.122252647845286 -12.86966507147518 14.17181305701044 A21.48591731740587 21.48591731740587 0 0 1 -12.238520735780673 14.72666833861164 L-12.196020130878766 14.755529720819911 -12.14355109644462 14.772215023500662 -12.081196764931404 14.776652211973147 -12.009081578213152 14.768786384324931 -11.882864073821054 14.733834181461141 -11.539944977780443 14.591848326987224 -11.252284110262735 14.458309127502726 -11.106638831602766 14.385344976688376 -10.753724706292642 14.191907359466212 -10.53733884073724 14.059247816319699 -10.350100660221528 13.93475543037917 -10.081525126995897 13.734093155019387 -9.91268245949177 13.58750813453608 -9.561241506846685 13.235003642502411 -9.457071912477506 13.14631894422271 -9.358858873452574 13.08258865734523 -9.267849780173606 13.04381692743102 -9.229492313986041 13.035069054108325 -9.191497589503003 13.031656883031431 -9.157996108535789 13.034606013920916 -9.126025589436967 13.043704580211926 -8.604568228798907 13.388967030583219 -8.604565973123155 13.388968480218002 -8.073882985221534 13.719875574357449 -8.052325604604265 13.745177300403752 -8.035725962637121 13.77442620613649 -8.023046203657165 13.810404890273213 -8.015069281807769 13.848930066688236 -8.012530744185204 13.947821208489408 -8.029702681318586 14.06363344909931 -8.067099506972891 14.195230400169548 -8.241755023520454 14.661347993314777 -8.30495366927527 14.875826304047493 -8.375912186576251 15.203489323966501 -8.411372892812397 15.425523169839677 -8.442154320594456 15.677463442332384 -8.471505540370622 16.078842312600425 -8.477372831137032 16.241636321701076 -8.479345716602158 16.55877603889673 -8.46604685197908 16.929689276055687 -8.445407847783994 17.059020426231648 -8.422605125054558 17.127886290316287 -8.392665991014281 17.18276251060266 -8.35569208122204 17.223558697859254 A21.48591731740587 21.48591731740587 0 0 1 -7.5937927286241 17.578124534497295 L-7.544882505842841 17.593843023848613 -7.489838042985019 17.595070219307292 -7.42875939957012 17.581760425221887 -7.3617814443580665 17.553896022920533 -7.250523809226746 17.484800049629847 -6.961497383873797 17.2519541461922 -6.723111142816031 17.04278079087573 -6.6039218980683545 16.93173918409486 -6.319800949033297 16.646709750668386 -6.149554743723482 16.458460907969126 -6.00497458332461 16.286260247055658 -5.80381134220858 16.01805973209774 -5.683105761707455 15.829843958487002 -5.445212628842846 15.392606017045663 -5.370248001780399 15.278165706012405 -5.29396817758888 15.189347132947365 -5.217568850654579 15.126505705974498 -5.183229692080083 15.107305635964321 -5.147735340586063 15.093327330916177 -5.114760038806386 15.086718543392042 -5.081521188023501 15.086441417728972 -4.48391484152728 15.270806797416808 -4.483912268812929 15.2708075528339 -3.881498368995706 15.438799909526116 -3.8536858937923757 15.457003321927754 -3.829518284963486 15.480390781890174 -3.8072157786414635 15.5113397756017 -3.7887081817217245 15.54605705309082 -3.7584116184810057 15.640227220106716 -3.742259892843273 15.756186144984976 -3.741066738796512 15.892988398195302 -3.7773269784213293 16.389431098939657 -3.7775401120952656 16.613026647137822 -3.753310970479496 16.947408336972302 -3.7247811058492983 17.170438687427527 -3.68333589238331 17.42084573900707 -3.598416686142815 17.814235138980536 -3.558181937984947 17.9720878536885 -3.470726324324981 18.276937010058266 -3.3534678224909618 18.62907893179954 -3.2972280473650626 18.747356582240315 -3.2559472391592283 18.807008625573907 -3.2117604325604083 18.85122714457442 -3.1647906117625144 18.879954045455186 A21.48591731740587 21.48591731740587 0 0 1 -2.3338607966187004 19.00550562172989 L-2.2825033713275293 19.006807799698464 -2.2293428550647483 18.99247746785742 -2.174488128188962 18.962498971574533 -2.118073560081148 18.916893402778513 -2.0307892261343126 18.819251403887368 -1.8190706735447841 18.5144092417946 -1.6492716944598953 18.24654771189206 -1.5661944873882372 18.106424579736185 -1.3738845041867214 17.7528947196663 -1.2635702941835243 17.524307379090818 -1.1733611786456855 17.318349116634852 -1.0559072790706179 17.004338372750812 -0.99311763384097 16.789739968628282 -0.8880450075765888 16.303190995440687 -0.8483585360736684 16.17226634505105 -0.8001916644179782 16.065555038363787 -0.7445915229322688 15.983734953013247 -0.7170526263757071 15.9556381618006 -0.6869341891357159 15.932226161924028 -0.657156529382094 15.916594860647502 -0.6253421609265177 15.906964494103446 -0.0000013406634689443155 15.915496616508648 0.000001340663463097057 15.915496616508648 0.625342160926512 15.906964494103446 0.6571565293820882 15.916594860647502 0.6869341891357101 15.932226161924028 0.7170526263757013 15.9556381618006 0.744591522932263 15.983734953013247 0.8001916644179722 16.065555038363787 0.8483585360736624 16.17226634505105 0.8880450075765828 16.303190995440687 0.9931176338409637 16.789739968628282 1.0559072790706117 17.004338372750812 1.1733611786456792 17.318349116634852 1.263570294183518 17.524307379090818 1.3738845041867147 17.7528947196663 1.5661944873882305 18.106424579736185 1.6492716944598886 18.24654771189206 1.8190706735447775 18.5144092417946 2.0307892261343055 18.819251403887368 2.118073560081141 18.916893402778513 2.1744881281889548 18.962498971574533 2.229342855064741 18.99247746785742 2.2825033713275222 19.006807799698464 A21.48591731740587 21.48591731740587 0 0 1 3.1151466571241473 18.893173673584023 L3.1647906117625064 18.87995404545519 3.2117604325604012 18.85122714457442 3.2559472391592212 18.80700862557391 3.297228047365055 18.747356582240315 3.3534678224909547 18.629078931799544 3.4707263243249726 18.276937010058266 3.5581819379849393 17.972087853688496 3.5984166861428086 17.81423513898054 3.6833358923833037 17.420845739007074 3.7247811058492912 17.17043868742753 3.753310970479489 16.947408336972302 3.7775401120952585 16.613026647137822 3.777326978421323 16.389431098939657 3.7410667387965058 15.892988398195302 3.7422598928432667 15.756186144984978 3.7584116184809995 15.640227220106718 3.7887081817217183 15.546057053090822 3.8072157786414573 15.511339775601702 3.8295182849634797 15.480390781890176 3.853685893792369 15.457003321927756 3.8814983689957 15.438799909526118 4.483912268812923 15.270807552833901 4.483914841527274 15.27080679741681 5.081521188023494 15.086441417728974 5.11476003880638 15.086718543392044 5.147735340586057 15.093327330916178 5.183229692080077 15.107305635964323 5.2175688506545725 15.1265057059745 5.293968177588874 15.189347132947367 5.370248001780393 15.278165706012407 5.44521262884284 15.392606017045667 5.6831057617074485 15.829843958487006 5.803811342208573 16.01805973209774 6.0049745833246035 16.286260247055658 6.149554743723475 16.45846090796913 6.319800949033291 16.64670975066839 6.603921898068348 16.931739184094862 6.723111142816025 17.042780790875735 6.961497383873789 17.2519541461922 7.250523809226739 17.48480004962985 7.36178144435806 17.553896022920533 7.428759399570113 17.58176042522189 7.489838042985012 17.595070219307292 7.544882505842833 17.593843023848617 A21.48591731740587 21.48591731740587 0 0 1 8.311783455197318 17.25022915643465 L8.355692081222033 17.223558697859257 8.392665991014276 17.182762510602664 8.42260512505455 17.12788629031629 8.445407847783986 17.059020426231648 8.46604685197907 16.92968927605569 8.47934571660215 16.558776038896735 8.477372831137025 16.24163632170108 8.471505540370615 16.07884231260043 8.44215432059445 15.677463442332387 8.411372892812391 15.42552316983968 8.375912186576246 15.203489323966503 8.304953669275262 14.875826304047497 8.241755023520449 14.66134799331478 8.067099506972886 14.19523040016955 8.02970268131858 14.063633449099314 8.012530744185199 13.947821208489412 8.015069281807763 13.84893006668824 8.02304620365716 13.810404890273217 8.035725962637116 13.774426206136493 8.05232560460426 13.745177300403753 8.07388298522153 13.719875574357452 8.60456597312315 13.388968480218006 8.604568228798902 13.388967030583222 9.126025589436964 13.04370458021193 9.157996108535784 13.034606013920921 9.191497589502998 13.031656883031435 9.229492313986036 13.035069054108329 9.2678497801736 13.043816927431024 9.358858873452569 13.082588657345234 9.4570719124775 13.146318944222713 9.56124150684668 13.235003642502416 9.912682459491764 13.587508134536083 10.08152512699589 13.73409315501939 10.350100660221523 13.934755430379175 10.537338840737235 14.059247816319703 10.753724706292635 14.191907359466216 11.106638831602762 14.38534497668838 11.252284110262732 14.458309127502732 11.539944977780436 14.591848326987227 11.882864073821048 14.733834181461146 12.009081578213149 14.768786384324935 12.0811967649314 14.77665221197315 12.143551096444615 14.772215023500667 12.19602013087876 14.755529720819919 A21.48591731740587 21.48591731740587 0 0 1 12.835048989809982 14.209773664093943 L12.86966507147518 14.17181305701044 12.893647663982712 14.122252647845285 12.906913634879386 14.0611644712792 12.909390931149899 13.988663889190589 12.892757115039167 13.858756879904732 12.801018947530936 13.499121511896758 12.709777394387903 13.195384007659882 12.658283397700986 13.040837306610628 12.517039613176 12.66398629502507 12.416525272360595 12.430923504150066 12.31994681078442 12.22787402456546 12.159549271631857 11.933474983748749 12.038485092218403 11.74548966766542 11.739583849982429 11.347459257407877 11.66662671303408 11.231728810816236 11.61752228135069 11.12544567344699 11.592097136134182 11.029845129041007 11.588897140145576 10.990633134375178 11.590926913120342 10.95253953882854 11.598613783955434 10.91979875971801 11.612169619215713 10.889448515396156 12.028128915615188 10.422434808596396 12.028130671510912 10.422432782184707 12.431193672158248 9.944244371504185 12.459305798251618 9.926507224988736 12.490619367659384 9.914239096731135 12.528036358517152 9.906808700029094 12.567304638527904 9.90439567599331 12.665550482665997 9.915956653875568 12.777740100197978 9.949435605741286 12.902675460858527 10.005179984441018 13.339192577400604 10.244393209547383 13.54249370313256 10.337472030318388 13.856723136046051 10.45433960191489 14.071450412841553 10.521038080158302 14.316445642711535 10.587361036523022 14.709561940725221 10.673535672211342 14.86986393900628 10.702511245494701 15.183494860282694 10.749597737393193 15.552525361268149 10.789220693396295 15.683477343359579 10.78719750622592 15.754887418041646 10.774427516644815 15.813465860549464 10.752602820235508 15.859108737435443 10.721811154324563 A21.48591731740587 21.48591731740587 0 0 1 16.318495188243723 10.018126818266298 L16.34101433648266 9.971951405300167 16.350062684690492 9.917641863829907 16.345580762377278 9.855290731744127 16.327531936378083 9.785028997634795 16.274972872817713 9.66507042254465 16.0856297539218 9.345848442369777 15.912511381102094 9.08012015728846 15.819562415859656 8.946341218884989 15.577868797998935 8.624548293721315 15.415764618261244 8.42924434570292 15.265892613927715 8.261629093661076 15.02905050762482 8.02434449137512 14.859928694372405 7.878081622258527 14.46099692745984 7.580384451549739 14.358390032560207 7.4898963019440785 14.281331255346492 7.401752695514991 14.230002221347196 7.317187736053642 14.215884552164479 7.2804656457421215 14.20709989899916 7.2433432553454224 14.205251254142722 7.209763066063722 14.20970733089288 7.176823099761421 14.477244387401116 6.611537453388803 14.477245501264578 6.6115350143680365 14.72926037471671 6.039160624515636 14.751236630537795 6.014221855899558 14.777825449221666 5.993628621063909 14.811633404382277 5.9759576231334615 14.8486312157072 5.962579190595768 14.946154516702881 5.945992814773839 15.063231777146813 5.946508166054626 15.198811384197215 5.964796147136723 15.6850406439213 6.071338472473494 15.90632997975263 6.103370401034391 16.240756312493726 6.126975353255074 16.465576758635333 6.1304764097652145 16.719333296338565 6.12508968786128 17.120803822543387 6.097019985532577 17.28277582589749 6.0796595526619015 17.59696828892571 6.036478669434922 17.96221353837506 5.9705287107186304 18.087291047378205 5.931694040106276 18.152210790465407 5.899322781905658 18.202267666935256 5.861878684666142 18.237386671836408 5.819475213172022 A21.48591731740587 21.48591731740587 0 0 1 18.479913956353702 5.014870917717005 L18.488511803702586 4.964221556211006 18.481892864251513 4.909562718494285 18.460026147419217 4.850999948793934 18.42291340769226 4.788669250498801 18.33868711943113 4.688377439937053 18.067078502573594 4.435430313942831 17.826108331068465 4.229238973327401 17.699234569645665 4.127065771545183 17.37667169796099 3.8864006818239383 17.166110395872686 3.744677941013297 16.975086587249773 3.6260761073883625 16.680987452694964 3.4651293309244995 16.477509249107147 3.3724382565716944 16.010866036734676 3.1991919797092425 15.886921984281827 3.1412769388168678 15.788151705381452 3.07841373411061 15.71507715566847 3.011735309682273 15.691185542887812 2.980478129087421 15.672298143937521 2.9473343791352438 15.661063749601507 2.9156352469089044 15.656059063004552 2.8827741587944447 15.75349961840739 2.2650126540348925 15.7535 2.265010000000003 15.834049999999998 1.6448200000000026 15.848109999999998 1.6147000000000022 15.867819999999998 1.5874500000000022 15.895279999999996 1.5609700000000024 15.927009999999997 1.5377100000000028 16.01591 1.4943200000000028 16.128389999999996 1.4618300000000022 16.26363 1.4411800000000028 16.760179999999995 1.4064200000000024 16.98153 1.3748100000000028 17.30906 1.3032400000000026 17.52576 1.2432600000000027 17.76772 1.166600000000003 18.14502 1.026560000000003 18.29554 0.9642700000000031 18.58484 0.8343200000000031 18.916709999999995 0.6681400000000033 19.02578 0.5956400000000031 19.078949999999995 0.5462900000000035 19.11643 0.49626000000000303 19.13818 0.44568000000000296 A21.48591731740587 21.48591731740587 0 0 1 19.1442 -0.39466 Z" id="SvgjsPath1601">
        </path>
        <circle cy="0" cx="0" r="21.48591731740587" id="SvgjsCircle1602">
        </circle>
      </g>
      <g fill="none" stroke-width="0.04" stroke="green" id="SvgjsG1599">
      </g>
      <g fill="none" stroke-width="0.04" stroke="red" id="SvgjsG1600">
      </g>
    </g>
  </g>
</svg>
